<?xml version="1.0" encoding="UTF-8" standalone="no"?>
<svg xmlns:ffdec="https://www.free-decompiler.com/flash" xmlns:xlink="http://www.w3.org/1999/xlink" ffdec:objectType="frame" height="112.55px" width="112.55px" xmlns="http://www.w3.org/2000/svg">
  <g transform="matrix(1.0, 0.0, 0.0, 1.0, 53.4, 52.5)">
    <use ffdec:characterId="17" height="81.55" transform="matrix(1.0, 0.0, 0.0, 1.0, 0.0, 0.0)" width="86.9" xlink:href="#shape0"/>
    <clipPath id="clipPath0">
      <path d="M 46.5 -22.25 L 46.5 -22.24 L 46.55 -22.2 L 46.5 -22.25 Z M -9.65 -37.35 L -4.7 -27.75 L -4.3 -27.06 L -3.9 -26.4 L -3.5 -25.78 L -3.12 -25.2 L -2.73 -24.66 L -2.35 -24.15 L -1.98 -23.68 L -1.61 -23.25 L -1.25 -22.86 L -0.89 -22.5 L -0.54 -22.18 L -0.19 -21.9 L 0.15 -21.66 L 0.49 -21.45 L 0.82 -21.28 L 1.15 -21.15 L 1.53 -21.01 L 1.72 -20.96 L 1.92 -20.92 L 2.32 -20.86 L 2.73 -20.84 L 3.03 -20.85 L 3.34 -20.88 L 3.65 -20.93 L 3.97 -21 L 4.29 -21.09 L 4.62 -21.2 L 4.95 -21.33 L 5.29 -21.48 L 5.64 -21.65 L 5.99 -21.84 L 6.34 -22.05 L 6.7 -22.28 L 7.07 -22.53 L 7.44 -22.8 L 7.82 -23.09 L 8.2 -23.4 L 8.79 -23.92 L 9.47 -24.54 L 10.22 -25.27 L 11.06 -26.1 L 11.99 -27.04 L 12.99 -28.09 L 14.08 -29.24 L 15.25 -30.5 L 15.25 -30.5 L 15.13 -29.88 L 15.03 -29.28 L 14.94 -28.69 L 14.86 -28.12 L 14.8 -27.56 L 14.76 -27.01 L 14.72 -26.47 L 14.71 -25.95 L 14.7 -25.44 L 14.71 -24.95 L 14.74 -24.46 L 14.78 -23.99 L 14.83 -23.54 L 14.9 -23.1 L 14.98 -22.67 L 15.07 -22.25 L 15.19 -21.85 L 15.31 -21.46 L 15.45 -21.08 L 15.6 -20.72 L 15.77 -20.37 L 15.95 -20.03 L 16.15 -19.71 L 16.36 -19.4 L 16.58 -19.1 L 16.82 -18.82 L 17.07 -18.55 L 17.34 -18.29 L 17.62 -18.05 L 17.92 -17.82 L 18.23 -17.6 L 18.55 -17.4 L 18.5 -17.4 L 18.82 -17.2 L 19.15 -17.02 L 19.49 -16.84 L 19.85 -16.68 L 20.23 -16.54 L 20.61 -16.4 L 21.02 -16.28 L 21.43 -16.17 L 21.86 -16.08 L 22.31 -15.99 L 22.77 -15.92 L 23.25 -15.87 L 23.73 -15.82 L 24.24 -15.79 L 24.75 -15.77 L 25.29 -15.76 L 26.05 -15.78 L 26.83 -15.81 L 27.65 -15.87 L 28.49 -15.96 L 29.36 -16.07 L 30.26 -16.21 L 31.18 -16.36 L 32.14 -16.55 L 33.12 -16.76 L 34.13 -16.99 L 35.16 -17.25 L 36.22 -17.53 L 37.31 -17.83 L 38.43 -18.17 L 39.58 -18.52 L 40.75 -18.9 L 40.75 -18.9 L 40.07 -18.28 L 39.41 -17.67 L 38.77 -17.06 L 38.15 -16.46 L 37.55 -15.86 L 36.98 -15.27 L 36.43 -14.68 L 35.9 -14.09 L 35.39 -13.51 L 34.91 -12.93 L 34.44 -12.36 L 34 -11.79 L 33.58 -11.23 L 33.18 -10.67 L 32.8 -10.11 L 32.45 -9.56 L 32.12 -9.02 L 31.81 -8.47 L 31.52 -7.94 L 31.25 -7.4 L 31 -6.88 L 30.78 -6.35 L 30.58 -5.83 L 30.4 -5.32 L 30.24 -4.8 L 30.11 -4.3 L 29.99 -3.8 L 29.9 -3.3 L 29.83 -2.8 L 29.78 -2.32 L 29.75 -1.83 L 29.75 -1.35 L 29.75 -0.88 L 29.77 -0.42 L 29.81 0.05 L 29.87 0.5 L 29.95 0.95 L 30.05 1.4 L 30.18 1.84 L 30.32 2.28 L 30.49 2.71 L 30.67 3.14 L 30.88 3.57 L 31.11 3.99 L 31.36 4.4 L 31.63 4.82 L 31.92 5.22 L 32.24 5.62 L 32.57 6.02 L 32.93 6.42 L 33.3 6.8 L 33.7 7.19 L 34.12 7.57 L 34.56 7.94 L 35.02 8.31 L 35.5 8.68 L 36 9.04 L 36.52 9.4 L 37.07 9.75 L 37.63 10.1 L 38.22 10.45 L 38.82 10.78 L 39.45 11.12 L 40.1 11.45 L 38.19 11.41 L 36.48 11.39 L 35.21 11.4 L 34.07 11.43 L 33.07 11.48 L 32.2 11.55 L 31.58 11.62 L 30.99 11.7 L 30.44 11.8 L 29.92 11.91 L 29.44 12.03 L 28.99 12.16 L 28.58 12.31 L 28.2 12.48 L 27.85 12.65 L 27.54 12.84 L 27.27 13.04 L 27.02 13.26 L 26.82 13.48 L 26.64 13.73 L 26.5 13.98 L 26.4 14.25 L 26.3 14.5 L 26.22 14.76 L 26.17 15.05 L 26.15 15.36 L 26.16 15.69 L 26.2 16.03 L 26.27 16.4 L 26.36 16.79 L 26.49 17.19 L 26.64 17.62 L 26.82 18.07 L 27.03 18.53 L 27.27 19.02 L 27.53 19.53 L 27.83 20.05 L 28.15 20.6 L 28.4 21.01 L 28.71 21.51 L 29.08 22.08 L 29.52 22.73 L 30.61 24.26 L 31.95 26.1 L 30.81 25.42 L 29.72 24.79 L 28.67 24.22 L 27.66 23.71 L 26.7 23.26 L 25.79 22.87 L 24.92 22.53 L 24.51 22.38 L 24.1 22.25 L 23.6 22.09 L 23.1 21.95 L 22.62 21.83 L 22.15 21.73 L 21.7 21.66 L 21.25 21.6 L 20.82 21.57 L 20.4 21.56 L 20.1 21.57 L 19.8 21.59 L 19.51 21.61 L 19.23 21.65 L 18.95 21.71 L 18.68 21.77 L 18.42 21.85 L 18.17 21.93 L 17.92 22.03 L 17.67 22.14 L 17.44 22.27 L 17.21 22.4 L 16.98 22.54 L 16.76 22.7 L 16.55 22.87 L 16.35 23.05 L 16.3 23.1 L 16 23.35 L 15.72 23.62 L 15.44 23.92 L 15.17 24.25 L 14.91 24.61 L 14.65 25 L 14.41 25.42 L 14.18 25.86 L 13.95 26.34 L 13.73 26.84 L 13.52 27.37 L 13.32 27.93 L 13.13 28.52 L 12.94 29.13 L 12.77 29.78 L 12.6 30.45 L 12.42 31.19 L 12.24 32.03 L 12.05 32.98 L 11.86 34.03 L 11.67 35.18 L 11.47 36.43 L 11.26 37.79 L 11.05 39.25 L 10.67 38.47 L 10.3 37.72 L 9.92 36.99 L 9.54 36.29 L 9.15 35.61 L 8.77 34.95 L 8.38 34.32 L 8 33.72 L 7.61 33.14 L 7.22 32.58 L 6.83 32.05 L 6.43 31.55 L 6.04 31.07 L 5.64 30.61 L 5.25 30.18 L 4.85 29.77 L 4.45 29.39 L 4.05 29.03 L 3.64 28.7 L 3.24 28.39 L 2.83 28.1 L 2.42 27.84 L 2.01 27.61 L 1.6 27.4 L 1.19 27.21 L 0.78 27.05 L 0.36 26.92 L -0.05 26.81 L -0.47 26.72 L -0.89 26.66 L -1.31 26.62 L -1.74 26.61 L -2.12 26.62 L -2.5 26.65 L -2.55 26.65 L -2.99 26.69 L -3.44 26.76 L -3.9 26.86 L -4.36 26.98 L -4.83 27.12 L -5.31 27.29 L -5.79 27.49 L -6.29 27.71 L -6.79 27.96 L -7.3 28.23 L -7.81 28.53 L -8.33 28.85 L -8.86 29.2 L -9.4 29.58 L -9.95 29.98 L -10.5 30.4 L -11.14 30.91 L -11.82 31.48 L -12.54 32.11 L -13.31 32.81 L -14.13 33.58 L -14.99 34.4 L -15.9 35.29 L -16.85 36.25 L -15.5 27.45 L -15.5 27.35 L -15.44 26.69 L -15.4 26.06 L -15.37 25.45 L -15.36 24.87 L -15.36 24.32 L -15.38 23.8 L -15.42 23.3 L -15.48 22.84 L -15.55 22.4 L -15.63 21.99 L -15.74 21.6 L -15.86 21.25 L -15.99 20.92 L -16.15 20.62 L -16.31 20.35 L -16.5 20.1 L -16.67 19.87 L -16.86 19.65 L -17.06 19.45 L -17.28 19.27 L -17.52 19.1 L -17.77 18.94 L -18.05 18.8 L -18.34 18.67 L -18.64 18.56 L -18.97 18.46 L -19.31 18.38 L -19.67 18.31 L -20.04 18.26 L -20.44 18.22 L -20.85 18.2 L -21.27 18.19 L -21.78 18.2 L -22.32 18.23 L -22.87 18.28 L -23.45 18.35 L -24.39 18.5 L -25.44 18.71 L -26.6 18.98 L -27.86 19.3 L -29.24 19.68 L -30.72 20.11 L -32.3 20.6 L -34 21.15 L -33.46 20.51 L -32.95 19.88 L -32.46 19.27 L -31.99 18.66 L -31.55 18.06 L -31.13 17.48 L -30.73 16.9 L -30.35 16.33 L -30 15.78 L -29.67 15.23 L -29.36 14.7 L -29.08 14.18 L -28.81 13.66 L -28.57 13.16 L -28.36 12.67 L -28.16 12.19 L -27.99 11.72 L -27.84 11.26 L -27.72 10.8 L -27.61 10.36 L -27.53 9.94 L -27.48 9.52 L -27.44 9.11 L -27.43 8.71 L -27.44 8.32 L -27.47 7.94 L -27.53 7.58 L -27.61 7.22 L -27.71 6.88 L -27.83 6.54 L -27.98 6.21 L -28.15 5.9 L -28.34 5.56 L -28.57 5.23 L -28.81 4.9 L -29.09 4.58 L -29.39 4.27 L -29.72 3.96 L -30.07 3.67 L -30.45 3.38 L -30.86 3.09 L -31.29 2.81 L -31.75 2.54 L -32.24 2.28 L -32.75 2.03 L -33.29 1.78 L -33.86 1.53 L -34.45 1.3 L -35.07 1.06 L -35.75 0.82 L -36.47 0.59 L -37.24 0.35 L -38.06 0.11 L -38.92 -0.12 L -39.84 -0.36 L -40.8 -0.6 L -39.14 -0.97 L -37.6 -1.33 L -36.16 -1.68 L -34.84 -2.01 L -33.62 -2.34 L -32.52 -2.65 L -31.53 -2.96 L -30.65 -3.25 L -30 -3.48 L -29.38 -3.72 L -28.8 -3.97 L -28.26 -4.22 L -27.75 -4.47 L -27.28 -4.74 L -26.84 -5 L -26.44 -5.28 L -26.07 -5.55 L -25.74 -5.84 L -25.44 -6.12 L -25.18 -6.42 L -24.96 -6.72 L -24.77 -7.02 L -24.62 -7.33 L -24.5 -7.65 L -24.39 -7.95 L -24.31 -8.27 L -24.25 -8.59 L -24.23 -8.94 L -24.23 -9.29 L -24.26 -9.67 L -24.31 -10.05 L -24.4 -10.45 L -24.51 -10.86 L -24.66 -11.29 L -24.83 -11.73 L -25.02 -12.19 L -25.25 -12.66 L -25.51 -13.14 L -25.79 -13.64 L -26.1 -14.15 L -30.45 -20.15 L -23.2 -17.05 L -23.05 -16.95 L -22.11 -16.63 L -21.21 -16.35 L -20.35 -16.11 L -19.54 -15.92 L -18.76 -15.77 L -18.01 -15.66 L -17.31 -15.59 L -16.98 -15.58 L -16.65 -15.57 L -16.34 -15.58 L -16.05 -15.59 L -15.76 -15.62 L -15.48 -15.65 L -15.21 -15.7 L -14.94 -15.76 L -14.69 -15.82 L -14.45 -15.9 L -14.4 -15.95 L -14.17 -16.04 L -13.94 -16.13 L -13.72 -16.24 L -13.51 -16.35 L -13.3 -16.48 L -13.09 -16.62 L -12.89 -16.76 L -12.7 -16.92 L -12.51 -17.08 L -12.32 -17.26 L -12.15 -17.45 L -11.97 -17.64 L -11.81 -17.85 L -11.65 -18.06 L -11.34 -18.52 L -11.05 -19.03 L -10.79 -19.57 L -10.54 -20.15 L -10.32 -20.77 L -10.12 -21.43 L -9.94 -22.13 L -9.79 -22.87 L -9.65 -23.65 L -9.56 -24.27 L -9.48 -24.92 L -9.41 -25.61 L -9.35 -26.33 L -9.31 -27.07 L -9.27 -27.85 L -9.26 -28.66 L -9.25 -29.5 L -9.26 -30.37 L -9.27 -31.27 L -9.31 -32.21 L -9.35 -33.17 L -9.41 -34.17 L -9.48 -35.2 L -9.65 -37.35 Z M -11.5 -43.7 L -11.69 -43.64 L -11.85 -43.55 L -11.99 -43.44 L -12.1 -43.3 L -12.25 -42.65 L -12.25 -42.6 L -12.07 -41.06 L -11.9 -39.56 L -11.76 -38.12 L -11.63 -36.73 L -11.53 -35.39 L -11.44 -34.09 L -11.37 -32.85 L -11.32 -31.66 L -11.3 -30.52 L -11.29 -29.43 L -11.3 -28.39 L -11.33 -27.4 L -11.38 -26.46 L -11.45 -25.58 L -11.54 -24.74 L -11.65 -23.95 L -11.76 -23.34 L -11.88 -22.76 L -12.02 -22.21 L -12.17 -21.69 L -12.33 -21.21 L -12.51 -20.75 L -12.7 -20.32 L -12.91 -19.92 L -13.14 -19.56 L -13.37 -19.22 L -13.62 -18.92 L -13.89 -18.64 L -14.17 -18.4 L -14.47 -18.19 L -14.78 -18 L -15.1 -17.85 L -15.15 -17.8 L -15.5 -17.72 L -15.87 -17.67 L -16.27 -17.63 L -16.68 -17.62 L -17.26 -17.64 L -17.87 -17.7 L -18.52 -17.79 L -19.21 -17.93 L -19.94 -18.1 L -20.71 -18.31 L -21.51 -18.56 L -22.35 -18.85 L -22.45 -18.85 L -33.1 -23.4 L -33.75 -23.45 L -34.3 -23.1 L -34.5 -22.5 L -34.3 -21.9 L -27.8 -13.05 L -27.57 -12.67 L -27.36 -12.31 L -27.17 -11.95 L -27 -11.61 L -26.85 -11.28 L -26.71 -10.95 L -26.6 -10.64 L -26.5 -10.34 L -26.42 -10.05 L -26.36 -9.76 L -26.32 -9.49 L -26.3 -9.23 L -26.3 -8.98 L -26.31 -8.75 L -26.35 -8.52 L -26.4 -8.3 L -26.4 -8.35 L -26.51 -8.13 L -26.65 -7.92 L -26.82 -7.7 L -27.01 -7.49 L -27.23 -7.29 L -27.47 -7.08 L -27.74 -6.88 L -28.04 -6.68 L -28.36 -6.48 L -28.71 -6.28 L -29.08 -6.09 L -29.48 -5.89 L -29.91 -5.7 L -30.36 -5.52 L -30.84 -5.33 L -31.35 -5.15 L -31.9 -4.96 L -32.51 -4.77 L -33.85 -4.37 L -35.37 -3.96 L -37.09 -3.54 L -38.99 -3.1 L -41.07 -2.65 L -43.34 -2.18 L -45.8 -1.7 L -46.35 -1.35 L -46.35 -1.3 L -46.6 -0.7 L -46.4 -0.05 L -46.4 -0.1 L -45.8 0.3 L -44.08 0.68 L -42.47 1.06 L -40.97 1.43 L -39.59 1.8 L -38.31 2.16 L -37.15 2.51 L -36.09 2.86 L -35.15 3.2 L -34.67 3.4 L -34.2 3.6 L -33.76 3.8 L -33.34 4.01 L -32.94 4.23 L -32.56 4.45 L -32.2 4.67 L -31.86 4.9 L -31.54 5.13 L -31.25 5.37 L -30.97 5.61 L -30.72 5.86 L -30.48 6.11 L -30.27 6.37 L -30.07 6.63 L -29.9 6.9 L -29.95 6.9 L -29.82 7.2 L -29.71 7.51 L -29.63 7.83 L -29.57 8.16 L -29.54 8.51 L -29.54 8.87 L -29.55 9.24 L -29.6 9.62 L -29.66 10.02 L -29.76 10.43 L -29.88 10.85 L -30.02 11.29 L -30.19 11.73 L -30.38 12.19 L -30.6 12.67 L -30.84 13.15 L -31.1 13.65 L -31.4 14.16 L -31.71 14.68 L -32.06 15.21 L -32.42 15.76 L -32.81 16.32 L -33.23 16.89 L -33.67 17.48 L -34.14 18.07 L -34.63 18.68 L -35.15 19.3 L -35.69 19.94 L -36.25 20.58 L -36.84 21.24 L -38.1 22.6 L -38.1 22.65 L -38.35 23.2 L -38.35 23.25 L -38.2 23.85 L -37.7 24.25 L -37 24.25 L -34.71 23.47 L -32.57 22.77 L -30.6 22.15 L -28.79 21.62 L -27.14 21.18 L -26.37 20.99 L -25.65 20.82 L -24.96 20.67 L -24.32 20.54 L -23.71 20.44 L -23.15 20.35 L -22.67 20.29 L -22.22 20.25 L -21.78 20.23 L -21.37 20.22 L -20.81 20.24 L -20.29 20.29 L -20.04 20.33 L -19.81 20.37 L -19.59 20.43 L -19.38 20.49 L -19.18 20.56 L -19 20.64 L -18.82 20.73 L -18.65 20.83 L -18.5 20.93 L -18.35 21.05 L -18.22 21.17 L -18.1 21.3 L -17.97 21.5 L -17.86 21.72 L -17.76 21.96 L -17.67 22.23 L -17.59 22.52 L -17.52 22.83 L -17.47 23.17 L -17.42 23.52 L -17.39 23.91 L -17.37 24.31 L -17.37 24.73 L -17.37 25.18 L -17.38 25.65 L -17.41 26.15 L -17.5 27.2 L -19.3 39 L -19.2 39.6 L -18.75 40.05 L -18.15 40.15 L -18.1 40.15 L -17.6 39.85 L -16.31 38.51 L -15.09 37.28 L -13.95 36.14 L -12.88 35.11 L -11.87 34.18 L -10.94 33.35 L -10.09 32.63 L -9.3 32 L -8.82 31.63 L -8.34 31.28 L -7.87 30.95 L -7.4 30.65 L -6.95 30.36 L -6.49 30.1 L -6.05 29.86 L -5.61 29.64 L -5.18 29.44 L -4.76 29.26 L -4.34 29.11 L -3.93 28.97 L -3.52 28.86 L -3.13 28.77 L -2.73 28.7 L -2.35 28.65 L -2.08 28.64 L -1.67 28.66 L -1.26 28.7 L -0.85 28.77 L -0.44 28.87 L -0.03 29 L 0.38 29.16 L 0.79 29.34 L 1.19 29.56 L 1.6 29.8 L 2 30.07 L 2.41 30.37 L 2.81 30.7 L 3.21 31.05 L 3.62 31.44 L 4.02 31.85 L 4.42 32.3 L 4.82 32.77 L 5.21 33.27 L 5.61 33.79 L 6.01 34.35 L 6.4 34.93 L 6.8 35.55 L 7.19 36.19 L 7.59 36.86 L 7.98 37.56 L 8.37 38.29 L 8.76 39.04 L 9.15 39.83 L 9.54 40.64 L 9.93 41.48 L 10.31 42.35 L 10.7 43.25 L 11.1 43.75 L 11.1 43.7 L 11.75 43.85 L 12.3 43.6 L 12.35 43.55 L 12.6 43 L 12.87 40.92 L 13.13 39 L 13.38 37.25 L 13.62 35.66 L 13.86 34.24 L 14.08 32.98 L 14.3 31.88 L 14.5 30.95 L 14.64 30.37 L 14.79 29.82 L 14.94 29.29 L 15.11 28.79 L 15.28 28.31 L 15.45 27.85 L 15.63 27.42 L 15.82 27.01 L 16.02 26.63 L 16.23 26.27 L 16.44 25.93 L 16.66 25.62 L 16.88 25.33 L 17.11 25.06 L 17.35 24.82 L 17.6 24.6 L 17.6 24.55 L 17.65 24.55 L 17.95 24.32 L 18.27 24.13 L 18.6 23.96 L 18.95 23.83 L 19.32 23.72 L 19.71 23.65 L 20.11 23.6 L 20.54 23.59 L 20.87 23.6 L 21.21 23.62 L 21.57 23.67 L 21.94 23.73 L 22.31 23.81 L 22.7 23.9 L 23.09 24.02 L 23.5 24.15 L 24.07 24.34 L 24.67 24.56 L 25.29 24.81 L 25.93 25.09 L 26.6 25.41 L 27.29 25.75 L 28 26.12 L 28.74 26.52 L 29.5 26.96 L 30.28 27.42 L 31.08 27.92 L 31.91 28.44 L 32.76 29 L 33.63 29.59 L 34.53 30.2 L 35.45 30.85 L 35.5 30.85 L 36.15 31.05 L 36.8 30.75 L 36.75 30.75 L 37.05 30.15 L 37.05 30.1 L 36.85 29.45 L 29.85 19.6 L 29.39 18.82 L 29 18.1 L 28.83 17.76 L 28.69 17.44 L 28.56 17.13 L 28.45 16.84 L 28.36 16.56 L 28.29 16.3 L 28.23 16.05 L 28.2 15.82 L 28.18 15.61 L 28.19 15.41 L 28.21 15.22 L 28.25 15.05 L 28.3 14.95 L 28.39 14.82 L 28.51 14.69 L 28.64 14.57 L 28.8 14.45 L 28.98 14.34 L 29.18 14.24 L 29.4 14.14 L 29.65 14.05 L 29.92 13.97 L 30.21 13.89 L 30.52 13.82 L 30.85 13.75 L 31.58 13.64 L 32.4 13.55 L 33.27 13.48 L 34.27 13.44 L 35.41 13.41 L 36.69 13.4 L 38.54 13.41 L 40.62 13.46 L 42.92 13.54 L 45.45 13.65 L 46.1 13.45 L 46.5 12.9 L 46.5 12.85 L 46.35 12.16 L 46.4 12.2 L 46.35 12.15 L 46.35 12.16 L 46.35 12.16 L 45.85 11.7 L 44.99 11.38 L 44.15 11.05 L 43.35 10.72 L 42.57 10.38 L 41.81 10.04 L 41.09 9.69 L 40.39 9.33 L 39.72 8.97 L 39.07 8.61 L 38.46 8.23 L 37.87 7.86 L 37.3 7.47 L 36.77 7.09 L 36.26 6.69 L 35.78 6.29 L 35.33 5.89 L 34.9 5.48 L 34.5 5.06 L 34.13 4.64 L 33.78 4.21 L 33.46 3.78 L 33.17 3.34 L 32.91 2.9 L 32.67 2.45 L 32.46 1.99 L 32.28 1.53 L 32.12 1.06 L 31.99 0.59 L 31.89 0.12 L 31.82 -0.37 L 31.77 -0.86 L 31.75 -1.35 L 31.77 -1.87 L 31.82 -2.39 L 31.89 -2.92 L 32 -3.46 L 32.13 -4 L 32.29 -4.55 L 32.48 -5.11 L 32.69 -5.67 L 32.94 -6.24 L 33.21 -6.81 L 33.51 -7.39 L 33.84 -7.97 L 34.19 -8.56 L 34.57 -9.16 L 34.99 -9.77 L 35.42 -10.38 L 35.89 -10.99 L 36.39 -11.61 L 36.91 -12.24 L 37.46 -12.87 L 38.04 -13.51 L 38.65 -14.16 L 39.28 -14.81 L 39.94 -15.47 L 40.63 -16.13 L 41.35 -16.8 L 42.1 -17.48 L 42.87 -18.16 L 43.68 -18.85 L 44.51 -19.54 L 45.36 -20.24 L 46.25 -20.95 L 46.65 -21.5 L 46.65 -21.55 L 46.5 -22.24 L 46 -22.7 L 45.3 -22.7 L 43.72 -22.11 L 42.18 -21.55 L 40.69 -21.04 L 39.25 -20.56 L 37.85 -20.12 L 36.49 -19.72 L 35.18 -19.36 L 33.91 -19.03 L 32.69 -18.75 L 31.51 -18.5 L 30.38 -18.29 L 29.29 -18.12 L 28.25 -17.98 L 27.25 -17.89 L 26.29 -17.83 L 25.38 -17.81 L 24.93 -17.82 L 24.5 -17.83 L 24.07 -17.86 L 23.65 -17.89 L 23.25 -17.94 L 22.86 -17.99 L 22.48 -18.06 L 22.11 -18.13 L 21.76 -18.22 L 21.42 -18.31 L 21.08 -18.42 L 20.76 -18.54 L 20.45 -18.66 L 20.16 -18.8 L 19.87 -18.94 L 19.6 -19.1 L 19.3 -19.31 L 19.03 -19.54 L 18.76 -19.78 L 18.52 -20.04 L 18.28 -20.32 L 18.07 -20.61 L 17.87 -20.92 L 17.69 -21.24 L 17.52 -21.58 L 17.37 -21.94 L 17.23 -22.31 L 17.12 -22.7 L 17.01 -23.1 L 16.93 -23.52 L 16.85 -23.96 L 16.8 -24.41 L 16.76 -24.88 L 16.74 -25.37 L 16.73 -25.87 L 16.74 -26.39 L 16.77 -26.92 L 16.81 -27.47 L 16.86 -28.03 L 16.94 -28.62 L 17.03 -29.21 L 17.13 -29.83 L 17.25 -30.46 L 17.39 -31.1 L 17.54 -31.77 L 17.71 -32.44 L 17.9 -33.14 L 18.1 -33.85 L 18.1 -34.5 L 18.1 -34.55 L 17.7 -35 L 17.65 -35 L 17.05 -35.15 L 17 -35.15 L 16.4 -34.8 L 14.76 -32.98 L 13.26 -31.33 L 11.88 -29.85 L 10.62 -28.52 L 9.5 -27.37 L 8.51 -26.38 L 7.64 -25.56 L 6.9 -24.9 L 6.31 -24.43 L 5.73 -24.03 L 5.45 -23.85 L 5.18 -23.69 L 4.91 -23.54 L 4.64 -23.41 L 4.39 -23.3 L 4.13 -23.19 L 3.88 -23.11 L 3.64 -23.04 L 3.4 -22.99 L 3.17 -22.95 L 2.94 -22.92 L 2.72 -22.92 L 2.49 -22.92 L 2.27 -22.95 L 2.06 -22.99 L 1.85 -23.05 L 1.58 -23.18 L 1.31 -23.34 L 1.04 -23.52 L 0.76 -23.74 L 0.47 -23.99 L 0.18 -24.27 L -0.11 -24.58 L -0.41 -24.92 L -0.72 -25.3 L -1.03 -25.7 L -1.34 -26.13 L -1.67 -26.59 L -1.99 -27.09 L -2.32 -27.61 L -2.66 -28.17 L -3 -28.75 L -2.95 -28.75 L -10.35 -43.2 L -10.85 -43.65 L -11.5 -43.7 Z"/>
    </clipPath>
    <g clip-path="url(#clipPath0)">
      <use ffdec:characterId="15" height="112.55" transform="matrix(1.0, 0.0, 0.0, 1.0, 1.8, 3.7)" width="112.55" xlink:href="#sprite0"/>
    </g>
  </g>
  <defs>
    <g id="shape0">
      <path d="M18.15 -17.35 Q24.4 -13.4 43.45 -20.7 15.05 1.7 43.3 12.05 34.3 11.6 30.75 11.95 26.6 12.3 26.0 13.95 25.4 15.5 27.65 19.15 28.85 21.25 34.3 28.65 27.05 23.45 22.7 22.1 18.45 20.7 16.15 22.65 14.05 24.35 12.9 29.25 12.05 32.5 11.05 40.8 4.75 25.75 -2.35 26.35 -5.4 26.6 -9.4 29.7 -12.3 31.95 -17.45 37.3 L-15.75 26.0 Q-15.25 21.35 -16.45 19.75 -17.85 17.85 -22.2 18.45 -26.4 19.0 -35.55 22.2 -25.0 11.0 -27.7 6.1 -28.95 3.8 -33.15 2.15 -36.55 0.8 -43.45 -0.65 -33.6 -2.6 -29.55 -4.0 -25.0 -5.6 -24.25 -7.6 -23.55 -9.55 -25.65 -12.95 -26.65 -14.55 -31.9 -21.4 L-21.6 -17.05 Q-16.6 -15.25 -14.05 -16.1 -11.0 -17.25 -10.15 -22.65 -9.2 -28.6 -10.7 -40.75 L-3.65 -26.9 Q-0.85 -21.9 1.4 -21.05 3.75 -20.2 7.2 -23.0 9.8 -25.15 16.35 -32.5 12.85 -20.7 18.15 -17.35" fill="#333366" fill-rule="evenodd" stroke="none"/>
      <path d="M26.6 -0.6 Q27.05 6.85 38.5 11.05 26.85 9.5 24.4 12.5 21.65 15.8 30.3 24.8 24.0 20.7 20.25 19.8 16.65 18.9 14.7 20.65 12.95 22.25 11.95 26.55 11.35 29.1 10.4 36.45 4.85 23.8 -2.35 24.45 -7.65 25.0 -15.5 33.7 -14.3 26.9 -14.25 23.6 -14.25 19.65 -15.75 18.1 -17.35 16.45 -21.1 16.85 -24.75 17.25 -31.5 19.75 -23.6 10.4 -25.5 5.95 -27.15 2.05 -38.15 -0.7 -23.95 -3.1 -22.35 -7.05 -21.55 -9.05 -23.25 -12.05 -24.75 -14.65 -28.8 -18.95 -21.85 -15.55 -20.8 -15.1 -16.3 -13.3 -13.6 -13.8 -6.45 -15.4 -9.0 -34.95 -5.1 -26.6 -3.25 -23.65 -0.85 -19.65 1.3 -19.0 3.55 -18.4 6.7 -20.9 9.3 -23.05 14.6 -29.15 11.5 -17.35 17.6 -15.05 L25.4 -14.6 Q29.45 -15.05 36.5 -16.85 26.1 -7.95 26.6 -0.6" fill="url(#gradient0)" fill-rule="evenodd" stroke="none"/>
    </g>
    <radialGradient cx="0" cy="0" gradientTransform="matrix(0.0493, 0.0, 0.0, 0.0493, 0.2, 0.75)" gradientUnits="userSpaceOnUse" id="gradient0" r="819.2" spreadMethod="pad">
      <stop offset="0.0" stop-color="#ccccff"/>
      <stop offset="1.0" stop-color="#6666cc"/>
    </radialGradient>
    <g id="sprite0">
      <use ffdec:characterId="14" height="54.75" transform="matrix(1.3469, 0.0, 0.0, 1.3469, 0.0, -0.75)" width="54.75" xlink:href="#shape1"/>
    </g>
    <g id="shape1">
      <path d="M18.8 -18.25 Q26.4 -10.65 26.4 0.0 26.4 10.65 18.8 18.3 11.2 25.9 0.55 25.9 -10.15 25.9 -17.75 18.3 -25.35 10.65 -25.35 0.0 -25.35 -10.65 -17.75 -18.25 -10.15 -25.9 0.55 -25.85 11.2 -25.9 18.8 -18.25 Z" fill="none" stroke="#ccccff" stroke-linecap="round" stroke-linejoin="round" stroke-width="3.0"/>
    </g>
  </defs>
</svg>
