<?xml version="1.0" encoding="UTF-8" standalone="no"?>
<svg xmlns:ffdec="https://www.free-decompiler.com/flash" xmlns:xlink="http://www.w3.org/1999/xlink" ffdec:objectType="frame" height="79.0px" width="79.0px" xmlns="http://www.w3.org/2000/svg">
  <g transform="matrix(1.0, 0.0, 0.0, 1.0, 39.55, 39.45)">
    <use ffdec:characterId="49" height="55.65" transform="matrix(1.1601, 0.0, 0.0, 1.1601, -32.69, -32.6859)" width="55.7" xlink:href="#sprite0"/>
    <clipPath id="clipPath0" transform="matrix(1.0, 0.0, 0.0, 1.0, 0.0, 0.0)">
      <path d="M0.0 -22.0 Q9.1 -22.0 15.55 -15.55 22.0 -9.1 22.0 0.0 22.0 9.05 15.55 15.5 9.1 21.95 0.0 21.95 -9.15 21.95 -15.5 15.5 -21.95 9.05 -21.95 0.0 -21.95 -9.1 -15.5 -15.55 -9.15 -22.0 0.0 -22.0" fill="#000000" fill-rule="evenodd" stroke="none"/>
    </clipPath>
    <g clip-path="url(#clipPath0)">
      <use ffdec:characterId="51" height="49.0" transform="matrix(1.0, 0.0, 0.0, 1.0, -24.5, -24.5)" width="49.0" xlink:href="#shape2"/>
      <use ffdec:characterId="53" height="31.9" transform="matrix(1.0, 0.0, 0.0, 1.0, -16.1, -15.65)" width="31.9" xlink:href="#sprite1"/>
    </g>
    <use ffdec:characterId="56" height="79.0" transform="matrix(1.0, 0.0, 0.0, 1.0, -39.55, -39.45)" width="79.0" xlink:href="#sprite2"/>
  </g>
  <defs>
    <g id="sprite0" transform="matrix(1.0, 0.0, 0.0, 1.0, 28.35, 27.7)">
      <use ffdec:characterId="48" height="66.5" transform="matrix(0.8369, 0.0, 0.0, 0.8369, -28.3297, -27.7241)" width="66.55" xlink:href="#shape0"/>
    </g>
    <g id="shape0" transform="matrix(1.0, 0.0, 0.0, 1.0, 31.7, 34.8)">
      <path d="M34.85 -1.55 Q34.85 12.2 25.1 21.95 15.35 31.7 1.55 31.7 -12.25 31.7 -21.95 21.95 -31.75 12.2 -31.7 -1.55 -31.75 -15.4 -21.95 -25.1 -12.25 -34.85 1.55 -34.8 15.35 -34.85 25.1 -25.1 34.85 -15.4 34.85 -1.55" fill="url(#gradient0)" fill-rule="evenodd" stroke="none"/>
    </g>
    <radialGradient cx="0" cy="0" gradientTransform="matrix(0.0411, 0.0, 0.0, 0.0411, 1.6, -1.55)" gradientUnits="userSpaceOnUse" id="gradient0" r="819.2" spreadMethod="pad">
      <stop offset="0.8980392156862745" stop-color="#6666cc"/>
      <stop offset="1.0" stop-color="#333366"/>
    </radialGradient>
    <g id="shape2" transform="matrix(1.0, 0.0, 0.0, 1.0, 24.5, 24.5)">
      <path d="M24.5 0.0 Q24.45 10.15 17.3 17.3 10.15 24.45 0.0 24.5 -10.2 24.45 -17.35 17.3 -24.55 10.15 -24.5 0.0 -24.55 -10.2 -17.35 -17.35 -10.2 -24.55 0.0 -24.5 10.15 -24.55 17.3 -17.35 24.45 -10.2 24.5 0.0" fill="url(#gradient1)" fill-rule="evenodd" stroke="none"/>
    </g>
    <radialGradient cx="0" cy="0" gradientTransform="matrix(0.031, 0.0, 0.0, 0.031, 0.0, 0.0)" gradientUnits="userSpaceOnUse" id="gradient1" r="819.2" spreadMethod="pad">
      <stop offset="0.0" stop-color="#ccccff"/>
      <stop offset="0.6745098039215687" stop-color="#6666cc"/>
      <stop offset="1.0" stop-color="#333366"/>
    </radialGradient>
    <g id="sprite1" transform="matrix(1.0, 0.0, 0.0, 1.0, 16.1, 15.15)">
      <use ffdec:characterId="52" height="31.9" transform="matrix(1.0, 0.0, 0.0, 1.0, -16.1, -15.15)" width="31.9" xlink:href="#shape3"/>
    </g>
    <g id="shape3" transform="matrix(1.0, 0.0, 0.0, 1.0, 16.1, 15.15)">
      <path d="M2.05 3.8 L-0.4 4.8 0.3 2.25 -1.35 0.2 1.25 0.1 2.65 -2.1 3.55 0.4 6.1 1.0 4.05 2.65 4.2 5.3 2.05 3.8" fill="#000033" fill-opacity="0.8" fill-rule="evenodd" stroke="none"/>
      <path d="M1.1 -13.1 Q6.85 -12.35 10.3 -8.1 13.7 -3.85 13.25 1.9 12.5 7.65 8.3 11.1 4.05 14.5 -1.7 14.05 -7.5 13.3 -10.9 9.05 -14.35 4.8 -13.85 -0.95 -13.25 -6.0 -9.8 -9.3 -10.2 -8.35 -10.0 -7.45 -9.5 -5.75 -7.4 -5.0 L-2.7 -4.9 Q-0.05 -5.65 1.45 -7.2 2.95 -8.8 2.6 -10.55 1.95 -12.55 -0.55 -13.15 L1.1 -13.1 M2.05 3.8 L4.2 5.3 4.05 2.65 6.1 1.0 3.55 0.4 2.65 -2.1 1.25 0.1 -1.35 0.2 0.3 2.25 -0.4 4.8 2.05 3.8 M-6.2 -3.5 Q-7.6 -3.7 -9.3 -2.95 -10.95 -2.2 -11.75 -1.05 -12.6 0.1 -12.2 1.15 -11.7 2.1 -10.3 2.3 -8.9 2.45 -7.2 1.7 -5.55 0.95 -4.7 -0.2 -3.9 -1.35 -4.3 -2.4 -4.8 -3.35 -6.2 -3.5" fill="#6666cc" fill-opacity="0.8" fill-rule="evenodd" stroke="none"/>
      <path d="M1.1 -13.1 L-0.55 -13.15 Q1.95 -12.55 2.6 -10.55 2.95 -8.8 1.45 -7.2 -0.05 -5.65 -2.7 -4.9 L-7.4 -5.0 Q-9.5 -5.75 -10.0 -7.45 -10.2 -8.35 -9.8 -9.3 -13.25 -6.0 -13.85 -0.95 -14.35 4.8 -10.9 9.05 -7.5 13.3 -1.7 14.05 4.05 14.5 8.3 11.1 12.5 7.65 13.25 1.9 13.7 -3.85 10.3 -8.1 6.85 -12.35 1.1 -13.1 M12.05 -9.1 Q16.0 -4.25 15.5 2.45 14.6 9.05 9.75 13.0 4.85 16.95 -1.8 16.45 -8.45 15.55 -12.4 10.7 -16.35 5.8 -15.8 -0.85 -14.95 -7.5 -10.05 -11.45 -5.2 -15.4 1.5 -14.85 8.1 -14.0 12.05 -9.1 M-6.2 -3.5 Q-4.8 -3.35 -4.3 -2.4 -3.9 -1.35 -4.7 -0.2 -5.55 0.95 -7.2 1.7 -8.9 2.45 -10.3 2.3 -11.7 2.1 -12.2 1.15 -12.6 0.1 -11.75 -1.05 -10.95 -2.2 -9.3 -2.95 -7.6 -3.7 -6.2 -3.5" fill="#ccccff" fill-opacity="0.8" fill-rule="evenodd" stroke="none"/>
      <path d="M12.05 -9.1 Q16.0 -4.25 15.5 2.45 14.6 9.05 9.75 13.0 4.85 16.95 -1.8 16.45 -8.45 15.55 -12.4 10.7 -16.35 5.8 -15.8 -0.85 -14.95 -7.5 -10.05 -11.45 -5.2 -15.4 1.5 -14.85 8.1 -14.0 12.05 -9.1 M2.05 3.8 L-0.4 4.8 0.3 2.25 -1.35 0.2 1.25 0.1 2.65 -2.1 3.55 0.4 6.1 1.0 4.05 2.65 4.2 5.3 2.05 3.8 Z" fill="none" stroke="#000000" stroke-linecap="round" stroke-linejoin="round" stroke-opacity="0.8" stroke-width="0.5"/>
    </g>
    <g id="sprite2" transform="matrix(1.0, 0.0, 0.0, 1.0, 39.5, 39.5)">
      <use ffdec:characterId="55" height="56.0" transform="matrix(1.0, 0.0, 0.0, 1.0, -28.0, -28.0)" width="55.95" xlink:href="#sprite3"/>
    </g>
    <g id="sprite3" transform="matrix(1.0, 0.0, 0.0, 1.0, 28.0, 28.0)">
      <use ffdec:characterId="54" height="56.0" transform="matrix(1.0, 0.0, 0.0, 1.0, -28.0, -28.0)" width="55.95" xlink:href="#shape4"/>
    </g>
    <g id="shape4" transform="matrix(1.0, 0.0, 0.0, 1.0, 28.0, 28.0)">
      <path d="M16.25 -16.25 Q9.5 -23.0 -0.05 -23.0 -9.6 -23.0 -16.25 -16.3 L-16.25 -16.25 Q-23.0 -9.55 -23.0 0.0 -23.0 9.5 -16.25 16.25 -9.6 22.95 -0.05 23.0 9.45 22.95 16.25 16.25 22.95 9.45 22.95 0.0 22.95 -9.55 16.25 -16.25 M19.75 -19.8 L19.8 -19.8 Q27.95 -11.65 27.95 0.0 27.95 11.5 19.8 19.75 L19.75 19.8 Q11.5 27.95 -0.05 28.0 -11.7 27.95 -19.8 19.75 -28.0 11.5 -28.0 0.0 -28.0 -11.65 -19.8 -19.8 -11.7 -28.0 -0.05 -28.0 11.5 -28.0 19.75 -19.8" fill="url(#gradient2)" fill-rule="evenodd" stroke="none"/>
    </g>
    <linearGradient gradientTransform="matrix(0.0341, 0.0, 0.0, 0.0342, -0.05, 0.0)" gradientUnits="userSpaceOnUse" id="gradient2" spreadMethod="pad" x1="-819.2" x2="819.2">
      <stop offset="0.0" stop-color="#6666cc"/>
      <stop offset="0.25098039215686274" stop-color="#6666cc"/>
      <stop offset="0.4980392156862745" stop-color="#ccccff"/>
      <stop offset="0.7333333333333333" stop-color="#6666cc"/>
      <stop offset="1.0" stop-color="#6666cc"/>
    </linearGradient>
  </defs>
</svg>
