<?xml version="1.0" encoding="UTF-8" standalone="no"?>
<svg xmlns:ffdec="https://www.free-decompiler.com/flash" xmlns:xlink="http://www.w3.org/1999/xlink" ffdec:objectType="frame" height="79.0px" width="79.0px" xmlns="http://www.w3.org/2000/svg">
  <g transform="matrix(1.0, 0.0, 0.0, 1.0, 39.55, 39.45)">
    <use ffdec:characterId="49" height="55.65" transform="matrix(1.1601, 0.0, 0.0, 1.1601, -32.69, -32.6859)" width="55.7" xlink:href="#sprite0"/>
    <clipPath id="clipPath0" transform="matrix(1.0, 0.0, 0.0, 1.0, 0.0, 0.0)">
      <path d="M0.0 -22.0 Q9.1 -22.0 15.55 -15.55 22.0 -9.1 22.0 0.0 22.0 9.05 15.55 15.5 9.1 21.95 0.0 21.95 -9.15 21.95 -15.5 15.5 -21.95 9.05 -21.95 0.0 -21.95 -9.1 -15.5 -15.55 -9.15 -22.0 0.0 -22.0" fill="#000000" fill-rule="evenodd" stroke="none"/>
    </clipPath>
    <g clip-path="url(#clipPath0)">
      <use ffdec:characterId="51" height="49.0" transform="matrix(1.0, 0.0, 0.0, 1.0, -24.5, -24.5)" width="49.0" xlink:href="#shape2"/>
      <use ffdec:characterId="59" height="42.2" transform="matrix(0.9, 0.0, 0.0, 0.9, -15.7299, -19.2999)" width="37.15" xlink:href="#sprite1"/>
    </g>
    <use ffdec:characterId="55" height="56.0" transform="matrix(1.0, 0.0, 0.0, 1.0, -28.05, -27.95)" width="55.95" xlink:href="#sprite2"/>
  </g>
  <defs>
    <g id="sprite0" transform="matrix(1.0, 0.0, 0.0, 1.0, 28.35, 27.7)">
      <use ffdec:characterId="48" height="66.5" transform="matrix(0.8369, 0.0, 0.0, 0.8369, -28.3297, -27.7241)" width="66.55" xlink:href="#shape0"/>
    </g>
    <g id="shape0" transform="matrix(1.0, 0.0, 0.0, 1.0, 31.7, 34.8)">
      <path d="M34.85 -1.55 Q34.85 12.2 25.1 21.95 15.35 31.7 1.55 31.7 -12.25 31.7 -21.95 21.95 -31.75 12.2 -31.7 -1.55 -31.75 -15.4 -21.95 -25.1 -12.25 -34.85 1.55 -34.8 15.35 -34.85 25.1 -25.1 34.85 -15.4 34.85 -1.55" fill="url(#gradient0)" fill-rule="evenodd" stroke="none"/>
    </g>
    <radialGradient cx="0" cy="0" gradientTransform="matrix(0.0411, 0.0, 0.0, 0.0411, 1.6, -1.55)" gradientUnits="userSpaceOnUse" id="gradient0" r="819.2" spreadMethod="pad">
      <stop offset="0.8980392156862745" stop-color="#6666cc"/>
      <stop offset="1.0" stop-color="#333366"/>
    </radialGradient>
    <g id="shape2" transform="matrix(1.0, 0.0, 0.0, 1.0, 24.5, 24.5)">
      <path d="M24.5 0.0 Q24.45 10.15 17.3 17.3 10.15 24.45 0.0 24.5 -10.2 24.45 -17.35 17.3 -24.55 10.15 -24.5 0.0 -24.55 -10.2 -17.35 -17.35 -10.2 -24.55 0.0 -24.5 10.15 -24.55 17.3 -17.35 24.45 -10.2 24.5 0.0" fill="url(#gradient1)" fill-rule="evenodd" stroke="none"/>
    </g>
    <radialGradient cx="0" cy="0" gradientTransform="matrix(0.031, 0.0, 0.0, 0.031, 0.0, 0.0)" gradientUnits="userSpaceOnUse" id="gradient1" r="819.2" spreadMethod="pad">
      <stop offset="0.0" stop-color="#ccccff"/>
      <stop offset="0.6745098039215687" stop-color="#6666cc"/>
      <stop offset="1.0" stop-color="#333366"/>
    </radialGradient>
    <g id="sprite1" transform="matrix(1.0, 0.0, 0.0, 1.0, 17.2, 22.0)">
      <g class="new-bumper-icon" transform="translate(-18.57975,-18.00996)"><defs><clipPath id="new-bumper-icon-clip"><path d="M258.57975,179.99986c0,11.13425 -8.64826,18.01009 -18.57975,18.01009c-10.65876,0 -18.57975,-7.42983 -18.57975,-18.01009c0,-11.23739 8.36252,-18.00981 18.57975,-18.00981c10.73587,0 18.57975,7.3026 18.57975,18.00981z" fill="none" fill-rule="nonzero" stroke-width="1" stroke-linecap="butt"/></clipPath></defs><g transform="translate(-221.42025,-161.99004)"><g stroke="none" stroke-miterlimit="10"><path d="M258.57975,179.99985c0,11.13425 -8.64827,18.01009 -18.57975,18.01009c-10.65876,0 -18.57975,-7.42982 -18.57975,-18.01009c0,-11.23739 8.36252,-18.00981 18.57975,-18.00981c10.73587,0 18.57975,7.3026 18.57975,18.00981z" fill="#6666cc" fill-rule="nonzero" stroke-width="0.09246" stroke-linecap="butt"/><g clip-path="url(#new-bumper-icon-clip)"><path d="M239.4427,193.03028c-2.56306,-0.00016 -4.64082,-8.05534 -4.64084,-17.99193c-0.00001,-9.93669 2.07775,-17.99205 4.64084,-17.9922c2.56309,0.00016 4.64085,8.05551 4.64084,17.9922c-0.00002,9.93659 -2.07778,17.99177 -4.64084,17.99193zM239.43271,161.51855c-1.02807,-0.00019 -2.01405,1.63559 -2.74102,4.54748c-0.72697,2.91189 -1.13539,6.86134 -1.13539,10.97948c0,4.11814 0.40842,8.06759 1.13539,10.97948c0.72697,2.91189 1.71295,4.54768 2.74102,4.54748c2.14074,-0.0002 3.87613,-6.95179 3.87614,-15.52696c-0.00001,-8.57517 -1.7354,-15.52676 -3.87614,-15.52696z" fill="#ccccff" fill-rule="evenodd" stroke-width="5.89465" stroke-linecap="round"/><path d="M251.39832,170.21516c1.58557,1.98462 -4.17488,8.79276 -12.86644,15.20656c-8.69166,6.41385 -17.02319,10.00458 -18.60905,8.02014c-1.58559,-1.98464 4.175,-8.79291 12.86668,-15.20674c8.69159,-6.41375 17.02297,-10.00438 18.60881,-8.01996zM223.84105,190.56278c0.63588,0.79614 2.67671,0.5037 5.67351,-0.81296c2.99681,-1.31666 6.70409,-3.54969 10.30625,-6.20783c3.60215,-2.65814 6.80408,-5.52362 8.90136,-7.96604c2.09728,-2.44242 2.91811,-4.26169 2.2819,-5.05758c-1.3246,-1.6574 -8.47884,1.48597 -15.97959,7.02099c-7.50074,5.53503 -12.50768,11.36575 -11.18343,13.02341z" fill="#ccccff" fill-rule="evenodd" stroke-width="6.11626" stroke-linecap="round"/><path d="M227.27383,174.70524c0.86162,-2.80262 8.63632,-2.31451 17.36545,1.09024c8.72921,3.4048 17.8284,7.88522 16.81674,11.17704c-1.04858,3.41075 -11.20725,2.3772 -19.93645,-1.02764c-8.72911,-3.40481 -15.10708,-8.43692 -14.24573,-11.23965zM254.70887,185.36643c0.71992,-2.34086 -4.55293,-6.49529 -12.08644,-9.43373c-7.53351,-2.93842 -14.04651,-3.3118 -14.76573,-0.97067c-0.71936,2.34094 4.62685,6.5097 12.15998,9.44799c7.53314,2.93828 13.97247,3.29722 14.69219,0.95641z" fill="#ccccff" fill-rule="evenodd" stroke-width="6.11392" stroke-linecap="round"/><path d="M241.2705,179.13186c-0.19046,1.10813 -1.24317,2.00645 -2.35131,2.00645c-0.53214,0 -1.00616,-0.21139 -1.31777,-0.58767c-0.31161,-0.37628 -0.43529,-0.88663 -0.34382,-1.41878c0.09146,-0.53214 0.39057,-1.04249 0.83153,-1.41877c0.44096,-0.37628 0.98764,-0.58768 1.51978,-0.58768c0.53214,0 1.00616,0.21139 1.31777,0.58768c0.31161,0.37628 0.43528,0.88663 0.34382,1.41877z" fill="#ccccff" fill-rule="evenodd" stroke-width="5.24589" stroke-linecap="round"/><path d="M232.46579,173.31386c0,0.45859 -0.18217,0.89841 -0.50645,1.22268c-0.32428,0.32428 -0.76409,0.50645 -1.22268,0.50645c-0.45859,0 -0.8984,-0.18217 -1.22268,-0.50645c-0.32428,-0.32428 -0.50645,-0.76409 -0.50645,-1.22268c0,-0.95497 0.77416,-1.72913 1.72913,-1.72913c0.95497,0 1.72913,0.77416 1.72913,1.72913z" fill="#ccccff" fill-rule="evenodd" stroke-width="5.77777" stroke-linecap="round"/><path d="M249.25242,177.72106c0,0.45859 -0.18218,0.8984 -0.50645,1.22268c-0.32428,0.32428 -0.76409,0.50645 -1.22268,0.50645c-0.45859,0 -0.89841,-0.18218 -1.22268,-0.50645c-0.32428,-0.32428 -0.50645,-0.76409 -0.50645,-1.22268c0,-0.95497 0.77416,-1.72913 1.72913,-1.72913c0.95497,0 1.72913,0.77416 1.72913,1.72913z" fill="#000033" fill-rule="evenodd" stroke-width="5.77777" stroke-linecap="round"/><path d="M238.15263,185.55822c0,0.45859 -0.18218,0.89841 -0.50645,1.22268c-0.32428,0.32428 -0.76409,0.50645 -1.22268,0.50645c-0.45859,0 -0.8984,-0.18217 -1.22268,-0.50645c-0.32428,-0.32428 -0.50645,-0.76409 -0.50645,-1.22268c0,-0.95497 0.77416,-1.72913 1.72913,-1.72913c0.95497,0 1.72913,0.77416 1.72913,1.72913z" fill="#0c419a" fill-rule="evenodd" stroke-width="5.77777" stroke-linecap="round"/></g></g></g></g>
    </g>
    <g id="shape3" transform="matrix(1.0, 0.0, 0.0, 1.0, 17.2, 22.0)">
      <path d="M-9.3 -14.85 L-8.85 -13.85 -10.95 -11.8 -11.15 -11.75 -11.2 -11.75 -11.8 -11.8 -12.3 -11.7 -12.45 -11.7 -12.65 -11.7 -9.3 -14.85 M-14.05 -9.8 L-13.9 -9.55 -13.85 -9.45 -13.15 -9.4 -12.8 -9.3 -12.7 -9.3 -12.75 -9.25 Q-15.15 -5.15 -15.15 0.0 -15.1 6.05 -11.9 10.25 L-10.05 12.35 Q-7.7 14.55 -4.55 15.75 -1.45 16.9 2.25 16.85 7.3 16.7 11.0 13.95 12.9 12.5 14.4 10.6 L14.5 10.6 14.65 10.35 14.8 10.35 14.85 10.3 15.45 9.8 15.6 9.75 15.8 9.65 15.85 9.65 16.6 9.15 16.6 9.05 16.65 8.95 17.0 8.6 17.0 8.55 17.15 8.25 17.15 8.2 17.25 8.15 17.4 8.1 17.35 7.95 17.15 7.25 17.0 6.8 19.95 8.4 Q19.05 10.7 16.85 13.4 14.6 16.15 10.95 18.15 7.3 20.1 2.05 20.2 -3.45 20.1 -7.8 17.5 -12.15 14.85 -14.65 10.45 -17.15 6.05 -17.2 0.65 -17.2 -4.3 -14.75 -8.65 L-14.05 -9.8" fill="#0b3d91" fill-rule="evenodd" stroke="none"/>
      <path d="M7.85 -9.9 L7.65 -10.15 7.3 -10.65 7.15 -10.65 Q6.75 -11.2 5.85 -11.15 L5.25 -11.05 4.8 -10.9 Q4.1 -10.75 3.2 -10.0 L2.15 -8.7 1.6 -7.85 1.3 -7.2 1.15 -6.4 1.15 -5.65 1.2 -5.25 1.45 -4.8 1.55 -4.45 2.05 -3.5 2.6 -2.85 2.95 -2.55 Q2.95 -2.5 3.4 -2.2 L3.85 -1.95 4.05 -1.9 4.05 -1.85 4.15 -1.75 4.45 -1.7 4.85 -1.6 5.2 -1.6 5.3 -1.5 5.7 -1.5 6.2 -1.55 6.4 -1.7 6.55 -1.7 6.6 -1.75 6.9 -1.8 6.95 -1.9 7.0 -1.9 7.2 -1.95 7.3 -2.1 7.6 -2.25 7.65 -2.0 7.8 -1.8 7.85 -1.55 8.1 -1.25 8.2 -1.05 Q8.5 -0.45 8.8 -0.4 L9.0 -0.4 9.2 -0.3 Q9.35 -0.3 9.55 -0.45 L9.55 -1.05 9.6 -1.25 9.7 -1.6 9.75 -1.85 9.75 -2.25 9.8 -2.6 9.85 -3.05 9.7 -4.65 9.5 -5.25 8.55 -6.2 8.1 -6.1 7.75 -6.15 7.3 -6.15 5.85 -5.95 5.5 -6.0 5.55 -5.85 5.6 -5.5 5.65 -5.4 6.2 -5.05 7.15 -4.95 7.35 -4.65 7.35 -3.9 7.0 -3.55 6.3 -3.2 5.2 -3.0 Q3.4 -2.95 3.15 -4.05 L3.1 -4.5 3.0 -4.75 2.95 -5.3 3.05 -5.9 3.15 -6.3 3.2 -6.45 3.35 -6.8 3.55 -7.3 3.7 -7.35 3.85 -7.65 3.9 -7.65 4.0 -7.75 4.35 -8.15 4.5 -8.2 5.05 -8.55 5.5 -8.8 5.85 -8.85 6.3 -9.1 6.5 -9.15 6.75 -9.25 6.95 -9.25 7.3 -9.4 7.45 -9.4 7.9 -9.3 8.05 -9.45 7.85 -9.9 M8.1 -10.6 L8.35 -10.25 8.45 -10.15 8.85 -9.15 8.05 -8.65 7.95 -8.65 7.4 -8.7 7.1 -8.6 6.9 -8.6 6.7 -8.5 6.5 -8.4 6.45 -8.4 6.4 -8.4 6.35 -8.4 6.05 -8.25 5.75 -8.15 5.55 -8.1 4.85 -7.65 4.8 -7.6 4.7 -7.6 4.45 -7.25 4.4 -7.25 4.35 -7.2 4.35 -7.15 4.05 -6.8 4.0 -6.7 3.9 -6.5 3.85 -6.3 3.8 -6.2 3.8 -6.15 3.6 -5.25 3.6 -4.85 3.7 -4.8 3.7 -4.75 3.8 -4.2 3.8 -4.15 Q3.95 -3.55 5.1 -3.6 L6.55 -4.0 6.7 -4.15 6.7 -4.25 6.7 -4.3 6.75 -4.3 6.2 -4.35 6.15 -4.35 5.95 -4.45 5.5 -4.7 5.15 -5.0 5.0 -5.25 4.95 -5.3 4.95 -5.45 4.9 -5.7 4.7 -6.7 4.65 -6.9 5.85 -6.6 7.2 -6.8 7.25 -6.8 7.45 -6.75 7.65 -6.75 8.1 -6.75 8.65 -6.85 8.7 -6.85 8.75 -6.85 8.95 -6.7 Q10.0 -5.95 10.15 -5.4 L10.25 -5.0 10.35 -4.8 10.35 -4.75 10.45 -3.25 10.45 -3.05 10.45 -2.55 10.4 -2.2 10.4 -2.0 10.4 -1.8 10.4 -1.75 10.3 -1.35 10.25 -1.2 10.2 -1.0 10.2 -0.75 10.2 -0.3 10.15 -0.1 10.1 -0.05 9.95 0.05 9.35 0.35 9.05 0.4 8.85 0.25 Q8.4 0.25 8.1 -0.05 L7.6 -0.75 7.6 -0.85 7.55 -0.85 7.3 -1.25 6.95 -1.15 6.9 -1.1 6.9 -1.05 6.85 -1.05 6.6 -1.05 6.55 -1.0 6.4 -0.9 6.3 -0.9 5.65 -0.85 5.55 -0.85 5.35 -0.85 5.05 -0.85 5.0 -0.9 4.7 -0.9 4.3 -1.05 3.95 -1.15 3.7 -1.3 3.6 -1.3 3.55 -1.3 3.0 -1.65 2.4 -2.1 2.15 -2.35 2.1 -2.4 1.9 -2.6 1.45 -3.15 1.45 -3.2 1.15 -3.75 0.9 -4.2 0.8 -4.6 0.6 -5.0 0.6 -5.05 0.45 -5.55 0.45 -5.6 0.45 -5.85 0.45 -6.1 0.7 -7.35 1.0 -8.1 1.6 -9.05 2.8 -10.5 Q3.65 -11.25 4.6 -11.5 L5.8 -11.8 Q6.6 -11.9 7.4 -11.3 L7.5 -11.3 7.6 -11.3 8.1 -10.6 M-6.95 -9.45 Q-6.95 -8.95 -7.5 -8.25 L-9.0 -7.05 -9.1 -7.3 -9.2 -7.9 -9.55 -9.25 -9.25 -9.55 -8.95 -9.65 -8.65 -9.55 -8.35 -9.7 -8.1 -9.85 -7.7 -9.9 -7.05 -9.8 -6.9 -9.7 -6.95 -9.45 M-7.7 -9.4 L-7.85 -9.35 -8.05 -9.25 -8.6 -9.0 -8.95 -9.1 -8.75 -8.45 -8.65 -8.05 -8.65 -7.9 Q-7.55 -8.8 -7.45 -9.35 L-7.7 -9.4 M-5.6 -4.7 Q-5.45 -4.15 -5.75 -3.6 L-6.4 -2.75 -6.95 -2.15 -7.3 -1.95 -7.5 -1.65 -8.1 -1.45 -8.3 -2.25 -8.75 -5.35 -8.1 -5.55 -7.35 -5.35 -7.25 -5.35 -6.65 -5.25 -5.85 -4.95 -5.6 -4.7 M-6.95 -4.8 L-7.25 -4.85 -7.4 -4.85 -8.1 -5.0 -8.0 -4.6 -8.0 -4.3 -7.85 -3.35 -7.8 -2.4 -7.75 -2.2 -7.65 -2.4 -7.45 -2.45 -7.25 -2.55 -7.1 -2.75 -6.75 -3.15 -6.3 -3.65 Q-6.1 -4.0 -6.05 -4.4 L-6.05 -4.45 -6.15 -4.5 -6.15 -4.55 -6.65 -4.75 -6.95 -4.8 M8.2 2.65 L8.7 3.4 8.7 3.6 8.85 3.8 8.85 4.35 Q8.95 5.4 7.35 6.75 L6.85 7.15 6.55 7.35 5.85 7.65 5.85 6.6 5.8 6.3 5.85 6.05 5.8 5.05 5.8 4.4 5.8 4.35 5.8 3.45 5.85 3.35 5.8 3.05 5.75 2.55 5.7 2.25 6.0 2.15 6.25 2.15 7.2 2.15 7.75 2.3 8.2 2.65 M7.55 2.9 L7.5 2.9 7.35 2.85 7.2 2.85 7.0 2.85 6.7 2.85 6.4 2.85 6.3 2.85 6.3 3.2 6.4 3.6 6.35 3.65 6.35 3.7 6.35 3.85 6.35 4.2 6.35 4.5 6.3 4.55 6.35 4.95 6.3 4.95 6.35 5.35 6.35 5.6 6.4 5.85 6.4 5.95 6.35 6.2 6.35 6.25 6.4 6.3 6.3 6.8 6.5 6.7 6.7 6.6 7.15 6.2 Q8.35 5.2 8.3 4.5 L8.3 4.45 8.3 4.2 8.3 4.05 8.3 3.95 8.2 3.85 8.2 3.75 8.2 3.65 7.85 3.15 7.6 2.95 7.55 2.9" fill="#000000" fill-rule="evenodd" stroke="none"/>
      <path d="M5.95 -21.85 Q6.65 -21.8 6.7 -21.2 L6.0 -13.9 Q5.9 -13.4 5.4 -13.3 L-0.7 -12.55 Q-3.4 -11.9 -6.0 -10.7 L-6.8 -11.2 -6.85 -11.2 -7.65 -11.5 -10.45 -17.75 Q-10.65 -18.35 -10.05 -18.7 -6.25 -20.3 -2.35 -21.05 L5.95 -21.85 M2.5 -20.75 L1.8 -20.65 1.05 -20.5 0.95 -18.05 1.4 -18.15 2.2 -18.3 2.45 -18.6 2.45 -18.9 1.65 -18.75 1.65 -19.2 1.9 -19.25 2.2 -19.3 2.4 -19.55 2.4 -19.85 1.7 -19.7 1.7 -20.1 2.25 -20.2 2.5 -20.5 2.5 -20.75 M0.85 -19.95 Q0.85 -20.35 0.2 -20.35 -1.25 -20.2 -1.25 -18.85 -1.2 -17.6 -0.1 -17.75 0.4 -17.85 0.6 -18.05 L0.8 -18.45 0.85 -19.4 -0.2 -19.2 -0.2 -18.95 0.0 -18.75 0.15 -18.75 0.15 -18.5 -0.2 -18.3 Q-0.55 -18.35 -0.55 -18.9 -0.5 -19.6 0.0 -19.7 L0.4 -19.7 Q0.8 -19.65 0.85 -19.95 M3.3 -20.4 Q3.6 -20.5 3.7 -20.2 L3.5 -19.8 3.3 -19.7 3.3 -20.4 M3.55 -20.9 L3.05 -20.85 2.65 -20.8 2.6 -18.35 2.95 -18.4 3.25 -18.75 3.3 -19.1 3.3 -19.35 3.85 -18.65 4.3 -18.6 Q4.55 -18.8 4.4 -19.05 L4.15 -19.35 3.95 -19.6 Q4.3 -19.75 4.4 -20.25 4.35 -20.95 3.55 -20.9 M4.6 -18.15 L3.4 -18.25 Q2.85 -18.2 2.25 -17.75 1.65 -17.3 1.6 -16.15 1.6 -15.2 2.1 -14.8 2.6 -14.45 3.3 -14.5 4.15 -14.65 4.55 -15.0 L4.8 -15.65 4.85 -16.4 4.85 -16.95 3.25 -16.65 3.25 -16.3 Q3.25 -15.9 3.6 -15.95 L3.85 -16.0 3.85 -15.7 3.45 -15.45 Q2.65 -15.4 2.7 -16.3 2.8 -17.2 3.5 -17.3 L4.4 -17.25 Q4.8 -17.25 4.9 -17.55 4.95 -17.95 4.6 -18.15 M0.4 -15.85 L0.05 -16.3 -0.6 -17.05 -1.2 -17.2 -1.75 -17.05 -1.85 -13.3 -1.65 -13.4 -1.35 -13.45 Q-0.8 -13.65 -0.8 -14.2 L-0.75 -15.0 -0.75 -15.5 0.35 -14.2 Q0.6 -13.95 0.95 -14.0 1.3 -14.1 1.35 -14.55 L1.45 -16.5 1.45 -17.75 0.95 -17.65 Q0.45 -17.6 0.4 -16.95 L0.4 -16.3 0.4 -15.85 M-4.8 -19.05 L-5.15 -18.95 -5.15 -18.3 -5.2 -17.3 Q-5.2 -16.4 -4.25 -16.6 -3.45 -16.75 -3.35 -17.75 L-3.3 -19.15 Q-3.35 -19.5 -3.65 -19.4 L-4.0 -19.3 -4.05 -17.65 Q-4.05 -17.35 -4.3 -17.2 -4.55 -17.2 -4.5 -17.45 L-4.5 -18.85 Q-4.5 -19.15 -4.8 -19.05 M-6.35 -16.45 L-6.5 -16.4 -6.45 -17.05 Q-6.05 -17.2 -6.05 -16.85 L-6.35 -16.45 M-6.35 -17.5 L-6.45 -17.5 -6.45 -18.05 Q-6.1 -18.2 -6.05 -17.9 L-6.35 -17.5 M-5.75 -17.45 Q-5.4 -17.75 -5.35 -18.1 -5.4 -18.8 -6.3 -18.6 L-6.75 -18.4 -7.1 -18.3 -7.2 -15.6 -6.2 -15.95 Q-5.4 -16.2 -5.3 -16.95 -5.35 -17.4 -5.75 -17.45 M-2.8 -19.65 L-3.1 -19.55 -3.2 -17.0 -2.8 -17.1 -2.5 -17.5 -2.5 -17.9 -2.45 -18.15 -1.9 -17.55 -1.4 -17.5 Q-1.2 -17.75 -1.4 -18.0 L-1.8 -18.45 Q-1.45 -18.65 -1.35 -19.2 -1.4 -19.9 -2.2 -19.8 L-2.8 -19.65 M-5.55 -13.75 L-4.7 -12.75 -3.8 -12.7 Q-3.45 -13.15 -3.7 -13.5 L-4.5 -14.35 -4.1 -14.9 -3.65 -15.6 Q-3.4 -16.05 -3.8 -16.3 L-4.5 -16.15 -5.5 -14.55 -5.45 -15.85 -6.6 -15.4 -6.75 -11.7 -5.95 -12.0 -5.7 -12.2 -5.6 -12.55 -5.55 -13.75 M-2.1 -16.95 L-2.7 -16.8 Q-3.25 -16.7 -3.3 -15.9 L-3.35 -14.9 -3.4 -13.5 -3.4 -12.85 -2.8 -13.05 Q-2.2 -13.2 -2.2 -13.8 L-2.15 -14.8 -2.1 -16.25 -2.1 -16.95" fill="#0c419a" fill-rule="evenodd" stroke="none"/>
      <path d="M0.85 -19.95 Q0.8 -19.65 0.4 -19.7 L0.0 -19.7 Q-0.5 -19.6 -0.55 -18.9 -0.55 -18.35 -0.2 -18.3 L0.15 -18.5 0.15 -18.75 0.0 -18.75 -0.2 -18.95 -0.2 -19.2 0.85 -19.4 0.8 -18.45 0.6 -18.05 Q0.4 -17.85 -0.1 -17.75 -1.2 -17.6 -1.25 -18.85 -1.25 -20.2 0.2 -20.35 0.85 -20.35 0.85 -19.95 M2.5 -20.75 L2.5 -20.5 2.25 -20.2 1.7 -20.1 1.7 -19.7 2.4 -19.85 2.4 -19.55 2.2 -19.3 1.9 -19.25 1.65 -19.2 1.65 -18.75 2.45 -18.9 2.45 -18.6 2.2 -18.3 1.4 -18.15 0.95 -18.05 1.05 -20.5 1.8 -20.65 2.5 -20.75 M3.55 -20.9 Q4.35 -20.95 4.4 -20.25 4.3 -19.75 3.95 -19.6 L4.15 -19.35 4.4 -19.05 Q4.55 -18.8 4.3 -18.6 L3.85 -18.65 3.3 -19.35 3.3 -19.1 3.25 -18.75 2.95 -18.4 2.6 -18.35 2.65 -20.8 3.05 -20.85 3.55 -20.9 M3.3 -20.4 L3.3 -19.7 3.5 -19.8 3.7 -20.2 Q3.6 -20.5 3.3 -20.4 M0.4 -15.85 L0.4 -16.3 0.4 -16.95 Q0.45 -17.6 0.95 -17.65 L1.45 -17.75 1.45 -16.5 1.35 -14.55 Q1.3 -14.1 0.95 -14.0 0.6 -13.95 0.35 -14.2 L-0.75 -15.5 -0.75 -15.0 -0.8 -14.2 Q-0.8 -13.65 -1.35 -13.45 L-1.65 -13.4 -1.85 -13.3 -1.75 -17.05 -1.2 -17.2 -0.6 -17.05 0.05 -16.3 0.4 -15.85 M4.6 -18.15 Q4.95 -17.95 4.9 -17.55 4.8 -17.25 4.4 -17.25 L3.5 -17.3 Q2.8 -17.2 2.7 -16.3 2.65 -15.4 3.45 -15.45 L3.85 -15.7 3.85 -16.0 3.6 -15.95 Q3.25 -15.9 3.25 -16.3 L3.25 -16.65 4.85 -16.95 4.85 -16.4 4.8 -15.65 4.55 -15.0 Q4.15 -14.65 3.3 -14.5 2.6 -14.45 2.1 -14.8 1.6 -15.2 1.6 -16.15 1.65 -17.3 2.25 -17.75 2.85 -18.2 3.4 -18.25 L4.6 -18.15 M7.85 -9.9 L8.05 -9.45 7.9 -9.3 7.45 -9.4 7.3 -9.4 6.95 -9.25 6.75 -9.25 6.5 -9.15 6.3 -9.1 5.85 -8.85 5.5 -8.8 5.05 -8.55 4.5 -8.2 4.35 -8.15 4.0 -7.75 3.9 -7.65 3.85 -7.65 3.7 -7.35 3.55 -7.3 3.35 -6.8 3.2 -6.45 3.15 -6.3 3.05 -5.9 2.95 -5.3 3.0 -4.75 3.1 -4.5 3.15 -4.05 Q3.4 -2.95 5.2 -3.0 L6.3 -3.2 7.0 -3.55 7.35 -3.9 7.35 -4.65 7.15 -4.95 6.2 -5.05 5.65 -5.4 5.6 -5.5 5.55 -5.85 5.5 -6.0 5.85 -5.95 7.3 -6.15 7.75 -6.15 8.1 -6.1 8.55 -6.2 9.5 -5.25 9.7 -4.65 9.85 -3.05 9.8 -2.6 9.75 -2.25 9.75 -1.85 9.7 -1.6 9.6 -1.25 9.55 -1.05 9.55 -0.45 Q9.35 -0.3 9.2 -0.3 L9.0 -0.4 8.8 -0.4 Q8.5 -0.45 8.2 -1.05 L8.1 -1.25 7.85 -1.55 7.8 -1.8 7.65 -2.0 7.6 -2.25 7.3 -2.1 7.2 -1.95 7.0 -1.9 6.95 -1.9 6.9 -1.8 6.6 -1.75 6.55 -1.7 6.4 -1.7 6.2 -1.55 5.7 -1.5 5.3 -1.5 5.2 -1.6 4.85 -1.6 4.45 -1.7 4.15 -1.75 4.05 -1.85 4.05 -1.9 3.85 -1.95 3.4 -2.2 Q2.95 -2.5 2.95 -2.55 L2.6 -2.85 2.05 -3.5 1.55 -4.45 1.45 -4.8 1.2 -5.25 1.15 -5.65 1.15 -6.4 1.3 -7.2 1.6 -7.85 2.15 -8.7 3.2 -10.0 Q4.1 -10.75 4.8 -10.9 L5.25 -11.05 5.85 -11.15 Q6.75 -11.2 7.15 -10.65 L7.3 -10.65 7.65 -10.15 7.85 -9.9 M0.1 -9.55 L-0.45 -9.75 -0.6 -9.8 -0.75 -9.35 -0.6 -9.05 -0.65 -8.3 -0.65 -8.0 Q-1.0 -7.55 -0.8 -7.3 L-0.85 -7.15 -0.8 -6.9 -0.7 -5.85 -0.6 -5.7 -0.55 -4.0 -0.45 -3.85 -0.5 -3.45 -0.5 -2.95 -0.05 -2.95 0.1 -2.85 0.45 -2.85 0.55 -2.95 Q0.75 -3.1 0.8 -2.7 L0.6 -2.35 -0.05 -2.3 -0.05 -2.1 -0.2 -2.0 -0.65 -1.8 -1.3 -1.9 -1.55 -1.85 -1.85 -1.9 -1.95 -1.7 -2.3 -1.7 -2.5 -1.95 -2.75 -2.6 -2.35 -2.75 -2.05 -2.8 -1.7 -3.0 -1.95 -3.6 -2.65 -9.65 -2.9 -9.5 -3.2 -9.9 -3.4 -10.25 -3.4 -10.35 -3.35 -10.5 -3.2 -10.55 -3.15 -10.45 -3.1 -10.45 -2.7 -10.35 -2.7 -10.6 -2.4 -10.6 -1.65 -10.5 -1.3 -10.55 -0.55 -10.55 -0.3 -10.4 Q0.35 -10.05 0.45 -9.5 L0.1 -9.55 M14.05 0.0 L14.35 0.35 14.8 0.7 15.4 1.4 15.6 1.85 15.75 2.1 15.85 2.45 15.8 2.8 15.3 2.95 14.95 2.95 14.55 2.9 14.3 3.0 14.3 3.05 13.75 3.4 13.1 4.1 12.9 4.6 13.0 4.7 14.65 5.4 15.65 6.15 Q16.3 6.65 16.5 7.4 L16.45 7.45 16.5 7.65 16.45 7.65 16.5 7.85 16.5 7.9 16.5 8.1 16.4 8.25 Q16.3 8.25 16.35 8.35 L16.15 8.55 15.9 8.8 15.65 9.0 15.5 9.0 15.3 9.2 15.15 9.25 14.7 9.6 14.5 9.6 14.4 9.7 Q14.25 9.65 14.2 9.8 L14.05 9.65 13.85 9.3 Q13.85 9.1 13.65 9.2 L13.65 9.4 13.6 9.4 13.6 9.3 13.55 9.3 13.3 9.2 13.2 9.3 13.15 9.1 12.9 9.15 12.85 8.9 12.7 8.8 12.75 8.6 12.95 8.5 Q13.1 8.25 13.25 8.25 L13.55 8.05 13.65 8.0 13.65 7.95 13.95 7.75 14.35 6.8 14.35 6.75 14.05 6.75 13.3 6.55 13.05 6.5 12.1 5.95 Q11.65 5.6 11.3 4.7 L11.15 4.2 11.05 3.6 11.05 2.55 11.2 2.35 11.3 2.05 11.95 1.25 12.45 0.9 12.9 0.6 13.45 0.25 13.75 0.05 13.95 0.0 14.05 0.0 M-4.8 -19.05 Q-4.5 -19.15 -4.5 -18.85 L-4.5 -17.45 Q-4.55 -17.2 -4.3 -17.2 -4.05 -17.35 -4.05 -17.65 L-4.0 -19.3 -3.65 -19.4 Q-3.35 -19.5 -3.3 -19.15 L-3.35 -17.75 Q-3.45 -16.75 -4.25 -16.6 -5.2 -16.4 -5.2 -17.3 L-5.15 -18.3 -5.15 -18.95 -4.8 -19.05 M-2.8 -19.65 L-2.2 -19.8 Q-1.4 -19.9 -1.35 -19.2 -1.45 -18.65 -1.8 -18.45 L-1.4 -18.0 Q-1.2 -17.75 -1.4 -17.5 L-1.9 -17.55 -2.45 -18.15 -2.5 -17.9 -2.5 -17.5 -2.8 -17.1 -3.2 -17.0 -3.1 -19.55 -2.8 -19.65 M-5.75 -17.45 Q-5.35 -17.4 -5.3 -16.95 -5.4 -16.2 -6.2 -15.95 L-7.2 -15.6 -7.1 -18.3 -6.75 -18.4 -6.3 -18.6 Q-5.4 -18.8 -5.35 -18.1 -5.4 -17.75 -5.75 -17.45 M-6.35 -17.5 L-6.05 -17.9 Q-6.1 -18.2 -6.45 -18.05 L-6.45 -17.5 -6.35 -17.5 M-6.35 -16.45 L-6.05 -16.85 Q-6.05 -17.2 -6.45 -17.05 L-6.5 -16.4 -6.35 -16.45 M-2.1 -16.95 L-2.1 -16.25 -2.15 -14.8 -2.2 -13.8 Q-2.2 -13.2 -2.8 -13.05 L-3.4 -12.85 -3.4 -13.5 -3.35 -14.9 -3.3 -15.9 Q-3.25 -16.7 -2.7 -16.8 L-2.1 -16.95 M-5.55 -13.75 L-5.6 -12.55 -5.7 -12.2 -5.95 -12.0 -6.75 -11.7 -6.6 -15.4 -5.45 -15.85 -5.5 -14.55 -4.5 -16.15 -3.8 -16.3 Q-3.4 -16.05 -3.65 -15.6 L-4.1 -14.9 -4.5 -14.35 -3.7 -13.5 Q-3.45 -13.15 -3.8 -12.7 L-4.7 -12.75 -5.55 -13.75 M-12.4 -11.05 L-12.2 -11.1 -10.05 -11.2 -9.2 -11.2 -7.1 -10.6 Q-6.0 -10.05 -5.9 -9.45 L-5.9 -9.2 -6.0 -8.8 -6.05 -8.5 -6.2 -8.1 -6.4 -7.7 -6.55 -7.4 -6.75 -7.2 -6.85 -7.0 -7.05 -6.9 -7.4 -6.7 Q-7.5 -6.55 -7.85 -6.5 L-6.9 -6.4 -6.2 -6.2 -5.25 -5.7 -4.5 -5.15 -4.0 -4.5 -3.65 -4.05 -3.5 -3.25 -3.5 -2.55 -3.85 -1.75 -4.0 -1.55 -4.4 -1.0 -5.15 -0.4 -5.4 -0.25 -5.8 -0.05 -6.0 -0.1 -6.5 0.45 -7.0 0.7 -7.2 0.9 -7.6 1.15 -7.8 1.35 -7.9 1.35 -8.2 1.65 -8.25 1.5 -8.5 1.35 -8.95 1.3 -9.1 0.85 -9.1 0.6 -9.45 0.3 -9.9 0.0 -9.95 -0.55 -9.95 -1.0 -10.0 -1.8 -10.7 -6.0 -10.75 -6.85 -11.1 -7.95 -11.2 -8.5 -11.45 -9.75 -12.0 -9.9 -12.7 -9.95 -13.05 -10.05 -13.4 -10.05 -13.55 -10.25 -13.8 -10.65 -13.65 -10.85 -13.35 -10.95 -12.8 -11.05 -12.4 -11.05 M-6.95 -9.45 L-6.9 -9.7 -7.05 -9.8 -7.7 -9.9 -8.1 -9.85 -8.35 -9.7 -8.65 -9.55 -8.95 -9.65 -9.25 -9.55 -9.55 -9.25 -9.2 -7.9 -9.1 -7.3 -9.0 -7.05 -7.5 -8.25 Q-6.95 -8.95 -6.95 -9.45 M-5.6 -4.7 L-5.85 -4.95 -6.65 -5.25 -7.25 -5.35 -7.35 -5.35 -8.1 -5.55 -8.75 -5.35 -8.3 -2.25 -8.1 -1.45 -7.5 -1.65 -7.3 -1.95 -6.95 -2.15 -6.4 -2.75 -5.75 -3.6 Q-5.45 -4.15 -5.6 -4.7 M-2.35 1.75 L-1.95 2.05 -1.85 2.35 -1.9 2.4 -1.9 2.45 -2.0 2.55 -2.0 2.7 -2.3 2.95 -2.35 3.0 -2.45 3.0 -2.55 3.1 -2.65 3.25 -2.85 3.55 -3.05 3.9 -3.4 4.25 -3.65 4.4 -3.9 4.5 -3.95 4.5 -4.25 4.7 -3.65 5.4 -2.6 6.1 -2.4 6.25 -2.1 6.6 -1.5 7.0 -1.1 7.2 -0.6 7.5 -0.4 7.65 -0.2 7.75 0.05 7.95 0.1 8.3 0.2 8.4 0.0 8.7 -0.2 8.65 -0.45 8.8 -0.7 8.75 -0.8 8.7 -1.35 8.5 -2.25 7.8 -2.5 7.65 -3.55 6.65 -3.95 6.15 -4.25 5.9 -4.4 5.9 -4.35 6.35 -4.5 6.9 -4.55 7.35 -4.55 7.5 -4.55 7.7 -4.4 8.1 -4.4 8.3 -4.4 8.45 -4.3 8.65 -4.35 8.7 -4.35 9.0 -4.4 9.05 Q-4.65 9.0 -4.7 9.25 L-5.0 9.2 -5.15 9.2 -5.45 9.1 -5.75 8.85 -6.2 8.35 -6.3 7.75 -6.25 7.55 -6.2 7.25 -6.45 3.1 -6.5 2.85 -6.45 2.25 -6.5 1.5 -6.65 1.05 -6.45 1.05 -6.05 1.25 -5.9 1.35 -5.6 1.5 -5.1 1.9 -5.0 2.0 -4.9 2.2 -4.8 2.3 -4.8 2.6 -4.6 3.05 -4.55 3.15 -4.6 3.35 -4.55 3.65 -4.45 4.05 -4.2 3.75 -3.85 3.35 -3.35 2.8 -3.1 2.4 -2.6 1.8 -2.45 1.75 -2.35 1.75 M10.45 4.45 L10.5 4.6 10.5 4.7 10.55 5.2 10.5 5.3 10.5 5.65 10.3 6.45 9.75 7.05 9.7 7.2 9.3 7.5 9.0 7.5 8.85 7.7 8.75 7.7 8.25 8.05 8.05 8.15 7.9 8.15 7.75 8.3 Q7.65 8.35 7.3 8.55 L7.2 8.65 7.05 8.95 6.7 9.05 6.55 9.0 6.3 9.0 6.25 9.0 5.8 9.05 5.75 9.15 5.85 9.35 5.75 9.35 5.7 9.55 5.25 9.45 5.2 9.4 4.85 9.15 4.7 9.05 Q4.25 8.8 4.25 7.65 L4.15 4.1 4.2 3.95 4.1 2.95 4.0 1.85 3.95 1.3 3.95 1.05 3.95 1.0 4.1 1.05 3.95 0.75 4.2 0.75 4.5 0.85 4.9 0.7 4.95 0.7 6.0 0.8 7.0 1.1 7.7 1.35 Q8.3 1.55 9.05 2.15 L10.1 3.35 10.2 3.6 10.3 3.8 10.45 4.45 M8.2 2.65 L7.75 2.3 7.2 2.15 6.25 2.15 6.0 2.15 5.7 2.25 5.75 2.55 5.8 3.05 5.85 3.35 5.8 3.45 5.8 4.35 5.8 4.4 5.8 5.05 5.85 6.05 5.8 6.3 5.85 6.6 5.85 7.65 6.55 7.35 6.85 7.15 7.35 6.75 Q8.95 5.4 8.85 4.35 L8.85 3.8 8.7 3.6 8.7 3.4 8.2 2.65 M2.7 3.05 L2.3 2.85 2.2 2.85 2.05 3.15 2.2 3.35 2.1 3.85 2.1 4.05 Q1.85 4.35 1.95 4.55 L1.95 4.65 2.0 4.8 2.05 5.55 2.1 5.7 2.05 6.85 2.1 6.95 2.1 7.55 2.4 7.55 2.5 7.65 2.75 7.65 2.8 7.6 Q2.95 7.5 2.95 7.75 L2.85 8.0 2.4 8.0 2.35 8.15 2.25 8.25 1.95 8.35 1.5 8.25 1.1 8.25 1.05 8.4 0.8 8.4 0.7 8.2 0.5 7.75 0.8 7.65 1.0 7.65 1.25 7.5 1.2 7.35 1.1 7.1 0.9 4.5 0.9 3.95 0.8 3.4 0.8 3.15 0.75 2.9 0.6 3.0 0.4 2.7 0.25 2.45 0.25 2.35 0.3 2.3 0.4 2.25 0.45 2.3 0.5 2.3 0.75 2.4 0.75 2.25 0.95 2.25 1.5 2.3 2.25 2.3 2.4 2.4 Q2.85 2.65 2.9 3.05 L2.7 3.05" fill="#6666cc" fill-rule="evenodd" stroke="none"/>
      <path d="M9.05 -12.55 Q12.25 -10.65 14.15 -7.5 16.05 -4.35 16.1 -0.4 L16.0 1.05 15.5 0.5 15.25 0.2 14.85 -0.15 14.8 -0.15 14.4 -0.65 13.95 -0.7 13.45 -0.55 13.35 -0.45 13.2 -0.35 13.1 -0.3 12.55 0.05 12.5 0.1 11.6 0.7 11.35 0.85 11.35 0.9 11.1 1.2 Q10.85 1.45 10.75 1.8 L10.65 2.05 10.5 2.25 10.45 2.3 10.45 2.65 9.45 1.65 7.9 0.7 7.65 0.65 7.25 0.5 Q6.75 0.25 6.1 0.15 L4.95 0.0 4.45 0.15 4.3 0.1 2.85 0.1 3.3 0.95 3.25 1.15 3.3 1.35 3.3 1.95 3.4 2.55 2.75 1.85 2.6 1.75 2.4 1.65 2.35 1.65 1.95 1.65 1.7 1.65 1.45 1.65 1.15 1.65 1.05 1.55 0.65 1.55 0.6 1.5 0.5 1.5 0.4 1.55 -0.15 1.75 -0.4 2.2 -0.4 2.6 -0.4 2.65 -0.35 2.7 -0.3 2.85 -0.05 3.2 0.15 3.45 0.15 3.5 0.25 3.95 0.25 4.85 0.25 5.1 0.25 5.3 0.3 5.65 0.35 5.95 0.4 6.35 0.4 6.75 0.45 7.1 0.2 7.15 0.15 7.15 0.0 7.1 -0.25 6.9 -0.3 6.9 -0.65 6.7 -0.8 6.6 -0.95 6.5 -1.1 6.45 -1.4 6.2 -1.65 6.05 -2.25 5.55 -3.2 4.9 -2.7 4.65 -2.4 4.2 -2.3 3.9 -2.15 3.75 -2.1 3.75 -2.0 3.6 -1.85 3.45 -1.7 3.3 -1.65 3.25 -1.6 3.2 -1.4 3.1 -1.4 3.0 -1.25 2.75 -1.25 2.7 -1.2 2.55 -1.2 2.5 -1.15 2.3 -1.15 2.25 -1.35 1.7 -1.65 1.4 -1.7 1.4 -2.05 1.15 -2.1 1.1 -2.55 1.05 -2.6 1.05 -3.0 1.3 -3.05 1.35 -3.25 1.65 -3.5 1.85 -3.55 1.9 -3.6 1.95 -3.9 2.45 -4.1 2.7 -4.1 2.5 -4.1 2.55 Q-4.1 2.15 -4.25 1.85 L-4.3 1.8 -4.4 1.65 -4.6 1.4 -4.65 1.4 -4.95 1.15 -5.2 0.95 -5.5 0.8 -5.65 0.65 -5.7 0.65 -5.65 0.6 -5.5 0.55 -5.1 0.3 -4.8 0.15 -4.7 0.05 -4.0 -0.45 -3.45 -1.15 -3.45 -1.2 -3.3 -1.4 -3.25 -1.4 -3.25 -1.45 -3.15 -1.75 -2.65 -1.05 -1.45 -1.0 -1.4 -1.25 -1.25 -1.3 -1.2 -1.3 -1.0 -1.25 -1.05 -1.3 -0.55 -0.95 -0.45 -0.9 -0.2 -1.35 0.15 -1.45 0.55 -1.7 0.75 -1.65 0.85 -1.6 0.95 -1.6 1.45 -2.6 1.45 -2.8 Q1.45 -3.35 0.85 -3.6 L0.35 -3.5 0.2 -3.6 0.15 -3.45 0.2 -3.9 0.25 -3.95 0.2 -4.0 0.1 -4.15 0.1 -4.75 0.15 -5.3 0.1 -5.85 0.1 -5.95 -0.05 -6.1 -0.05 -6.2 -0.05 -6.3 -0.15 -7.05 -0.15 -7.15 -0.15 -7.35 -0.15 -7.4 -0.15 -7.5 -0.15 -7.6 0.0 -7.9 0.0 -8.25 0.05 -8.3 0.0 -8.65 0.0 -8.9 1.35 -8.8 1.05 -9.7 Q0.95 -10.45 0.1 -10.95 L-0.15 -11.05 -0.35 -11.2 -0.4 -11.25 -0.45 -11.25 -0.9 -11.2 -1.3 -11.2 -1.7 -11.1 -2.15 -11.2 -2.3 -11.25 -2.35 -11.25 -2.9 -11.2 -0.2 -12.0 6.05 -12.8 Q6.55 -12.85 6.7 -13.4 L6.7 -13.65 9.05 -12.55 M8.1 -10.6 L7.6 -11.3 7.5 -11.3 7.4 -11.3 Q6.6 -11.9 5.8 -11.8 L4.6 -11.5 Q3.65 -11.25 2.8 -10.5 L1.6 -9.05 1.0 -8.1 0.7 -7.35 0.45 -6.1 0.45 -5.85 0.45 -5.6 0.45 -5.55 0.6 -5.05 0.6 -5.0 0.8 -4.6 0.9 -4.2 1.15 -3.75 1.45 -3.2 1.45 -3.15 1.9 -2.6 2.1 -2.4 2.15 -2.35 2.4 -2.1 3.0 -1.65 3.55 -1.3 3.6 -1.3 3.7 -1.3 3.95 -1.15 4.3 -1.05 4.7 -0.9 5.0 -0.9 5.05 -0.85 5.35 -0.85 5.55 -0.85 5.65 -0.85 6.3 -0.9 6.4 -0.9 6.55 -1.0 6.6 -1.05 6.85 -1.05 6.9 -1.05 6.9 -1.1 6.95 -1.15 7.3 -1.25 7.55 -0.85 7.6 -0.85 7.6 -0.75 8.1 -0.05 Q8.4 0.25 8.85 0.25 L9.05 0.4 9.35 0.35 9.95 0.05 10.1 -0.05 10.15 -0.1 10.2 -0.3 10.2 -0.75 10.2 -1.0 10.25 -1.2 10.3 -1.35 10.4 -1.75 10.4 -1.8 10.4 -2.0 10.4 -2.2 10.45 -2.55 10.45 -3.05 10.45 -3.25 10.35 -4.75 10.35 -4.8 10.25 -5.0 10.15 -5.4 Q10.0 -5.95 8.95 -6.7 L8.75 -6.85 8.7 -6.85 8.65 -6.85 8.1 -6.75 7.65 -6.75 7.45 -6.75 7.25 -6.8 7.2 -6.8 5.85 -6.6 4.65 -6.9 4.7 -6.7 4.9 -5.7 4.95 -5.45 4.95 -5.3 5.0 -5.25 5.15 -5.0 5.5 -4.7 5.95 -4.45 6.15 -4.35 6.2 -4.35 6.75 -4.3 6.7 -4.3 6.7 -4.25 6.7 -4.15 6.55 -4.0 5.1 -3.6 Q3.95 -3.55 3.8 -4.15 L3.8 -4.2 3.7 -4.75 3.7 -4.8 3.6 -4.85 3.6 -5.25 3.8 -6.15 3.8 -6.2 3.85 -6.3 3.9 -6.5 4.0 -6.7 4.05 -6.8 4.35 -7.15 4.35 -7.2 4.4 -7.25 4.45 -7.25 4.7 -7.6 4.8 -7.6 4.85 -7.65 5.55 -8.1 5.75 -8.15 6.05 -8.25 6.35 -8.4 6.4 -8.4 6.45 -8.4 6.5 -8.4 6.7 -8.5 6.9 -8.6 7.1 -8.6 7.4 -8.7 7.95 -8.65 8.05 -8.65 8.85 -9.15 8.45 -10.15 8.35 -10.25 8.1 -10.6 M-10.9 -3.6 L-10.8 -2.7 -10.65 -1.85 -10.65 -1.75 -10.6 -1.0 -10.6 -0.85 -10.65 -0.85 -10.55 -0.4 -10.5 -0.25 -10.6 -0.05 -10.5 0.2 Q-10.35 0.7 -9.8 0.9 L-9.75 0.95 -9.55 1.5 -9.5 1.6 -9.05 1.95 -8.75 2.0 -8.6 2.5 -7.95 2.25 -7.5 1.95 -7.45 1.9 -7.3 1.8 -7.2 1.65 -7.1 1.6 -7.05 2.25 -7.1 2.85 -7.1 2.9 -7.05 3.15 -7.05 4.55 -7.0 5.2 -6.9 6.3 -6.85 6.95 -6.85 7.2 -6.85 7.35 -6.9 7.65 -6.9 7.75 -6.9 7.8 -6.8 8.15 -6.8 8.4 -6.35 9.15 -6.15 9.45 -5.95 9.6 -5.75 9.65 -4.6 10.05 -4.55 9.9 -4.5 9.85 -4.1 9.75 -4.0 9.75 -4.0 9.6 -4.05 9.6 -3.65 9.25 -3.65 9.2 -3.55 8.9 -3.45 8.85 -3.65 8.3 -3.6 8.2 -3.9 7.7 -3.85 7.2 -3.1 7.85 -3.1 8.05 -2.95 8.1 -2.75 8.25 -2.6 8.3 -2.25 8.6 -1.75 8.95 Q-1.6 9.2 -1.0 9.3 L-0.95 9.35 -0.9 9.35 -0.25 9.45 -0.2 9.45 0.0 9.3 0.05 9.3 0.6 9.05 1.5 9.1 1.5 9.0 1.6 8.9 2.1 9.3 2.35 8.85 2.55 8.8 2.55 8.75 2.6 8.75 2.8 8.65 3.05 8.75 3.35 8.35 3.6 7.95 Q3.6 9.0 4.3 9.55 L4.35 9.6 4.45 9.65 4.75 9.85 4.85 10.05 4.9 10.05 6.25 10.3 6.3 9.9 6.85 9.75 6.8 9.65 7.2 9.6 7.45 9.5 7.5 9.45 7.55 9.45 7.65 9.15 7.7 9.1 8.2 8.75 8.25 8.75 8.9 8.4 9.0 8.3 9.15 8.25 9.2 8.25 9.35 8.1 9.5 8.1 9.55 8.1 10.3 7.55 10.3 7.5 10.3 7.4 10.8 6.85 10.85 6.8 10.9 6.75 11.15 5.8 11.65 6.4 Q12.1 6.8 12.7 7.05 L13.2 7.2 13.15 7.15 13.6 7.1 13.5 7.3 13.4 7.35 13.05 7.55 12.95 7.7 12.55 7.95 12.15 8.2 12.0 9.05 12.25 9.25 Q10.85 10.7 9.05 11.75 5.85 13.6 1.9 13.65 -2.1 13.6 -5.25 11.75 -8.45 9.85 -10.35 6.7 -12.25 3.55 -12.3 -0.4 -12.25 -3.25 -11.25 -5.7 L-11.25 -5.55 -11.1 -4.6 -10.9 -3.6 M-3.8 -9.7 L-3.6 -9.2 -3.2 -8.9 -3.2 -8.8 -3.15 -8.7 -3.0 -8.05 -2.95 -6.7 -2.9 -6.15 -2.85 -5.65 -2.75 -5.2 -2.75 -4.95 -2.65 -4.5 -2.6 -4.05 -2.6 -3.95 -2.55 -3.45 -2.55 -3.4 -2.65 -3.3 -2.85 -3.25 -3.05 -4.25 -3.4 -4.8 -3.45 -4.9 -4.2 -5.7 -4.8 -6.2 -4.9 -6.25 -5.85 -6.8 -5.9 -6.8 -6.2 -6.85 -6.05 -7.0 -6.05 -7.05 -6.0 -7.05 -5.85 -7.3 Q-5.6 -7.55 -5.5 -8.0 L-5.5 -8.05 -5.5 -8.15 -5.45 -8.2 -5.35 -8.65 -5.2 -9.15 -5.25 -9.2 -5.25 -9.5 -5.5 -10.15 -3.9 -10.85 -4.05 -10.5 -4.0 -10.05 -3.85 -9.75 -3.8 -9.7 M-7.7 -9.4 L-7.45 -9.35 Q-7.55 -8.8 -8.65 -7.9 L-8.65 -8.05 -8.75 -8.45 -8.95 -9.1 -8.6 -9.0 -8.05 -9.25 -7.85 -9.35 -7.7 -9.4 M-6.95 -4.8 L-6.65 -4.75 -6.15 -4.55 -6.15 -4.5 -6.05 -4.45 -6.05 -4.4 Q-6.1 -4.0 -6.3 -3.65 L-6.75 -3.15 -7.1 -2.75 -7.25 -2.55 -7.45 -2.45 -7.65 -2.4 -7.75 -2.2 -7.8 -2.4 -7.85 -3.35 -8.0 -4.3 -8.0 -4.6 -8.1 -5.0 -7.4 -4.85 -7.25 -4.85 -6.95 -4.8 M14.75 3.55 L15.5 3.55 15.05 4.85 15.0 4.85 14.15 4.45 13.9 4.35 13.8 4.3 14.15 3.9 14.2 3.9 14.75 3.55 M7.55 2.9 L7.6 2.95 7.85 3.15 8.2 3.65 8.2 3.75 8.2 3.85 8.3 3.95 8.3 4.05 8.3 4.2 8.3 4.45 8.3 4.5 Q8.35 5.2 7.15 6.2 L6.7 6.6 6.5 6.7 6.3 6.8 6.4 6.3 6.35 6.25 6.35 6.2 6.4 5.95 6.4 5.85 6.35 5.6 6.35 5.35 6.3 4.95 6.35 4.95 6.3 4.55 6.35 4.5 6.35 4.2 6.35 3.85 6.35 3.7 6.35 3.65 6.4 3.6 6.3 3.2 6.3 2.85 6.4 2.85 6.7 2.85 7.0 2.85 7.2 2.85 7.35 2.85 7.5 2.9 7.55 2.9 M2.75 3.9 L2.8 3.7 3.55 3.75 3.55 3.9 3.5 4.05 3.5 4.25 3.5 5.85 3.5 6.05 3.6 7.55 Q3.5 7.1 3.1 6.95 L2.8 6.9 2.8 6.85 2.7 6.7 2.7 6.45 2.7 6.3 2.75 5.95 2.7 5.55 2.7 5.45 2.65 5.35 2.65 5.0 2.6 4.7 2.6 4.65 2.65 4.55 2.65 4.5 2.6 4.45 2.75 4.2 2.7 4.05 2.75 4.0 2.75 3.9" fill="#ccccff" fill-rule="evenodd" stroke="none"/>
      <path d="M-9.3 -14.85 L-10.55 -17.8 Q-10.8 -18.4 -10.15 -18.75 -6.3 -20.4 -2.3 -21.15 L6.1 -22.0 Q6.65 -21.95 6.8 -21.55 7.3 -21.4 7.35 -20.85 L6.7 -13.8 9.15 -12.7 Q10.4 -11.95 11.5 -11.05 13.5 -9.45 14.85 -7.15 16.75 -3.95 16.8 0.05 16.75 2.9 15.75 5.4 L16.05 5.55 Q16.7 6.05 17.0 6.8 L17.15 7.25 17.35 7.95 17.4 8.1 17.25 8.15 17.15 8.2 17.15 8.25 17.0 8.55 17.0 8.6 16.65 8.95 16.6 9.05 16.6 9.15 15.85 9.65 15.8 9.65 15.6 9.75 15.45 9.8 14.85 10.3 14.8 10.35 14.65 10.35 14.5 10.6 14.4 10.6 14.3 10.65 14.2 10.55 13.65 10.15 13.6 10.1 12.9 9.8 Q11.5 11.3 9.65 12.35 6.35 14.25 2.35 14.3 -1.75 14.25 -5.0 12.35 -7.5 10.9 -9.2 8.65 L-10.5 6.8 Q-12.45 3.6 -12.5 -0.4 -12.45 -3.45 -11.3 -6.0 L-11.4 -6.75 -11.6 -7.3 -11.7 -7.8 -11.85 -8.4 -11.95 -8.95 -12.0 -9.25 -12.05 -9.25 -12.7 -9.3 -12.8 -9.3 -13.15 -9.4 -13.85 -9.45 -13.9 -9.55 -14.05 -9.8 -14.6 -10.8 -13.95 -11.4 -13.9 -11.45 -13.45 -11.6 -12.85 -11.7 -12.65 -11.7 -12.45 -11.7 -12.3 -11.7 -11.8 -11.8 -11.2 -11.75 -11.15 -11.75 -10.95 -11.8 -10.1 -11.85 -10.05 -11.85 -9.2 -11.85 -9.05 -11.85 -7.8 -11.55 -8.85 -13.85 -9.3 -14.85 M5.95 -21.85 L-2.35 -21.05 Q-6.25 -20.3 -10.05 -18.7 -10.65 -18.35 -10.45 -17.75 L-7.65 -11.5 -6.85 -11.2 -6.8 -11.2 -6.0 -10.7 Q-3.4 -11.9 -0.7 -12.55 L5.4 -13.3 Q5.9 -13.4 6.0 -13.9 L6.7 -21.2 Q6.65 -21.8 5.95 -21.85 M9.05 -12.55 L6.7 -13.65 6.7 -13.4 Q6.55 -12.85 6.05 -12.8 L-0.2 -12.0 -2.9 -11.2 -2.35 -11.25 -2.3 -11.25 -2.15 -11.2 -1.7 -11.1 -1.3 -11.2 -0.9 -11.2 -0.45 -11.25 -0.4 -11.25 -0.35 -11.2 -0.15 -11.05 0.1 -10.95 Q0.95 -10.45 1.05 -9.7 L1.35 -8.8 0.0 -8.9 0.0 -8.65 0.05 -8.3 0.0 -8.25 0.0 -7.9 -0.15 -7.6 -0.15 -7.5 -0.15 -7.4 -0.15 -7.35 -0.15 -7.15 -0.15 -7.05 -0.05 -6.3 -0.05 -6.2 -0.05 -6.1 0.1 -5.95 0.1 -5.85 0.15 -5.3 0.1 -4.75 0.1 -4.15 0.2 -4.0 0.25 -3.95 0.2 -3.9 0.15 -3.45 0.2 -3.6 0.35 -3.5 0.85 -3.6 Q1.45 -3.35 1.45 -2.8 L1.45 -2.6 0.95 -1.6 0.85 -1.6 0.75 -1.65 0.55 -1.7 0.15 -1.45 -0.2 -1.35 -0.45 -0.9 -0.55 -0.95 -1.05 -1.3 -1.0 -1.25 -1.2 -1.3 -1.25 -1.3 -1.4 -1.25 -1.45 -1.0 -2.65 -1.05 -3.15 -1.75 -3.25 -1.45 -3.25 -1.4 -3.3 -1.4 -3.45 -1.2 -3.45 -1.15 -4.0 -0.45 -4.7 0.05 -4.8 0.15 -5.1 0.3 -5.5 0.55 -5.65 0.6 -5.7 0.65 -5.65 0.65 -5.5 0.8 -5.2 0.95 -4.95 1.15 -4.65 1.4 -4.6 1.4 -4.4 1.65 -4.3 1.8 -4.25 1.85 Q-4.1 2.15 -4.1 2.55 L-4.1 2.5 -4.1 2.7 -3.9 2.45 -3.6 1.95 -3.55 1.9 -3.5 1.85 -3.25 1.65 -3.05 1.35 -3.0 1.3 -2.6 1.05 -2.55 1.05 -2.1 1.1 -2.05 1.15 -1.7 1.4 -1.65 1.4 -1.35 1.7 -1.15 2.25 -1.15 2.3 -1.2 2.5 -1.2 2.55 -1.25 2.7 -1.25 2.75 -1.4 3.0 -1.4 3.1 -1.6 3.2 -1.65 3.25 -1.7 3.3 -1.85 3.45 -2.0 3.6 -2.1 3.75 -2.15 3.75 -2.3 3.9 -2.4 4.2 -2.7 4.65 -3.2 4.9 -2.25 5.55 -1.65 6.05 -1.4 6.2 -1.1 6.45 -0.95 6.5 -0.8 6.6 -0.65 6.7 -0.3 6.9 -0.25 6.9 0.0 7.1 0.15 7.15 0.2 7.15 0.45 7.1 0.4 6.75 0.4 6.35 0.35 5.95 0.3 5.65 0.25 5.3 0.25 5.1 0.25 4.85 0.25 3.95 0.15 3.5 0.15 3.45 -0.05 3.2 -0.3 2.85 -0.35 2.7 -0.4 2.65 -0.4 2.6 -0.4 2.2 -0.15 1.75 0.4 1.55 0.5 1.5 0.6 1.5 0.65 1.55 1.05 1.55 1.15 1.65 1.45 1.65 1.7 1.65 1.95 1.65 2.35 1.65 2.4 1.65 2.6 1.75 2.75 1.85 3.4 2.55 3.3 1.95 3.3 1.35 3.25 1.15 3.3 0.95 2.85 0.1 4.3 0.1 4.45 0.15 4.95 0.0 6.1 0.15 Q6.75 0.25 7.25 0.5 L7.65 0.65 7.9 0.7 9.45 1.65 10.45 2.65 10.45 2.3 10.5 2.25 10.65 2.05 10.75 1.8 Q10.85 1.45 11.1 1.2 L11.35 0.9 11.35 0.85 11.6 0.7 12.5 0.1 12.55 0.05 13.1 -0.3 13.2 -0.35 13.35 -0.45 13.45 -0.55 13.95 -0.7 14.4 -0.65 14.8 -0.15 14.85 -0.15 15.25 0.2 15.5 0.5 16.0 1.05 16.1 -0.4 Q16.05 -4.35 14.15 -7.5 12.25 -10.65 9.05 -12.55 M14.05 0.0 L13.95 0.0 13.75 0.05 13.45 0.25 12.9 0.6 12.45 0.9 11.95 1.25 11.3 2.05 11.2 2.35 11.05 2.55 11.05 3.6 11.15 4.2 11.3 4.7 Q11.65 5.6 12.1 5.95 L13.05 6.5 13.3 6.55 14.05 6.75 14.35 6.75 14.35 6.8 13.95 7.75 13.65 7.95 13.65 8.0 13.55 8.05 13.25 8.25 Q13.1 8.25 12.95 8.5 L12.75 8.6 12.7 8.8 12.85 8.9 12.9 9.15 13.15 9.1 13.2 9.3 13.3 9.2 13.55 9.3 13.6 9.3 13.6 9.4 13.65 9.4 13.65 9.2 Q13.85 9.1 13.85 9.3 L14.05 9.65 14.2 9.8 Q14.25 9.65 14.4 9.7 L14.5 9.6 14.7 9.6 15.15 9.25 15.3 9.2 15.5 9.0 15.65 9.0 15.9 8.8 16.15 8.55 16.35 8.35 Q16.3 8.25 16.4 8.25 L16.5 8.1 16.5 7.9 16.5 7.85 16.45 7.65 16.5 7.65 16.45 7.45 16.5 7.4 Q16.3 6.65 15.65 6.15 L14.65 5.4 13.0 4.7 12.9 4.6 13.1 4.1 13.75 3.4 14.3 3.05 14.3 3.0 14.55 2.9 14.95 2.95 15.3 2.95 15.8 2.8 15.85 2.45 15.75 2.1 15.6 1.85 15.4 1.4 14.8 0.7 14.35 0.35 14.05 0.0 M0.1 -9.55 L0.45 -9.5 Q0.35 -10.05 -0.3 -10.4 L-0.55 -10.55 -1.3 -10.55 -1.65 -10.5 -2.4 -10.6 -2.7 -10.6 -2.7 -10.35 -3.1 -10.45 -3.15 -10.45 -3.2 -10.55 -3.35 -10.5 -3.4 -10.35 -3.4 -10.25 -3.2 -9.9 -2.9 -9.5 -2.65 -9.65 -1.95 -3.6 -1.7 -3.0 -2.05 -2.8 -2.35 -2.75 -2.75 -2.6 -2.5 -1.95 -2.3 -1.7 -1.95 -1.7 -1.85 -1.9 -1.55 -1.85 -1.3 -1.9 -0.65 -1.8 -0.2 -2.0 -0.05 -2.1 -0.05 -2.3 0.6 -2.35 0.8 -2.7 Q0.75 -3.1 0.55 -2.95 L0.45 -2.85 0.1 -2.85 -0.05 -2.95 -0.5 -2.95 -0.5 -3.45 -0.45 -3.85 -0.55 -4.0 -0.6 -5.7 -0.7 -5.85 -0.8 -6.9 -0.85 -7.15 -0.8 -7.3 Q-1.0 -7.55 -0.65 -8.0 L-0.65 -8.3 -0.6 -9.05 -0.75 -9.35 -0.6 -9.8 -0.45 -9.75 0.1 -9.55 M-12.4 -11.05 L-12.8 -11.05 -13.35 -10.95 -13.65 -10.85 -13.8 -10.65 -13.55 -10.25 -13.4 -10.05 -13.05 -10.05 -12.7 -9.95 -12.0 -9.9 -11.45 -9.75 -11.2 -8.5 -11.1 -7.95 -10.75 -6.85 -10.7 -6.0 -10.0 -1.8 -9.95 -1.0 -9.95 -0.55 -9.9 0.0 -9.45 0.3 -9.1 0.6 -9.1 0.85 -8.95 1.3 -8.5 1.35 -8.25 1.5 -8.2 1.65 -7.9 1.35 -7.8 1.35 -7.6 1.15 -7.2 0.9 -7.0 0.7 -6.5 0.45 -6.0 -0.1 -5.8 -0.05 -5.4 -0.25 -5.15 -0.4 -4.4 -1.0 -4.0 -1.55 -3.85 -1.75 -3.5 -2.55 -3.5 -3.25 -3.65 -4.05 -4.0 -4.5 -4.5 -5.15 -5.25 -5.7 -6.2 -6.2 -6.9 -6.4 -7.85 -6.5 Q-7.5 -6.55 -7.4 -6.7 L-7.05 -6.9 -6.85 -7.0 -6.75 -7.2 -6.55 -7.4 -6.4 -7.7 -6.2 -8.1 -6.05 -8.5 -6.0 -8.8 -5.9 -9.2 -5.9 -9.45 Q-6.0 -10.05 -7.1 -10.6 L-9.2 -11.2 -10.05 -11.2 -12.2 -11.1 -12.4 -11.05 M-3.8 -9.7 L-3.85 -9.75 -4.0 -10.05 -4.05 -10.5 -3.9 -10.85 -5.5 -10.15 -5.25 -9.5 -5.25 -9.2 -5.2 -9.15 -5.35 -8.65 -5.45 -8.2 -5.5 -8.15 -5.5 -8.05 -5.5 -8.0 Q-5.6 -7.55 -5.85 -7.3 L-6.0 -7.05 -6.05 -7.05 -6.05 -7.0 -6.2 -6.85 -5.9 -6.8 -5.85 -6.8 -4.9 -6.25 -4.8 -6.2 -4.2 -5.7 -3.45 -4.9 -3.4 -4.8 -3.05 -4.25 -2.85 -3.25 -2.65 -3.3 -2.55 -3.4 -2.55 -3.45 -2.6 -3.95 -2.6 -4.05 -2.65 -4.5 -2.75 -4.95 -2.75 -5.2 -2.85 -5.65 -2.9 -6.15 -2.95 -6.7 -3.0 -8.05 -3.15 -8.7 -3.2 -8.8 -3.2 -8.9 -3.6 -9.2 -3.8 -9.7 M-10.9 -3.6 L-11.1 -4.6 -11.25 -5.55 -11.25 -5.7 Q-12.25 -3.25 -12.3 -0.4 -12.25 3.55 -10.35 6.7 -8.45 9.85 -5.25 11.75 -2.1 13.6 1.9 13.65 5.85 13.6 9.05 11.75 10.85 10.7 12.25 9.25 L12.0 9.05 12.15 8.2 12.55 7.95 12.95 7.7 13.05 7.55 13.4 7.35 13.5 7.3 13.6 7.1 13.15 7.15 13.2 7.2 12.7 7.05 Q12.1 6.8 11.65 6.4 L11.15 5.8 10.9 6.75 10.85 6.8 10.8 6.85 10.3 7.4 10.3 7.5 10.3 7.55 9.55 8.1 9.5 8.1 9.35 8.1 9.2 8.25 9.15 8.25 9.0 8.3 8.9 8.4 8.25 8.75 8.2 8.75 7.7 9.1 7.65 9.15 7.55 9.45 7.5 9.45 7.45 9.5 7.2 9.6 6.8 9.65 6.85 9.75 6.3 9.9 6.25 10.3 4.9 10.05 4.85 10.05 4.75 9.85 4.45 9.65 4.35 9.6 4.3 9.55 Q3.6 9.0 3.6 7.95 L3.35 8.35 3.05 8.75 2.8 8.65 2.6 8.75 2.55 8.75 2.55 8.8 2.35 8.85 2.1 9.3 1.6 8.9 1.5 9.0 1.5 9.1 0.6 9.05 0.05 9.3 0.0 9.3 -0.2 9.45 -0.25 9.45 -0.9 9.35 -0.95 9.35 -1.0 9.3 Q-1.6 9.2 -1.75 8.95 L-2.25 8.6 -2.6 8.3 -2.75 8.25 -2.95 8.1 -3.1 8.05 -3.1 7.85 -3.85 7.2 -3.9 7.7 -3.6 8.2 -3.65 8.3 -3.45 8.85 -3.55 8.9 -3.65 9.2 -3.65 9.25 -4.05 9.6 -4.0 9.6 -4.0 9.75 -4.1 9.75 -4.5 9.85 -4.55 9.9 -4.6 10.05 -5.75 9.65 -5.95 9.6 -6.15 9.45 -6.35 9.15 -6.8 8.4 -6.8 8.15 -6.9 7.8 -6.9 7.75 -6.9 7.65 -6.85 7.35 -6.85 7.2 -6.85 6.95 -6.9 6.3 -7.0 5.2 -7.05 4.55 -7.05 3.15 -7.1 2.9 -7.1 2.85 -7.05 2.25 -7.1 1.6 -7.2 1.65 -7.3 1.8 -7.45 1.9 -7.5 1.95 -7.95 2.25 -8.6 2.5 -8.75 2.0 -9.05 1.95 -9.5 1.6 -9.55 1.5 -9.75 0.95 -9.8 0.9 Q-10.35 0.7 -10.5 0.2 L-10.6 -0.05 -10.5 -0.25 -10.55 -0.4 -10.65 -0.85 -10.6 -0.85 -10.6 -1.0 -10.65 -1.75 -10.65 -1.85 -10.8 -2.7 -10.9 -3.6 M-2.35 1.75 L-2.45 1.75 -2.6 1.8 -3.1 2.4 -3.35 2.8 -3.85 3.35 -4.2 3.75 -4.45 4.05 -4.55 3.65 -4.6 3.35 -4.55 3.15 -4.6 3.05 -4.8 2.6 -4.8 2.3 -4.9 2.2 -5.0 2.0 -5.1 1.9 -5.6 1.5 -5.9 1.35 -6.05 1.25 -6.45 1.05 -6.65 1.05 -6.5 1.5 -6.45 2.25 -6.5 2.85 -6.45 3.1 -6.2 7.25 -6.25 7.55 -6.3 7.75 -6.2 8.35 -5.75 8.85 -5.45 9.1 -5.15 9.2 -5.0 9.2 -4.7 9.25 Q-4.65 9.0 -4.4 9.05 L-4.35 9.0 -4.35 8.7 -4.3 8.65 -4.4 8.45 -4.4 8.3 -4.4 8.1 -4.55 7.7 -4.55 7.5 -4.55 7.35 -4.5 6.9 -4.35 6.35 -4.4 5.9 -4.25 5.9 -3.95 6.15 -3.55 6.65 -2.5 7.65 -2.25 7.8 -1.35 8.5 -0.8 8.7 -0.7 8.75 -0.45 8.8 -0.2 8.65 0.0 8.7 0.2 8.4 0.1 8.3 0.05 7.95 -0.2 7.75 -0.4 7.65 -0.6 7.5 -1.1 7.2 -1.5 7.0 -2.1 6.6 -2.4 6.25 -2.6 6.1 -3.65 5.4 -4.25 4.7 -3.95 4.5 -3.9 4.5 -3.65 4.4 -3.4 4.25 -3.05 3.9 -2.85 3.55 -2.65 3.25 -2.55 3.1 -2.45 3.0 -2.35 3.0 -2.3 2.95 -2.0 2.7 -2.0 2.55 -1.9 2.45 -1.9 2.4 -1.85 2.35 -1.95 2.05 -2.35 1.75 M18.5 5.9 L19.0 6.4 19.45 5.9 19.55 5.9 19.55 6.9 19.35 6.9 19.35 6.3 18.95 6.7 18.55 6.3 18.55 6.9 18.45 6.9 18.45 5.9 18.5 5.9 M17.75 6.0 L17.75 5.9 18.4 5.9 18.4 6.0 18.2 6.0 18.2 6.9 17.95 6.9 17.95 6.0 17.75 6.0 M10.45 4.45 L10.3 3.8 10.2 3.6 10.1 3.35 9.05 2.15 Q8.3 1.55 7.7 1.35 L7.0 1.1 6.0 0.8 4.95 0.7 4.9 0.7 4.5 0.85 4.2 0.75 3.95 0.75 4.1 1.05 3.95 1.0 3.95 1.05 3.95 1.3 4.0 1.85 4.1 2.95 4.2 3.95 4.15 4.1 4.25 7.65 Q4.25 8.8 4.7 9.05 L4.85 9.15 5.2 9.4 5.25 9.45 5.7 9.55 5.75 9.35 5.85 9.35 5.75 9.15 5.8 9.05 6.25 9.0 6.3 9.0 6.55 9.0 6.7 9.05 7.05 8.95 7.2 8.65 7.3 8.55 Q7.65 8.35 7.75 8.3 L7.9 8.15 8.05 8.15 8.25 8.05 8.75 7.7 8.85 7.7 9.0 7.5 9.3 7.5 9.7 7.2 9.75 7.05 10.3 6.45 10.5 5.65 10.5 5.3 10.55 5.2 10.5 4.7 10.5 4.6 10.45 4.45 M14.75 3.55 L14.2 3.9 14.15 3.9 13.8 4.3 13.9 4.35 14.15 4.45 15.0 4.85 15.05 4.85 15.5 3.55 14.75 3.55 M2.7 3.05 L2.9 3.05 Q2.85 2.65 2.4 2.4 L2.25 2.3 1.5 2.3 0.95 2.25 0.75 2.25 0.75 2.4 0.5 2.3 0.45 2.3 0.4 2.25 0.3 2.3 0.25 2.35 0.25 2.45 0.4 2.7 0.6 3.0 0.75 2.9 0.8 3.15 0.8 3.4 0.9 3.95 0.9 4.5 1.1 7.1 1.2 7.35 1.25 7.5 1.0 7.65 0.8 7.65 0.5 7.75 0.7 8.2 0.8 8.4 1.05 8.4 1.1 8.25 1.5 8.25 1.95 8.35 2.25 8.25 2.35 8.15 2.4 8.0 2.85 8.0 2.95 7.75 Q2.95 7.5 2.8 7.6 L2.75 7.65 2.5 7.65 2.4 7.55 2.1 7.55 2.1 6.95 2.05 6.85 2.1 5.7 2.05 5.55 2.0 4.8 1.95 4.65 1.95 4.55 Q1.85 4.35 2.1 4.05 L2.1 3.85 2.2 3.35 2.05 3.15 2.2 2.85 2.3 2.85 2.7 3.05 M2.75 3.9 L2.75 4.0 2.7 4.05 2.75 4.2 2.6 4.45 2.65 4.5 2.65 4.55 2.6 4.65 2.6 4.7 2.65 5.0 2.65 5.35 2.7 5.45 2.7 5.55 2.75 5.95 2.7 6.3 2.7 6.45 2.7 6.7 2.8 6.85 2.8 6.9 3.1 6.95 Q3.5 7.1 3.6 7.55 L3.5 6.05 3.5 5.85 3.5 4.25 3.5 4.05 3.55 3.9 3.55 3.75 2.8 3.7 2.75 3.9" fill="#000033" fill-rule="evenodd" stroke="none"/>
    </g>
    <g id="sprite2" transform="matrix(1.0, 0.0, 0.0, 1.0, 28.0, 28.0)">
      <use ffdec:characterId="54" height="56.0" transform="matrix(1.0, 0.0, 0.0, 1.0, -28.0, -28.0)" width="55.95" xlink:href="#shape4"/>
    </g>
    <g id="shape4" transform="matrix(1.0, 0.0, 0.0, 1.0, 28.0, 28.0)">
      <path d="M16.25 -16.25 Q9.5 -23.0 -0.05 -23.0 -9.6 -23.0 -16.25 -16.3 L-16.25 -16.25 Q-23.0 -9.55 -23.0 0.0 -23.0 9.5 -16.25 16.25 -9.6 22.95 -0.05 23.0 9.45 22.95 16.25 16.25 22.95 9.45 22.95 0.0 22.95 -9.55 16.25 -16.25 M19.75 -19.8 L19.8 -19.8 Q27.95 -11.65 27.95 0.0 27.95 11.5 19.8 19.75 L19.75 19.8 Q11.5 27.95 -0.05 28.0 -11.7 27.95 -19.8 19.75 -28.0 11.5 -28.0 0.0 -28.0 -11.65 -19.8 -19.8 -11.7 -28.0 -0.05 -28.0 11.5 -28.0 19.75 -19.8" fill="url(#gradient2)" fill-rule="evenodd" stroke="none"/>
    </g>
    <linearGradient gradientTransform="matrix(0.0341, 0.0, 0.0, 0.0342, -0.05, 0.0)" gradientUnits="userSpaceOnUse" id="gradient2" spreadMethod="pad" x1="-819.2" x2="819.2">
      <stop offset="0.0" stop-color="#6666cc"/>
      <stop offset="0.25098039215686274" stop-color="#6666cc"/>
      <stop offset="0.4980392156862745" stop-color="#ccccff"/>
      <stop offset="0.7333333333333333" stop-color="#6666cc"/>
      <stop offset="1.0" stop-color="#6666cc"/>
    </linearGradient>
  </defs>
</svg>
