<?xml version="1.0" encoding="UTF-8" standalone="no"?>
<svg xmlns:ffdec="https://www.free-decompiler.com/flash" xmlns:xlink="http://www.w3.org/1999/xlink" ffdec:objectType="frame" height="79.0px" width="79.0px" xmlns="http://www.w3.org/2000/svg">
  <g transform="matrix(1.0, 0.0, 0.0, 1.0, 39.55, 39.45)">
    <use ffdec:characterId="49" height="55.65" transform="matrix(1.1601, 0.0, 0.0, 1.1601, -32.69, -32.6859)" width="55.7" xlink:href="#sprite0"/>
    <clipPath id="clipPath0" transform="matrix(1.0, 0.0, 0.0, 1.0, 0.0, 0.0)">
      <path d="M0.0 -22.0 Q9.1 -22.0 15.55 -15.55 22.0 -9.1 22.0 0.0 22.0 9.05 15.55 15.5 9.1 21.95 0.0 21.95 -9.15 21.95 -15.5 15.5 -21.95 9.05 -21.95 0.0 -21.95 -9.1 -15.5 -15.55 -9.15 -22.0 0.0 -22.0" fill="#000000" fill-rule="evenodd" stroke="none"/>
    </clipPath>
    <g clip-path="url(#clipPath0)">
      <use ffdec:characterId="51" height="49.0" transform="matrix(1.0, 0.0, 0.0, 1.0, -24.5, -24.5)" width="49.0" xlink:href="#shape2"/>
      <use ffdec:characterId="62" height="33.35" transform="matrix(1.0, 0.0, 0.0, 1.0, -17.9, -14.8)" width="35.65" xlink:href="#shape3"/>
    </g>
    <use ffdec:characterId="55" height="56.0" transform="matrix(1.0, 0.0, 0.0, 1.0, -28.05, -27.95)" width="55.95" xlink:href="#sprite1"/>
  </g>
  <defs>
    <g id="sprite0" transform="matrix(1.0, 0.0, 0.0, 1.0, 28.35, 27.7)">
      <use ffdec:characterId="48" height="66.5" transform="matrix(0.8369, 0.0, 0.0, 0.8369, -28.3297, -27.7241)" width="66.55" xlink:href="#shape0"/>
    </g>
    <g id="shape0" transform="matrix(1.0, 0.0, 0.0, 1.0, 31.7, 34.8)">
      <path d="M34.85 -1.55 Q34.85 12.2 25.1 21.95 15.35 31.7 1.55 31.7 -12.25 31.7 -21.95 21.95 -31.75 12.2 -31.7 -1.55 -31.75 -15.4 -21.95 -25.1 -12.25 -34.85 1.55 -34.8 15.35 -34.85 25.1 -25.1 34.85 -15.4 34.85 -1.55" fill="url(#gradient0)" fill-rule="evenodd" stroke="none"/>
    </g>
    <radialGradient cx="0" cy="0" gradientTransform="matrix(0.0411, 0.0, 0.0, 0.0411, 1.6, -1.55)" gradientUnits="userSpaceOnUse" id="gradient0" r="819.2" spreadMethod="pad">
      <stop offset="0.8980392156862745" stop-color="#6666cc"/>
      <stop offset="1.0" stop-color="#333366"/>
    </radialGradient>
    <g id="shape2" transform="matrix(1.0, 0.0, 0.0, 1.0, 24.5, 24.5)">
      <path d="M24.5 0.0 Q24.45 10.15 17.3 17.3 10.15 24.45 0.0 24.5 -10.2 24.45 -17.35 17.3 -24.55 10.15 -24.5 0.0 -24.55 -10.2 -17.35 -17.35 -10.2 -24.55 0.0 -24.5 10.15 -24.55 17.3 -17.35 24.45 -10.2 24.5 0.0" fill="url(#gradient1)" fill-rule="evenodd" stroke="none"/>
    </g>
    <radialGradient cx="0" cy="0" gradientTransform="matrix(0.031, 0.0, 0.0, 0.031, 0.0, 0.0)" gradientUnits="userSpaceOnUse" id="gradient1" r="819.2" spreadMethod="pad">
      <stop offset="0.0" stop-color="#ccccff"/>
      <stop offset="0.6745098039215687" stop-color="#6666cc"/>
      <stop offset="1.0" stop-color="#333366"/>
    </radialGradient>
    <g id="shape3" transform="matrix(1.0, 0.0, 0.0, 1.0, 17.85, 13.3)">
      <path d="M5.75 -8.5 Q10.8 -7.95 12.1 -3.9 13.4 0.05 11.7 3.75 10.1 6.7 7.45 9.3 L2.65 13.5 0.3 15.15 -2.25 13.45 -7.55 9.0 Q-10.4 6.2 -11.85 2.9 -13.55 -2.05 -11.55 -4.75 -9.6 -7.5 -7.55 -7.95 L-3.9 -8.1 Q-2.0 -7.8 0.05 -5.6 L2.05 -7.5 Q3.45 -8.6 5.75 -8.5 M7.65 -1.2 Q6.8 -3.75 3.65 -4.15 2.2 -4.2 1.3 -3.45 L0.05 -2.25 Q-1.25 -3.65 -2.45 -3.9 L-4.7 -3.75 Q-6.0 -3.45 -7.25 -1.75 -8.55 0.0 -7.45 3.05 -5.9 6.25 -2.95 8.45 L0.2 10.8 3.15 8.6 Q5.75 6.45 7.4 3.65 8.45 1.25 7.65 -1.2" fill="#333366" fill-opacity="0.8" fill-rule="evenodd" stroke="none"/>
      <path d="M7.65 -1.2 Q8.45 1.25 7.4 3.65 5.75 6.45 3.15 8.6 L0.2 10.8 -2.95 8.45 Q-5.9 6.25 -7.45 3.05 -8.55 0.0 -7.25 -1.75 -6.0 -3.45 -4.7 -3.75 L-2.45 -3.9 Q-1.25 -3.65 0.05 -2.25 L1.3 -3.45 Q2.2 -4.2 3.65 -4.15 6.8 -3.75 7.65 -1.2 M0.15 7.0 L1.55 5.95 Q2.85 4.85 3.65 3.45 4.2 2.3 3.8 1.0 3.35 -0.2 1.8 -0.35 0.35 -0.25 0.05 0.55 -1.25 -0.7 -2.35 -0.2 -2.95 -0.05 -3.6 0.8 -4.25 1.6 -3.7 3.2 -2.9 4.75 -1.45 5.85 L0.15 7.0" fill="#ccccff" fill-opacity="0.8" fill-rule="evenodd" stroke="none"/>
      <path d="M7.95 -13.05 Q12.65 -12.65 15.0 -9.8 17.3 -7.0 17.55 -3.15 17.75 0.65 16.2 3.95 14.0 8.05 10.35 11.65 L3.65 17.45 0.45 19.8 -3.1 17.35 Q-6.5 15.0 -10.4 11.15 -14.4 7.3 -16.4 2.75 -18.2 -1.75 -17.25 -4.95 -16.3 -8.2 -14.2 -10.05 -12.2 -11.9 -10.55 -12.3 L-5.45 -12.5 Q-2.75 -12.0 0.05 -9.0 0.85 -10.2 2.85 -11.7 4.75 -13.15 7.95 -13.05 M5.75 -8.5 Q3.45 -8.6 2.05 -7.5 L0.05 -5.6 Q-2.0 -7.8 -3.9 -8.1 L-7.55 -7.95 Q-9.6 -7.5 -11.55 -4.75 -13.55 -2.05 -11.85 2.9 -10.4 6.2 -7.55 9.0 L-2.25 13.45 0.3 15.15 2.65 13.5 7.45 9.3 Q10.1 6.7 11.7 3.75 13.4 0.05 12.1 -3.9 10.8 -7.95 5.75 -8.5 M0.15 7.0 L-1.45 5.85 Q-2.9 4.75 -3.7 3.2 -4.25 1.6 -3.6 0.8 -2.95 -0.05 -2.35 -0.2 -1.25 -0.7 0.05 0.55 0.35 -0.25 1.8 -0.35 3.35 -0.2 3.8 1.0 4.2 2.3 3.65 3.45 2.85 4.85 1.55 5.95 L0.15 7.0" fill="#6666cc" fill-opacity="0.8" fill-rule="evenodd" stroke="none"/>
      <path d="M7.95 -13.05 Q12.65 -12.65 15.0 -9.8 17.3 -7.0 17.55 -3.15 17.75 0.65 16.2 3.95 14.0 8.05 10.35 11.65 L3.65 17.45 0.45 19.8 -3.1 17.35 Q-6.5 15.0 -10.4 11.15 -14.4 7.3 -16.4 2.75 -18.2 -1.75 -17.25 -4.95 -16.3 -8.2 -14.2 -10.05 -12.2 -11.9 -10.55 -12.3 L-5.45 -12.5 Q-2.75 -12.0 0.05 -9.0 0.85 -10.2 2.85 -11.7 4.75 -13.15 7.95 -13.05 Z" fill="none" stroke="#000000" stroke-linecap="round" stroke-linejoin="round" stroke-opacity="0.8" stroke-width="0.5"/>
    </g>
    <g id="sprite1" transform="matrix(1.0, 0.0, 0.0, 1.0, 28.0, 28.0)">
      <use ffdec:characterId="54" height="56.0" transform="matrix(1.0, 0.0, 0.0, 1.0, -28.0, -28.0)" width="55.95" xlink:href="#shape4"/>
    </g>
    <g id="shape4" transform="matrix(1.0, 0.0, 0.0, 1.0, 28.0, 28.0)">
      <path d="M16.25 -16.25 Q9.5 -23.0 -0.05 -23.0 -9.6 -23.0 -16.25 -16.3 L-16.25 -16.25 Q-23.0 -9.55 -23.0 0.0 -23.0 9.5 -16.25 16.25 -9.6 22.95 -0.05 23.0 9.45 22.95 16.25 16.25 22.95 9.45 22.95 0.0 22.95 -9.55 16.25 -16.25 M19.75 -19.8 L19.8 -19.8 Q27.95 -11.65 27.95 0.0 27.95 11.5 19.8 19.75 L19.75 19.8 Q11.5 27.95 -0.05 28.0 -11.7 27.95 -19.8 19.75 -28.0 11.5 -28.0 0.0 -28.0 -11.65 -19.8 -19.8 -11.7 -28.0 -0.05 -28.0 11.5 -28.0 19.75 -19.8" fill="url(#gradient2)" fill-rule="evenodd" stroke="none"/>
    </g>
    <linearGradient gradientTransform="matrix(0.0341, 0.0, 0.0, 0.0342, -0.05, 0.0)" gradientUnits="userSpaceOnUse" id="gradient2" spreadMethod="pad" x1="-819.2" x2="819.2">
      <stop offset="0.0" stop-color="#6666cc"/>
      <stop offset="0.25098039215686274" stop-color="#6666cc"/>
      <stop offset="0.4980392156862745" stop-color="#ccccff"/>
      <stop offset="0.7333333333333333" stop-color="#6666cc"/>
      <stop offset="1.0" stop-color="#6666cc"/>
    </linearGradient>
  </defs>
</svg>
