<?xml version="1.0" encoding="UTF-8" standalone="no"?>
<svg xmlns:ffdec="https://www.free-decompiler.com/flash" xmlns:xlink="http://www.w3.org/1999/xlink" ffdec:objectType="frame" height="19.85px" width="48.35px" xmlns="http://www.w3.org/2000/svg">
  <g transform="matrix(1.0, 0.0, 0.0, 1.0, 26.35, 8.15)">
    <use ffdec:characterId="27" height="19.85" transform="matrix(1.0, 0.0, 0.0, 1.0, -26.35, -8.1499)" width="48.35" xlink:href="#text0"/>
  </g>
  <defs>
    <g id="text0" transform="matrix(1.0, 0.0, 0.0, 1.0, -13.8, -3.95)">
      <g transform="matrix(1.0, 0.0, 0.0, 1.0, 11.4, 0.0)">
        <use fill="#000033" height="19.85" transform="matrix(0.2148, 0.0, 0.0, 0.2148, 1.95, 11.95)" width="48.35" xlink:href="#font_Futura_XBlk_BT_G0"/>
        <use fill="#000033" height="19.85" transform="matrix(0.2148, 0.0, 0.0, 0.2148, 11.15, 11.95)" width="48.35" xlink:href="#font_Futura_XBlk_BT_O0"/>
        <use fill="#000033" height="19.85" transform="matrix(0.2148, 0.0, 0.0, 0.2148, 20.5, 11.95)" width="48.35" xlink:href="#font_Futura_XBlk_BT_L0"/>
        <use fill="#000033" height="19.85" transform="matrix(0.2148, 0.0, 0.0, 0.2148, 26.95, 11.95)" width="48.35" xlink:href="#font_Futura_XBlk_BT_D0"/>
        <use fill="#000033" height="19.85" transform="matrix(0.2148, 0.0, 0.0, 0.2148, 35.65, 11.95)" width="48.35" xlink:href="#font_Futura_XBlk_BT_E0"/>
        <use fill="#000033" height="19.85" transform="matrix(0.2148, 0.0, 0.0, 0.2148, 42.15, 11.95)" width="48.35" xlink:href="#font_Futura_XBlk_BT_N0"/>
      </g>
      <g transform="matrix(1.0, 0.0, 0.0, 1.0, 11.4, 0.0)">
        <use fill="#000033" height="19.85" transform="matrix(0.2148, 0.0, 0.0, 0.2148, 14.95, 23.55)" width="48.35" xlink:href="#font_Futura_XBlk_BT_C0"/>
        <use fill="#000033" height="19.85" transform="matrix(0.2148, 0.0, 0.0, 0.2148, 22.0, 23.55)" width="48.35" xlink:href="#font_Futura_XBlk_BT_U0"/>
        <use fill="#000033" height="19.85" transform="matrix(0.2148, 0.0, 0.0, 0.2148, 30.6, 23.55)" width="48.35" xlink:href="#font_Futura_XBlk_BT_P0"/>
      </g>
    </g>
    <g id="font_Futura_XBlk_BT_G0">
      <path d="M38.75 -27.5 L27.0 -23.25 Q25.1 -26.2 21.8 -26.2 15.75 -25.95 15.4 -18.1 15.6 -10.15 22.1 -9.95 26.05 -10.05 26.6 -13.0 L20.85 -13.0 20.85 -21.6 41.1 -21.6 41.2 -18.85 Q41.2 -11.4 37.4 -6.35 31.7 1.0 21.6 1.2 13.1 1.15 7.55 -4.35 2.05 -9.85 2.0 -18.1 2.1 -26.3 7.55 -31.7 13.15 -37.15 21.6 -37.2 33.0 -37.05 38.75 -27.5" fill-rule="evenodd" stroke="none"/>
    </g>
    <g id="font_Futura_XBlk_BT_O0">
      <path d="M35.45 -31.55 Q40.9 -26.05 41.0 -17.95 40.95 -9.85 35.4 -4.35 29.8 1.1 21.5 1.2 13.2 1.1 7.55 -4.4 2.1 -9.85 2.0 -17.95 2.1 -26.1 7.55 -31.55 13.2 -37.05 21.5 -37.15 29.8 -37.05 35.45 -31.55 M15.4 -17.95 Q15.45 -14.8 17.1 -13.0 18.8 -11.2 21.5 -11.15 27.2 -11.4 27.6 -17.95 27.2 -24.5 21.5 -24.8 18.8 -24.75 17.1 -22.95 15.45 -21.1 15.4 -17.95" fill-rule="evenodd" stroke="none"/>
    </g>
    <g id="font_Futura_XBlk_BT_L0">
      <path d="M29.4 -11.75 L29.4 0.2 3.4 0.2 3.4 -36.35 16.6 -36.35 16.6 -11.75 29.4 -11.75" fill-rule="evenodd" stroke="none"/>
    </g>
    <g id="font_Futura_XBlk_BT_D0">
      <path d="M35.8 -27.5 Q38.35 -23.35 38.4 -18.1 38.25 -8.85 30.8 -3.55 27.25 -1.15 22.95 -0.5 L13.15 0.1 3.4 0.1 3.4 -36.45 14.15 -36.45 Q23.55 -36.6 28.55 -34.15 33.3 -31.7 35.8 -27.5 M16.55 -25.1 L16.55 -11.1 Q25.1 -11.0 25.0 -18.1 25.0 -25.2 17.15 -25.1 L16.55 -25.1" fill-rule="evenodd" stroke="none"/>
    </g>
    <g id="font_Futura_XBlk_BT_E0">
      <path d="M27.95 -26.4 L16.4 -26.4 16.4 -22.95 26.9 -22.95 26.9 -13.6 16.4 -13.6 16.4 -9.8 28.3 -9.8 28.3 0.2 3.4 0.2 3.4 -36.4 27.95 -36.4 27.95 -26.4" fill-rule="evenodd" stroke="none"/>
    </g>
    <g id="font_Futura_XBlk_BT_N0">
      <path d="M16.2 -13.0 L16.2 0.2 3.4 0.2 3.4 -36.35 16.4 -36.35 27.6 -17.25 Q27.15 -20.65 27.2 -23.0 L27.2 -24.05 27.2 -36.35 40.0 -36.35 40.0 0.2 26.9 0.2 15.8 -18.75 Q16.25 -15.25 16.2 -13.0" fill-rule="evenodd" stroke="none"/>
    </g>
    <g id="font_Futura_XBlk_BT_C0">
      <path d="M30.2 -35.3 L30.2 -21.8 Q26.65 -25.2 22.6 -25.2 15.8 -24.9 15.4 -18.0 15.65 -11.35 22.3 -11.0 26.25 -11.05 30.45 -14.35 L30.05 -0.55 Q25.7 1.25 21.45 1.2 14.65 1.15 9.6 -2.6 2.1 -8.25 2.0 -18.0 2.15 -26.45 7.55 -31.7 12.95 -37.0 21.6 -37.15 26.0 -37.15 30.2 -35.3" fill-rule="evenodd" stroke="none"/>
    </g>
    <g id="font_Futura_XBlk_BT_U0">
      <path d="M36.85 -36.35 L36.85 -16.5 Q37.1 -10.0 34.7 -5.9 30.2 1.0 20.05 1.25 9.85 0.95 5.4 -5.9 3.0 -10.0 3.25 -16.5 L3.25 -36.35 16.45 -36.35 16.45 -16.4 Q16.4 -13.55 17.1 -11.95 17.85 -10.4 20.05 -10.35 22.2 -10.4 22.95 -11.95 23.7 -13.55 23.65 -16.4 L23.65 -36.35 36.85 -36.35" fill-rule="evenodd" stroke="none"/>
    </g>
    <g id="font_Futura_XBlk_BT_P0">
      <path d="M16.65 -26.25 L16.65 -20.25 18.7 -20.25 Q22.6 -20.35 22.6 -23.2 22.6 -26.15 18.7 -26.25 L16.65 -26.25 M19.2 -36.45 Q27.3 -36.5 31.25 -33.35 35.25 -30.15 35.2 -23.1 35.25 -16.5 31.65 -13.55 28.1 -10.6 20.75 -10.65 L16.6 -10.65 16.6 0.15 3.4 0.15 3.4 -36.45 19.2 -36.45" fill-rule="evenodd" stroke="none"/>
    </g>
  </defs>
</svg>
