<?xml version="1.0" encoding="UTF-8" standalone="no"?>
<svg xmlns:ffdec="https://www.free-decompiler.com/flash" xmlns:xlink="http://www.w3.org/1999/xlink" ffdec:objectType="frame" height="11.0px" width="11.0px" xmlns="http://www.w3.org/2000/svg">
  <g transform="matrix(1.0, 0.0, 0.0, 1.0, 4.0, 7.0)">
    <use ffdec:characterId="73" height="11.0" transform="matrix(1.0, 0.0, 0.0, 1.0, -4.0, -7.0)" width="11.0" xlink:href="#shape0"/>
  </g>
  <defs>
    <g id="shape0" transform="matrix(1.0, 0.0, 0.0, 1.0, 5.5, 5.5)">
      <path d="M3.85 -3.9 Q5.5 -2.25 5.5 0.0 5.5 2.25 3.85 3.85 2.25 5.5 0.0 5.5 L-0.8 5.45 Q-2.55 5.2 -3.9 3.85 -5.2 2.55 -5.45 0.85 L-5.5 0.0 Q-5.5 -2.25 -3.9 -3.9 -2.25 -5.5 0.0 -5.5 2.25 -5.5 3.85 -3.9" fill="url(#gradient0)" fill-rule="evenodd" stroke="none"/>
    </g>
    <radialGradient cx="0" cy="0" gradientTransform="matrix(0.0073, 0.0, 0.0, 0.0073, 0.0, 0.0)" gradientUnits="userSpaceOnUse" id="gradient0" r="819.2" spreadMethod="pad">
      <stop offset="0.0" stop-color="#66ccff"/>
      <stop offset="1.0" stop-color="#197fb3"/>
    </radialGradient>
  </defs>
</svg>
