<?xml version="1.0" encoding="UTF-8" standalone="no"?>
<svg xmlns:ffdec="https://www.free-decompiler.com/flash" xmlns:xlink="http://www.w3.org/1999/xlink" ffdec:objectType="frame" height="112.55px" width="114.45px" xmlns="http://www.w3.org/2000/svg">
  <g transform="matrix(1.0, 0.0, 0.0, 1.0, 55.3, 52.5)">
    <use ffdec:characterId="12" height="97.2" transform="matrix(1.0, 0.0, 0.0, 1.0, 0.0, 0.0)" width="103.55" xlink:href="#shape0"/>
    <clipPath id="clipPath0">
      <path d="M -40.1 -27.8 L -40.06 -27.8 L -40.06 -27.8 L -40.05 -27.8 Z M 55.1 14.55 L 55.1 14.56 L 55.15 14.6 L 55.1 14.55 Z M -11.7 -45.4 L -5.35 -33.2 L -4.88 -32.38 L -4.42 -31.61 L -3.97 -30.88 L -3.52 -30.2 L -3.07 -29.55 L -2.63 -28.96 L -2.19 -28.4 L -1.76 -27.89 L -1.34 -27.42 L -0.92 -26.99 L -0.5 -26.61 L -0.09 -26.27 L 0.31 -25.98 L 0.71 -25.72 L 1.11 -25.52 L 1.5 -25.35 L 1.71 -25.27 L 1.92 -25.2 L 2.14 -25.14 L 2.36 -25.1 L 2.58 -25.06 L 2.81 -25.03 L 3.04 -25.02 L 3.27 -25.01 L 3.63 -25.02 L 3.99 -25.06 L 4.35 -25.12 L 4.73 -25.2 L 5.11 -25.31 L 5.5 -25.44 L 5.89 -25.59 L 6.29 -25.77 L 6.7 -25.97 L 7.12 -26.2 L 7.54 -26.45 L 7.97 -26.72 L 8.4 -27.02 L 8.84 -27.34 L 9.29 -27.68 L 9.75 -28.05 L 10.48 -28.67 L 11.31 -29.43 L 12.24 -30.33 L 13.27 -31.36 L 14.41 -32.54 L 15.66 -33.85 L 17 -35.31 L 18.45 -36.9 L 18.45 -36.9 L 18.3 -36.15 L 18.17 -35.41 L 18.05 -34.69 L 17.95 -33.98 L 17.87 -33.29 L 17.81 -32.62 L 17.76 -31.96 L 17.73 -31.32 L 17.72 -30.7 L 17.73 -30.09 L 17.75 -29.5 L 17.79 -28.92 L 17.85 -28.37 L 17.92 -27.82 L 18.01 -27.3 L 18.12 -26.79 L 18.25 -26.29 L 18.4 -25.82 L 18.56 -25.36 L 18.74 -24.91 L 18.94 -24.48 L 19.15 -24.07 L 19.38 -23.68 L 19.63 -23.3 L 19.9 -22.93 L 20.18 -22.59 L 20.48 -22.26 L 20.8 -21.94 L 21.14 -21.65 L 21.49 -21.36 L 21.86 -21.1 L 22.25 -20.85 L 22.62 -20.62 L 23 -20.41 L 23.4 -20.21 L 23.82 -20.02 L 24.26 -19.85 L 24.71 -19.69 L 25.18 -19.55 L 25.66 -19.43 L 26.16 -19.32 L 26.68 -19.22 L 27.22 -19.14 L 27.77 -19.07 L 28.34 -19.02 L 28.93 -18.98 L 29.53 -18.96 L 30.15 -18.95 L 31.08 -18.97 L 32.04 -19.02 L 33.04 -19.09 L 34.08 -19.2 L 35.15 -19.34 L 36.25 -19.52 L 37.39 -19.72 L 38.57 -19.95 L 39.78 -20.22 L 41.03 -20.51 L 42.31 -20.84 L 43.63 -21.2 L 44.98 -21.59 L 46.37 -22.01 L 47.79 -22.47 L 49.25 -22.95 L 49.25 -22.95 L 48.41 -22.2 L 47.59 -21.45 L 46.8 -20.71 L 46.04 -19.97 L 45.3 -19.24 L 44.6 -18.51 L 43.91 -17.8 L 43.26 -17.08 L 42.63 -16.37 L 42.03 -15.67 L 41.46 -14.97 L 40.91 -14.28 L 40.39 -13.6 L 39.89 -12.92 L 39.43 -12.24 L 38.99 -11.57 L 38.57 -10.91 L 38.19 -10.26 L 37.83 -9.6 L 37.5 -8.96 L 37.19 -8.32 L 36.91 -7.68 L 36.66 -7.05 L 36.43 -6.43 L 36.24 -5.81 L 36.06 -5.2 L 35.92 -4.6 L 35.8 -4 L 35.71 -3.4 L 35.65 -2.81 L 35.61 -2.23 L 35.6 -1.65 L 35.6 -1.08 L 35.63 -0.51 L 35.68 0.05 L 35.76 0.6 L 35.86 1.15 L 35.99 1.7 L 36.15 2.23 L 36.33 2.77 L 36.54 3.29 L 36.78 3.81 L 37.04 4.33 L 37.33 4.84 L 37.64 5.34 L 37.98 5.84 L 38.35 6.33 L 38.74 6.81 L 39.16 7.29 L 39.6 7.77 L 40.07 8.24 L 40.56 8.7 L 41.09 9.15 L 41.63 9.61 L 42.21 10.05 L 42.81 10.49 L 43.44 10.92 L 44.09 11.35 L 44.77 11.77 L 45.47 12.19 L 46.2 12.6 L 46.96 13.01 L 47.74 13.41 L 48.55 13.8 L 47.16 13.75 L 45.85 13.72 L 44.62 13.7 L 43.47 13.7 L 41.98 13.71 L 40.65 13.75 L 39.47 13.81 L 38.45 13.9 L 37.71 13.98 L 37.01 14.07 L 36.35 14.18 L 35.74 14.31 L 35.16 14.45 L 34.63 14.61 L 34.15 14.78 L 33.7 14.98 L 33.3 15.18 L 32.93 15.41 L 32.61 15.65 L 32.47 15.78 L 32.34 15.91 L 32.21 16.04 L 32.1 16.18 L 32 16.32 L 31.91 16.47 L 31.83 16.62 L 31.76 16.78 L 31.7 16.94 L 31.65 17.1 L 31.54 17.39 L 31.46 17.71 L 31.42 18.04 L 31.41 18.4 L 31.43 18.78 L 31.48 19.19 L 31.57 19.61 L 31.69 20.06 L 31.84 20.53 L 32.02 21.03 L 32.24 21.54 L 32.48 22.08 L 32.76 22.64 L 33.08 23.22 L 33.42 23.82 L 33.8 24.45 L 34.11 24.98 L 34.5 25.61 L 34.98 26.35 L 35.55 27.2 L 36.21 28.15 L 36.95 29.21 L 38.7 31.65 L 37.25 30.75 L 35.87 29.93 L 35.19 29.55 L 34.54 29.19 L 33.89 28.85 L 33.26 28.52 L 32.65 28.22 L 32.05 27.94 L 31.46 27.68 L 30.89 27.43 L 30.33 27.21 L 29.79 27 L 29.26 26.82 L 28.75 26.65 L 28.16 26.46 L 27.58 26.3 L 27.02 26.17 L 26.46 26.06 L 25.93 25.97 L 25.41 25.91 L 24.9 25.87 L 24.4 25.86 L 24.05 25.86 L 23.7 25.88 L 23.37 25.92 L 23.04 25.96 L 22.71 26.02 L 22.4 26.1 L 22.09 26.18 L 21.79 26.28 L 21.49 26.39 L 21.21 26.52 L 20.93 26.66 L 20.66 26.81 L 20.4 26.97 L 20.14 27.15 L 19.89 27.35 L 19.65 27.55 L 19.6 27.6 L 19.25 27.9 L 18.91 28.23 L 18.58 28.59 L 18.26 28.99 L 17.95 29.42 L 17.65 29.89 L 17.36 30.38 L 17.08 30.91 L 16.81 31.48 L 16.55 32.07 L 16.3 32.7 L 16.06 33.37 L 15.83 34.06 L 15.61 34.79 L 15.4 35.55 L 15.2 36.35 L 14.99 37.24 L 14.77 38.27 L 14.54 39.44 L 14.31 40.74 L 14.08 42.17 L 13.84 43.75 L 13.6 45.46 L 13.35 47.3 L 12.9 46.35 L 12.44 45.43 L 11.98 44.54 L 11.52 43.68 L 11.06 42.85 L 10.6 42.05 L 10.14 41.28 L 9.67 40.54 L 9.2 39.83 L 8.73 39.15 L 8.26 38.51 L 7.79 37.89 L 7.31 37.3 L 6.83 36.74 L 6.36 36.21 L 5.88 35.71 L 5.39 35.25 L 4.91 34.81 L 4.42 34.4 L 3.94 34.03 L 3.45 33.68 L 2.96 33.36 L 2.46 33.07 L 1.97 32.82 L 1.47 32.59 L 0.98 32.4 L 0.48 32.23 L -0.02 32.09 L -0.53 31.99 L -1.03 31.91 L -1.54 31.87 L -2.05 31.85 L -2.5 31.86 L -2.95 31.9 L -3 31.9 L -3.51 31.95 L -4.03 32.04 L -4.56 32.15 L -5.1 32.29 L -5.65 32.46 L -6.21 32.67 L -6.77 32.9 L -7.35 33.16 L -7.94 33.46 L -8.53 33.78 L -9.14 34.13 L -9.75 34.52 L -10.37 34.93 L -11.01 35.37 L -11.65 35.85 L -12.3 36.35 L -13.09 36.97 L -13.94 37.67 L -14.85 38.45 L -15.81 39.33 L -16.84 40.28 L -17.92 41.32 L -19.05 42.44 L -20.25 43.65 L -18.6 32.7 L -18.6 32.6 L -18.53 31.82 L -18.49 31.07 L -18.46 30.35 L -18.44 29.67 L -18.45 29.02 L -18.47 28.4 L -18.52 27.81 L -18.58 27.26 L -18.65 26.74 L -18.75 26.26 L -18.86 25.81 L -18.99 25.39 L -19.14 25.01 L -19.31 24.65 L -19.5 24.34 L -19.7 24.05 L -19.9 23.78 L -20.11 23.54 L -20.35 23.3 L -20.61 23.09 L -20.89 22.89 L -21.18 22.71 L -21.5 22.55 L -21.83 22.4 L -22.19 22.27 L -22.56 22.16 L -22.96 22.07 L -23.37 21.99 L -23.81 21.93 L -24.26 21.89 L -24.73 21.86 L -25.23 21.85 L -25.84 21.87 L -26.48 21.9 L -27.15 21.96 L -27.85 22.05 L -28.42 22.13 L -29.03 22.24 L -29.67 22.35 L -30.34 22.49 L -31.78 22.82 L -33.35 23.21 L -35.05 23.68 L -36.89 24.22 L -38.85 24.82 L -40.95 25.5 L -40.95 25.5 L -40.29 24.73 L -39.66 23.97 L -39.06 23.22 L -38.49 22.49 L -37.94 21.77 L -37.42 21.06 L -36.93 20.36 L -36.47 19.68 L -36.03 19.01 L -35.62 18.35 L -35.24 17.71 L -34.89 17.08 L -34.57 16.46 L -34.27 15.85 L -34 15.26 L -33.76 14.68 L -33.55 14.11 L -33.37 13.55 L -33.21 13.01 L -33.08 12.48 L -32.98 11.96 L -32.9 11.45 L -32.86 10.96 L -32.84 10.48 L -32.85 10.01 L -32.89 9.56 L -32.95 9.12 L -33.05 8.69 L -33.17 8.27 L -33.32 7.87 L -33.5 7.48 L -33.7 7.1 L -33.7 7.1 L -33.65 7.15 L -33.88 6.75 L -34.14 6.36 L -34.43 5.98 L -34.75 5.61 L -35.1 5.24 L -35.49 4.88 L -35.9 4.53 L -36.35 4.19 L -36.83 3.85 L -37.34 3.52 L -37.88 3.2 L -38.45 2.88 L -39.05 2.58 L -39.69 2.28 L -40.35 1.98 L -41.05 1.7 L -41.85 1.4 L -42.71 1.1 L -43.65 0.79 L -44.65 0.49 L -45.72 0.18 L -46.86 -0.13 L -48.07 -0.44 L -49.35 -0.75 L -47.25 -1.22 L -45.29 -1.67 L -43.47 -2.1 L -41.8 -2.53 L -40.27 -2.93 L -38.89 -3.32 L -37.65 -3.69 L -36.55 -4.05 L -36.45 -4.1 L -35.7 -4.37 L -34.99 -4.65 L -34.32 -4.93 L -33.7 -5.22 L -33.11 -5.52 L -32.56 -5.82 L -32.05 -6.13 L -31.59 -6.45 L -31.16 -6.77 L -30.77 -7.1 L -30.43 -7.43 L -30.12 -7.78 L -29.86 -8.12 L -29.63 -8.48 L -29.45 -8.83 L -29.3 -9.2 L -29.17 -9.55 L -29.08 -9.92 L -29.02 -10.3 L -28.99 -10.7 L -28.99 -11.12 L -29.03 -11.55 L -29.1 -12 L -29.2 -12.46 L -29.34 -12.94 L -29.5 -13.44 L -29.7 -13.95 L -29.94 -14.48 L -30.2 -15.02 L -30.5 -15.58 L -30.84 -16.16 L -31.2 -16.75 L -31.3 -16.9 L -36.7 -24.4 L -27.5 -20.5 L -27.35 -20.4 L -26.27 -20.03 L -25.23 -19.71 L -24.24 -19.44 L -23.29 -19.22 L -22.83 -19.12 L -22.38 -19.04 L -21.95 -18.98 L -21.52 -18.92 L -21.1 -18.88 L -20.7 -18.85 L -20.31 -18.83 L -19.92 -18.82 L -19.53 -18.83 L -19.16 -18.85 L -18.79 -18.88 L -18.44 -18.93 L -18.1 -18.99 L -17.77 -19.06 L -17.46 -19.15 L -17.15 -19.25 L -16.88 -19.35 L -16.62 -19.46 L -16.36 -19.58 L -16.11 -19.72 L -15.87 -19.87 L -15.63 -20.02 L -15.4 -20.19 L -15.17 -20.38 L -14.95 -20.57 L -14.73 -20.77 L -14.53 -20.99 L -14.32 -21.22 L -14.13 -21.46 L -13.94 -21.71 L -13.75 -21.97 L -13.57 -22.25 L -13.4 -22.54 L -13.24 -22.84 L -13.08 -23.15 L -12.92 -23.47 L -12.78 -23.8 L -12.63 -24.15 L -12.37 -24.88 L -12.13 -25.65 L -11.91 -26.47 L -11.72 -27.34 L -11.55 -28.25 L -11.45 -29.03 L -11.36 -29.84 L -11.28 -30.7 L -11.22 -31.59 L -11.18 -32.52 L -11.15 -33.5 L -11.14 -34.51 L -11.14 -35.56 L -11.15 -36.65 L -11.19 -37.79 L -11.23 -38.96 L -11.3 -40.17 L -11.37 -41.42 L -11.47 -42.7 L -11.58 -44.03 L -11.7 -45.4 Z M -13.6 -52 L -13.79 -51.94 L -13.95 -51.85 L -14.09 -51.74 L -14.2 -51.6 L -14.35 -50.9 L -14.13 -49.05 L -13.93 -47.26 L -13.76 -45.53 L -13.61 -43.86 L -13.48 -42.25 L -13.38 -40.7 L -13.3 -39.21 L -13.24 -37.79 L -13.2 -36.42 L -13.19 -35.11 L -13.2 -33.87 L -13.23 -32.68 L -13.29 -31.56 L -13.37 -30.5 L -13.47 -29.49 L -13.6 -28.55 L -13.73 -27.81 L -13.89 -27.11 L -14.06 -26.45 L -14.24 -25.82 L -14.45 -25.23 L -14.67 -24.67 L -14.92 -24.16 L -15.18 -23.67 L -15.45 -23.23 L -15.75 -22.82 L -16.06 -22.45 L -16.39 -22.12 L -16.74 -21.82 L -16.92 -21.69 L -17.11 -21.56 L -17.3 -21.44 L -17.5 -21.34 L -17.7 -21.24 L -17.9 -21.15 L -17.85 -21.15 L -18.08 -21.09 L -18.32 -21.03 L -18.81 -20.95 L -19.34 -20.9 L -19.9 -20.88 L -20.24 -20.89 L -20.59 -20.9 L -20.95 -20.93 L -21.32 -20.97 L -22.1 -21.09 L -22.91 -21.25 L -23.77 -21.45 L -24.67 -21.71 L -25.61 -22.01 L -26.6 -22.35 L -26.75 -22.35 L -39.4 -27.75 L -40.06 -27.8 L -40.06 -27.8 L -40.06 -27.8 L -40.06 -27.8 L -40.65 -27.45 L -40.85 -26.8 L -40.65 -26.2 L -33 -15.8 L -32.95 -15.65 L -32.67 -15.19 L -32.41 -14.75 L -32.17 -14.32 L -31.96 -13.9 L -31.77 -13.5 L -31.61 -13.11 L -31.47 -12.73 L -31.35 -12.36 L -31.26 -12.01 L -31.18 -11.67 L -31.14 -11.34 L -31.11 -11.03 L -31.11 -10.73 L -31.13 -10.44 L -31.18 -10.16 L -31.25 -9.9 L -31.38 -9.63 L -31.55 -9.37 L -31.75 -9.11 L -31.98 -8.85 L -32.23 -8.6 L -32.53 -8.35 L -32.85 -8.1 L -33.2 -7.86 L -33.58 -7.62 L -34 -7.39 L -34.45 -7.16 L -34.92 -6.93 L -35.43 -6.7 L -35.97 -6.48 L -36.55 -6.26 L -37.15 -6.05 L -37.25 -6 L -37.91 -5.78 L -38.62 -5.55 L -39.4 -5.32 L -40.22 -5.08 L -42.04 -4.6 L -44.09 -4.09 L -46.36 -3.56 L -48.85 -3.01 L -51.56 -2.44 L -54.5 -1.85 L -55.05 -1.45 L -55.05 -1.5 L -55.3 -0.85 L -55.1 -0.2 L -55.05 -0.15 L -54.5 0.2 L -52.44 0.65 L -50.52 1.09 L -48.72 1.53 L -47.06 1.96 L -45.54 2.39 L -44.14 2.82 L -42.88 3.24 L -42.3 3.44 L -41.75 3.65 L -41.16 3.89 L -40.6 4.14 L -40.07 4.39 L -39.56 4.64 L -39.08 4.91 L -38.62 5.17 L -38.19 5.45 L -37.79 5.72 L -37.41 6.01 L -37.06 6.3 L -36.73 6.59 L -36.43 6.89 L -36.16 7.2 L -35.91 7.51 L -35.69 7.83 L -35.5 8.15 L -35.5 8.1 L -35.5 8.1 L -35.34 8.46 L -35.2 8.84 L -35.1 9.23 L -35.03 9.63 L -34.98 10.05 L -34.97 10.49 L -34.99 10.94 L -35.03 11.4 L -35.11 11.88 L -35.22 12.37 L -35.35 12.88 L -35.52 13.41 L -35.72 13.94 L -35.94 14.5 L -36.2 15.07 L -36.49 15.65 L -36.8 16.25 L -37.15 16.86 L -37.53 17.49 L -37.93 18.13 L -38.37 18.79 L -38.84 19.46 L -39.33 20.15 L -39.86 20.85 L -40.42 21.57 L -41 22.3 L -41.62 23.04 L -42.26 23.81 L -42.94 24.58 L -43.65 25.37 L -44.38 26.18 L -45.15 27 L -45.45 27.65 L -45.25 28.3 L -44.8 28.7 L -44.05 28.7 L -41.32 27.77 L -38.78 26.95 L -36.43 26.23 L -35.33 25.9 L -34.28 25.6 L -33.27 25.33 L -32.31 25.08 L -31.4 24.85 L -30.53 24.65 L -29.71 24.48 L -28.95 24.33 L -28.22 24.2 L -27.55 24.1 L -26.95 24.03 L -26.38 23.97 L -25.84 23.94 L -25.32 23.93 L -24.97 23.94 L -24.63 23.95 L -24.31 23.98 L -24 24.02 L -23.7 24.06 L -23.42 24.12 L -23.15 24.19 L -22.9 24.27 L -22.66 24.36 L -22.43 24.47 L -22.21 24.58 L -22.01 24.7 L -21.83 24.83 L -21.65 24.98 L -21.5 25.13 L -21.35 25.3 L -21.21 25.54 L -21.08 25.81 L -20.96 26.1 L -20.86 26.42 L -20.77 26.77 L -20.69 27.15 L -20.63 27.55 L -20.58 27.99 L -20.54 28.45 L -20.51 28.94 L -20.5 29.45 L -20.51 30 L -20.52 30.57 L -20.55 31.17 L -20.59 31.8 L -20.65 32.45 L -22.75 46.5 L -22.65 47.1 L -22.65 47.05 L -22.2 47.55 L -21.55 47.65 L -21.5 47.65 L -21 47.35 L -21 47.3 L -19.47 45.72 L -18.02 44.26 L -16.65 42.92 L -15.38 41.7 L -14.18 40.6 L -13.07 39.61 L -12.04 38.75 L -11.56 38.36 L -11.1 38 L -10.52 37.55 L -9.94 37.13 L -9.38 36.73 L -8.82 36.36 L -8.27 36.01 L -7.73 35.7 L -7.2 35.4 L -6.68 35.14 L -6.16 34.9 L -5.65 34.68 L -5.16 34.5 L -4.67 34.33 L -4.19 34.2 L -3.72 34.09 L -3.25 34.01 L -2.8 33.95 L -2.75 33.95 L -2.35 33.94 L -1.85 33.96 L -1.35 34.01 L -0.86 34.09 L -0.36 34.21 L 0.13 34.37 L 0.62 34.55 L 1.11 34.78 L 1.6 35.03 L 2.09 35.32 L 2.58 35.65 L 3.07 36.01 L 3.55 36.4 L 4.04 36.83 L 4.52 37.29 L 5 37.79 L 5.48 38.32 L 5.96 38.88 L 6.44 39.48 L 6.91 40.11 L 7.39 40.78 L 7.86 41.48 L 8.34 42.22 L 8.81 42.99 L 9.28 43.79 L 9.75 44.63 L 10.22 45.5 L 10.68 46.41 L 11.15 47.35 L 11.61 48.32 L 12.08 49.33 L 12.54 50.37 L 13 51.45 L 13.41 51.9 L 13.4 51.9 L 13.45 51.95 L 13.45 51.95 L 13.41 51.9 L 13.41 51.9 L 14.05 52.05 L 14.1 52.05 L 14.65 51.75 L 14.95 51.15 L 15.25 48.67 L 15.54 46.39 L 15.82 44.31 L 16.1 42.42 L 16.37 40.74 L 16.64 39.24 L 16.9 37.95 L 17.15 36.85 L 17.32 36.15 L 17.5 35.48 L 17.69 34.84 L 17.89 34.23 L 18.1 33.65 L 18.31 33.1 L 18.53 32.57 L 18.76 32.08 L 19 31.61 L 19.25 31.17 L 19.5 30.76 L 19.77 30.38 L 20.04 30.03 L 20.32 29.71 L 20.6 29.41 L 20.9 29.15 L 20.95 29.1 L 21.13 28.96 L 21.32 28.83 L 21.52 28.7 L 21.72 28.59 L 21.92 28.48 L 22.13 28.39 L 22.35 28.3 L 22.57 28.22 L 22.8 28.16 L 23.03 28.1 L 23.51 28.01 L 24.01 27.95 L 24.54 27.93 L 24.94 27.94 L 25.37 27.97 L 25.8 28.03 L 26.25 28.1 L 26.7 28.19 L 27.17 28.31 L 27.66 28.44 L 28.15 28.6 L 28.83 28.83 L 29.54 29.1 L 30.28 29.4 L 31.05 29.74 L 31.84 30.12 L 32.66 30.53 L 33.51 30.98 L 34.39 31.46 L 35.29 31.98 L 36.22 32.54 L 37.18 33.14 L 38.17 33.77 L 39.19 34.43 L 40.23 35.14 L 41.3 35.87 L 42.4 36.65 L 43.1 36.85 L 43.75 36.55 L 44.05 35.9 L 44.05 35.85 L 43.85 35.2 L 42.23 33.01 L 40.78 31.03 L 39.5 29.26 L 38.38 27.69 L 37.42 26.32 L 36.63 25.16 L 36.01 24.2 L 35.55 23.45 L 35.26 22.96 L 34.98 22.49 L 34.73 22.03 L 34.51 21.6 L 34.31 21.18 L 34.13 20.78 L 33.97 20.4 L 33.84 20.04 L 33.73 19.69 L 33.64 19.37 L 33.58 19.06 L 33.53 18.77 L 33.52 18.5 L 33.52 18.25 L 33.55 18.02 L 33.6 17.8 L 33.71 17.62 L 33.84 17.45 L 34.01 17.29 L 34.2 17.14 L 34.42 17 L 34.66 16.86 L 34.94 16.73 L 35.24 16.61 L 35.57 16.5 L 35.92 16.4 L 36.31 16.3 L 36.72 16.22 L 37.16 16.14 L 37.63 16.07 L 38.13 16 L 38.65 15.95 L 39.67 15.87 L 40.85 15.81 L 42.18 15.77 L 43.66 15.76 L 44.74 15.76 L 45.88 15.78 L 48.38 15.84 L 51.15 15.95 L 54.2 16.1 L 54.85 15.9 L 54.9 15.85 L 55.25 15.3 L 55.25 15.25 L 55.1 14.56 L 54.6 14.1 L 53.56 13.71 L 52.56 13.32 L 51.59 12.92 L 50.65 12.51 L 49.74 12.1 L 48.87 11.67 L 48.03 11.25 L 47.22 10.81 L 46.45 10.37 L 45.7 9.92 L 44.99 9.47 L 44.32 9.01 L 43.67 8.54 L 43.06 8.07 L 42.48 7.59 L 41.94 7.1 L 41.42 6.61 L 40.94 6.11 L 40.5 5.6 L 40.08 5.08 L 39.7 4.56 L 39.35 4.04 L 39.03 3.5 L 38.75 2.96 L 38.5 2.42 L 38.28 1.86 L 38.09 1.3 L 37.94 0.73 L 37.82 0.16 L 37.73 -0.42 L 37.67 -1.01 L 37.65 -1.6 L 37.68 -2.22 L 37.74 -2.85 L 37.83 -3.49 L 37.95 -4.13 L 38.11 -4.78 L 38.31 -5.44 L 38.53 -6.11 L 38.79 -6.78 L 39.09 -7.46 L 39.41 -8.15 L 39.77 -8.84 L 40.17 -9.55 L 40.59 -10.25 L 41.05 -10.97 L 41.55 -11.69 L 42.08 -12.43 L 42.64 -13.16 L 43.23 -13.91 L 43.86 -14.66 L 44.52 -15.42 L 45.21 -16.19 L 45.94 -16.96 L 46.7 -17.74 L 47.49 -18.53 L 48.32 -19.33 L 49.18 -20.13 L 50.08 -20.94 L 51 -21.76 L 51.97 -22.58 L 52.96 -23.41 L 53.99 -24.25 L 55.05 -25.1 L 55.45 -25.65 L 55.5 -25.75 L 55.35 -26.45 L 54.8 -26.9 L 54.1 -26.9 L 52.21 -26.19 L 50.38 -25.52 L 48.59 -24.91 L 46.86 -24.33 L 45.19 -23.81 L 43.57 -23.32 L 42 -22.89 L 40.48 -22.5 L 39.02 -22.16 L 37.61 -21.86 L 36.26 -21.61 L 34.96 -21.4 L 33.71 -21.24 L 33.11 -21.18 L 32.52 -21.12 L 31.94 -21.08 L 31.38 -21.06 L 30.83 -21.04 L 30.29 -21.03 L 29.75 -21.04 L 29.22 -21.06 L 28.71 -21.09 L 28.21 -21.13 L 27.73 -21.19 L 27.26 -21.25 L 26.8 -21.33 L 26.36 -21.42 L 25.94 -21.53 L 25.52 -21.64 L 25.13 -21.77 L 24.74 -21.91 L 24.37 -22.07 L 24.02 -22.23 L 23.68 -22.41 L 23.35 -22.6 L 22.99 -22.86 L 22.65 -23.13 L 22.32 -23.43 L 22.02 -23.74 L 21.73 -24.07 L 21.47 -24.43 L 21.23 -24.8 L 21 -25.19 L 20.79 -25.6 L 20.61 -26.03 L 20.44 -26.48 L 20.29 -26.95 L 20.17 -27.44 L 20.06 -27.94 L 19.97 -28.47 L 19.9 -29.01 L 19.85 -29.58 L 19.82 -30.16 L 19.81 -30.76 L 19.82 -31.39 L 19.85 -32.03 L 19.9 -32.69 L 19.96 -33.37 L 20.05 -34.07 L 20.16 -34.78 L 20.28 -35.52 L 20.43 -36.28 L 20.59 -37.05 L 20.78 -37.85 L 20.98 -38.66 L 21.21 -39.5 L 21.45 -40.35 L 21.45 -41.05 L 21.45 -41.1 L 20.95 -41.55 L 21 -41.55 L 20.35 -41.7 L 20.3 -41.7 L 20.13 -41.66 L 19.98 -41.59 L 19.83 -41.48 L 19.7 -41.35 L 17.76 -39.18 L 15.98 -37.2 L 14.34 -35.43 L 12.86 -33.86 L 11.53 -32.49 L 10.35 -31.33 L 9.82 -30.82 L 9.33 -30.36 L 8.87 -29.96 L 8.45 -29.6 L 8.08 -29.3 L 7.72 -29.02 L 7.36 -28.76 L 7.01 -28.52 L 6.66 -28.3 L 6.33 -28.1 L 5.99 -27.92 L 5.67 -27.75 L 5.35 -27.61 L 5.03 -27.48 L 4.72 -27.38 L 4.42 -27.29 L 4.13 -27.22 L 3.84 -27.17 L 3.56 -27.15 L 3.28 -27.14 L 3 -27.15 L 2.73 -27.18 L 2.46 -27.23 L 2.2 -27.3 L 2.25 -27.3 L 1.92 -27.46 L 1.59 -27.65 L 1.25 -27.88 L 0.91 -28.14 L 0.56 -28.45 L 0.2 -28.79 L -0.16 -29.16 L -0.52 -29.58 L -0.9 -30.02 L -1.27 -30.51 L -1.66 -31.03 L -2.04 -31.59 L -2.44 -32.19 L -2.84 -32.82 L -3.24 -33.49 L -3.65 -34.2 L -12.4 -51.5 L -12.95 -51.95 L -12.9 -51.95 L -13.6 -52 Z"/>
    </clipPath>
    <g clip-path="url(#clipPath0)">
      <use ffdec:characterId="15" height="112.55" transform="matrix(1.0, 0.0, 0.0, 1.0, 1.8, 3.7)" width="112.55" xlink:href="#sprite0"/>
    </g>
  </g>
  <defs>
    <g id="shape0">
      <path d="M19.45 -38.75 Q15.3 -24.7 21.65 -20.7 29.05 -16.0 51.8 -24.7 17.95 2.05 51.6 14.35 40.9 13.8 36.65 14.2 31.7 14.65 31.0 16.6 30.3 18.45 32.95 22.8 34.4 25.3 40.9 34.1 32.25 27.95 27.05 26.3 22.0 24.65 19.25 27.0 16.75 29.0 15.35 34.85 14.4 38.7 13.2 48.6 5.65 30.65 -2.8 31.35 -6.45 31.65 -11.2 35.4 -14.65 38.05 -20.75 44.4 L-18.75 31.0 Q-18.2 25.4 -19.6 23.5 -21.25 21.25 -26.45 21.95 -31.45 22.65 -42.35 26.4 -29.8 13.1 -33.0 7.25 -34.5 4.5 -39.5 2.55 -43.55 0.95 -51.75 -0.8 -40.05 -3.1 -35.2 -4.8 -29.8 -6.65 -28.9 -9.1 -28.05 -11.4 -30.6 -15.45 -31.75 -17.35 -38.0 -25.55 L-25.75 -20.35 Q-19.8 -18.2 -16.75 -19.25 -13.1 -20.6 -12.05 -27.05 -10.95 -34.1 -12.75 -48.6 L-4.35 -32.1 Q-1.0 -26.15 1.7 -25.1 4.5 -24.05 8.6 -27.45 11.7 -30.0 19.45 -38.75" fill="#000033" fill-rule="evenodd" stroke="none"/>
      <path d="M8.05 -24.9 Q11.1 -27.45 17.45 -34.8 13.75 -20.7 21.05 -17.95 24.3 -16.75 30.35 -17.45 35.15 -18.0 43.55 -20.1 31.15 -9.5 31.75 -0.7 32.3 8.15 45.95 13.15 32.0 11.3 29.1 14.9 25.85 18.8 36.2 29.55 28.7 24.65 24.2 23.55 19.9 22.45 17.55 24.6 15.45 26.5 14.3 31.6 13.55 34.65 12.45 43.4 5.8 28.3 -2.75 29.1 -9.05 29.75 -18.45 40.1 -17.0 32.05 -16.95 28.1 -16.9 23.4 -18.7 21.55 -20.65 19.55 -25.05 20.05 -29.45 20.5 -37.5 23.5 -28.05 12.4 -30.35 7.1 -32.3 2.4 -45.4 -0.85 -28.5 -3.7 -26.55 -8.4 -25.6 -10.8 -27.65 -14.4 -29.45 -17.5 -34.25 -22.65 -26.0 -18.55 -24.75 -18.0 -19.35 -15.85 -16.15 -16.45 -7.65 -18.35 -10.7 -41.7 -6.05 -31.7 -3.85 -28.2 -0.95 -23.45 1.6 -22.7 4.25 -21.95 8.05 -24.9" fill="url(#gradient0)" fill-rule="evenodd" stroke="none"/>
    </g>
    <radialGradient cx="0" cy="0" gradientTransform="matrix(0.0587, 0.0, 0.0, 0.0587, 0.25, 0.85)" gradientUnits="userSpaceOnUse" id="gradient0" r="819.2" spreadMethod="pad">
      <stop offset="0.0" stop-color="#ccccff"/>
      <stop offset="1.0" stop-color="#6666cc"/>
    </radialGradient>
    <g id="sprite0">
      <use ffdec:characterId="14" height="54.75" transform="matrix(1.2878, 0.0, 0.0, 1.2878, 0.0, -0.8)" width="54.75" xlink:href="#shape1"/>
    </g>
    <g id="shape1">
      <path d="M18.8 -18.25 Q26.4 -10.65 26.4 0.0 26.4 10.65 18.8 18.3 11.2 25.9 0.55 25.9 -10.15 25.9 -17.75 18.3 -25.35 10.65 -25.35 0.0 -25.35 -10.65 -17.75 -18.25 -10.15 -25.9 0.55 -25.85 11.2 -25.9 18.8 -18.25 Z" fill="none" stroke="#ccccff" stroke-linecap="round" stroke-linejoin="round" stroke-width="3.0"/>
    </g>
  </defs>
</svg>
