<?xml version="1.0" encoding="UTF-8" standalone="no"?>
<svg xmlns:ffdec="https://www.free-decompiler.com/flash" xmlns:xlink="http://www.w3.org/1999/xlink" ffdec:objectType="frame" height="31.1px" width="29.95px" xmlns="http://www.w3.org/2000/svg">
  <g transform="matrix(1.0, 0.0, 0.0, 1.0, 8.55, 22.3)">
    <clipPath id="clipPath0" transform="matrix(1.0, 0.0, 0.0, 1.0, 0.0, 0.0)">
      <path d="M16.95 -3.5 Q16.9 1.4 13.4 4.85 9.85 8.3 4.9 8.3 -0.15 8.3 -3.65 4.85 -7.25 1.4 -7.2 -3.5 L16.95 -3.5" fill="#ffffff" fill-rule="evenodd" stroke="none"/>
      <path d="M16.95 -3.5 Q16.9 1.4 13.4 4.85 9.85 8.3 4.9 8.3 -0.15 8.3 -3.65 4.85 -7.25 1.4 -7.2 -3.5 L16.95 -3.5 Z" fill="none" stroke="#cc6600" stroke-linecap="round" stroke-linejoin="round" stroke-width="1.0"/>
    </clipPath>
    <g clip-path="url(#clipPath0)">
      <use ffdec:characterId="65" height="30.6" transform="matrix(1.0, 0.0, 0.0, 1.0, -8.55, -22.3)" width="29.95" xlink:href="#shape1"/>
    </g>
    <use ffdec:characterId="66" height="2.0" transform="matrix(1.0, 0.0, 0.0, 1.0, -7.2, -3.5)" width="24.15" xlink:href="#shape2"/>
  </g>
  <defs>
    <g id="shape1" transform="matrix(1.0, 0.0, 0.0, 1.0, 8.55, 22.3)">
      <path d="M17.05 -17.95 Q21.4 -13.55 21.4 -7.3 21.4 -1.1 17.05 3.25 15.1 5.2 12.85 6.3 10.2 8.3 6.8 8.3 3.9 8.3 1.65 6.9 -1.6 5.85 -4.2 3.25 -8.55 -1.1 -8.55 -7.3 -8.55 -13.55 -4.2 -17.95 0.25 -22.3 6.45 -22.3 12.65 -22.3 17.05 -17.95" fill="url(#gradient0)" fill-rule="evenodd" stroke="none"/>
    </g>
    <radialGradient cx="0" cy="0" gradientTransform="matrix(0.0196, 0.0, 0.0, 0.0196, 6.45, -7.0)" gradientUnits="userSpaceOnUse" id="gradient0" r="819.2" spreadMethod="pad">
      <stop offset="0.0" stop-color="#ccccff"/>
      <stop offset="0.5411764705882353" stop-color="#6666cc"/>
      <stop offset="0.8784313725490196" stop-color="#333366"/>
      <stop offset="1.0" stop-color="#000033"/>
    </radialGradient>
    <g id="shape2" transform="matrix(1.0, 0.0, 0.0, 1.0, 7.2, 3.5)">
      <path d="M13.4 -2.05 L4.9 -1.5 -3.65 -2.05 Q-7.25 -2.65 -7.2 -3.5 L16.95 -3.5 Q16.9 -2.65 13.4 -2.05" fill="#000033" fill-rule="evenodd" stroke="none"/>
    </g>
  </defs>
</svg>
