<?xml version="1.0" encoding="UTF-8" standalone="no"?>
<svg xmlns:ffdec="https://www.free-decompiler.com/flash" xmlns:xlink="http://www.w3.org/1999/xlink" ffdec:objectType="frame" height="14.8px" width="12.25px" xmlns="http://www.w3.org/2000/svg">
  <g transform="matrix(1.0, 0.0, 0.0, 1.0, 7.9, 6.85)">
    <use ffdec:characterId="22" height="14.45" transform="matrix(1.0, 0.0, 0.0, 1.0, -7.9, -6.8499)" width="12.25" xlink:href="#text0"/>
  </g>
  <defs>
    <g id="text0" transform="matrix(1.0, 0.0, 0.0, 1.0, -0.3, -7.25)">
      <g transform="matrix(1.0, 0.0, 0.0, 1.0, 0.0, 0.0)">
        <use fill="#000033" height="14.45" transform="matrix(0.3906, 0.0, 0.0, 0.3906, 0.0, 21.7)" width="12.25" xlink:href="#font_Futura_XBlk_BT_20"/>
      </g>
    </g>
    <g id="font_Futura_XBlk_BT_20">
      <path d="M17.3 -37.0 Q24.2 -36.85 28.15 -33.25 32.1 -29.6 32.15 -23.7 32.15 -20.3 30.6 -17.7 29.0 -15.15 25.9 -12.7 L22.85 -10.15 32.1 -10.15 32.1 0.0 0.8 0.0 17.15 -19.45 Q19.15 -21.75 19.2 -23.65 19.15 -25.7 16.95 -25.8 14.5 -25.85 14.6 -21.6 L2.4 -21.6 2.4 -22.2 Q2.45 -29.2 6.4 -33.05 10.3 -36.95 17.3 -37.0" fill-rule="evenodd" stroke="none"/>
    </g>
  </defs>
</svg>
