<?xml version="1.0" encoding="UTF-8" standalone="no"?>
<svg xmlns:ffdec="https://www.free-decompiler.com/flash" xmlns:xlink="http://www.w3.org/1999/xlink" ffdec:objectType="frame" height="79.0px" width="79.0px" xmlns="http://www.w3.org/2000/svg">
  <g transform="matrix(1.0, 0.0, 0.0, 1.0, 39.5, 39.5)">
    <use ffdec:characterId="55" height="56.0" transform="matrix(-0.1264, 0.9916, -0.9916, -0.1264, 31.3026, -24.2249)" width="55.95" xlink:href="#sprite0"/>
  </g>
  <defs>
    <g id="sprite0" transform="matrix(1.0, 0.0, 0.0, 1.0, 28.0, 28.0)">
      <use ffdec:characterId="54" height="56.0" transform="matrix(1.0, 0.0, 0.0, 1.0, -28.0, -28.0)" width="55.95" xlink:href="#shape0"/>
    </g>
    <g id="shape0" transform="matrix(1.0, 0.0, 0.0, 1.0, 28.0, 28.0)">
      <path d="M16.25 -16.25 Q9.5 -23.0 -0.05 -23.0 -9.6 -23.0 -16.25 -16.3 L-16.25 -16.25 Q-23.0 -9.55 -23.0 0.0 -23.0 9.5 -16.25 16.25 -9.6 22.95 -0.05 23.0 9.45 22.95 16.25 16.25 22.95 9.45 22.95 0.0 22.95 -9.55 16.25 -16.25 M19.75 -19.8 L19.8 -19.8 Q27.95 -11.65 27.95 0.0 27.95 11.5 19.8 19.75 L19.75 19.8 Q11.5 27.95 -0.05 28.0 -11.7 27.95 -19.8 19.75 -28.0 11.5 -28.0 0.0 -28.0 -11.65 -19.8 -19.8 -11.7 -28.0 -0.05 -28.0 11.5 -28.0 19.75 -19.8" fill="url(#gradient0)" fill-rule="evenodd" stroke="none"/>
    </g>
    <linearGradient gradientTransform="matrix(0.0341, 0.0, 0.0, 0.0342, -0.05, 0.0)" gradientUnits="userSpaceOnUse" id="gradient0" spreadMethod="pad" x1="-819.2" x2="819.2">
      <stop offset="0.0" stop-color="#6666cc"/>
      <stop offset="0.25098039215686274" stop-color="#6666cc"/>
      <stop offset="0.4980392156862745" stop-color="#ccccff"/>
      <stop offset="0.7333333333333333" stop-color="#6666cc"/>
      <stop offset="1.0" stop-color="#6666cc"/>
    </linearGradient>
  </defs>
</svg>
