<?xml version="1.0" encoding="UTF-8" standalone="no"?>
<svg xmlns:ffdec="https://www.free-decompiler.com/flash" xmlns:xlink="http://www.w3.org/1999/xlink" ffdec:objectType="frame" height="96.4px" width="24.8px" xmlns="http://www.w3.org/2000/svg">
  <g transform="matrix(1.0, 0.0, 0.0, 1.0, 12.4, 24.4)">
    <use ffdec:characterId="118" height="82.3" transform="matrix(1.0, 0.0, 0.0, 1.0, -12.4, -19.65)" width="24.8" xlink:href="#shape0"/>
    <use ffdec:characterId="119" height="51.1" transform="matrix(1.0, 0.0, 0.0, 0.8152, -10.5, -18.1613)" width="21.95" xlink:href="#shape1"/>
  </g>
  <defs>
    <g id="shape0" transform="matrix(1.0, 0.0, 0.0, 1.0, 12.4, 24.3)">
      <path d="M2.55 38.15 L3.35 38.4 Q5.4 39.1 7.05 40.75 10.05 43.75 10.05 47.9 10.05 52.1 7.05 55.0 4.15 58.0 0.0 58.0 -4.2 58.0 -7.2 55.0 -10.1 52.1 -10.1 47.9 -10.1 43.75 -7.2 40.75 -5.45 39.05 -3.25 38.35 L-3.25 38.5 2.45 38.5 2.55 38.5 2.55 38.15" fill="url(#gradient0)" fill-rule="evenodd" stroke="none"/>
      <path d="M-2.85 38.5 L-2.85 -20.25 -11.65 -20.3 -11.65 -23.55 11.65 -23.55 11.65 -20.3 2.55 -20.3 2.55 38.15 2.55 38.5 2.45 38.5 -2.85 38.5" fill="url(#gradient1)" fill-rule="evenodd" stroke="none"/>
      <path d="M-2.85 38.5 L-2.85 -20.25 -11.65 -20.3 -11.65 -23.55 11.65 -23.55 11.65 -20.3 2.55 -20.3 2.55 38.15 2.55 38.5" fill="none" stroke="#000033" stroke-linecap="round" stroke-linejoin="round" stroke-width="1.5"/>
    </g>
    <radialGradient cx="0" cy="0" gradientTransform="matrix(0.0134, 0.0, 0.0, 0.0134, -0.05, 48.05)" gradientUnits="userSpaceOnUse" id="gradient0" r="819.2" spreadMethod="pad">
      <stop offset="0.0" stop-color="#ccccff"/>
      <stop offset="0.5411764705882353" stop-color="#6666cc"/>
      <stop offset="0.8784313725490196" stop-color="#333366"/>
      <stop offset="1.0" stop-color="#000033"/>
    </radialGradient>
    <linearGradient gradientTransform="matrix(0.0142, 0.0, 0.0, 0.0379, 0.0, 7.45)" gradientUnits="userSpaceOnUse" id="gradient1" spreadMethod="pad" x1="-819.2" x2="819.2">
      <stop offset="0.34509803921568627" stop-color="#333366"/>
      <stop offset="0.4235294117647059" stop-color="#6666cc"/>
      <stop offset="0.4980392156862745" stop-color="#ccccff"/>
      <stop offset="0.5764705882352941" stop-color="#6666cc"/>
      <stop offset="0.6901960784313725" stop-color="#333366"/>
    </linearGradient>
    <g id="shape1" transform="matrix(1.0, 0.0, 0.0, 1.0, 10.95, 27.8)">
      <path d="M-6.7 -2.95 L-6.65 -3.0 -6.6 -3.0 -6.7 -2.95" fill="url(#gradient2)" fill-rule="evenodd" stroke="none"/>
      <path d="M3.55 3.3 Q7.3 2.85 9.5 6.35 10.35 7.7 10.25 9.55 10.15 11.5 8.95 12.95 5.3 15.5 1.0 16.25 -1.2 16.55 -3.35 17.25 L-3.7 17.15 -4.0 17.4 -4.0 17.5 -4.0 18.0 -3.45 18.25 -3.45 22.5 -4.05 22.55 -4.4 22.45 -4.5 22.35 -4.8 22.3 -4.95 22.3 Q-5.2 22.0 -6.0 21.85 -6.85 21.7 -7.9 20.95 L-9.5 19.8 -10.2 19.15 -10.2 14.2 -10.15 14.15 -9.4 13.5 -9.1 13.35 Q-7.9 12.85 -6.7 12.45 L-6.65 12.4 -6.6 12.4 -5.8 12.35 -5.6 12.35 -4.85 12.2 -4.3 12.2 -3.85 12.2 -3.4 12.15 Q-0.6 11.25 2.15 10.65 4.35 10.15 6.2 9.0 L3.35 7.8 2.3 7.65 2.4 3.3 3.55 3.3" fill="url(#gradient3)" fill-rule="evenodd" stroke="none"/>
      <path d="M-6.6 -3.0 L-5.8 -3.05 -5.6 -3.05 -4.85 -3.2 -4.3 -3.2 -3.85 -3.2 -3.4 -3.25 2.15 -4.75 Q4.35 -5.25 6.2 -6.4 L3.35 -7.6 2.3 -7.75 2.4 -12.1 3.55 -12.1 Q7.3 -12.55 9.5 -9.05 10.35 -7.7 10.25 -5.85 10.15 -3.9 8.95 -2.45 5.3 0.1 1.0 0.85 -1.2 1.15 -3.35 1.85 L-3.7 1.75 -4.0 2.0 -4.0 2.1 -4.0 2.6 -3.45 2.85 -3.45 7.1 -4.05 7.15 -4.4 7.05 -4.5 6.95 -4.8 6.9 -4.95 6.9 Q-5.2 6.6 -6.0 6.45 -6.85 6.3 -7.9 5.55 L-9.5 4.4 -10.2 3.75 -10.2 -1.2 -10.15 -1.25 -9.4 -1.9 -9.1 -2.05 -6.7 -2.95 -6.6 -3.0" fill="url(#gradient4)" fill-rule="evenodd" stroke="none"/>
      <path d="M4.05 -27.0 L6.05 -26.55 Q6.95 -26.15 7.7 -25.35 8.95 -24.2 9.55 -22.4 L9.7 -21.05 9.1 -18.45 Q8.9 -17.85 8.5 -17.4 L7.05 -16.2 6.45 -15.75 5.1 -15.35 3.65 -15.0 2.15 -14.8 0.6 -14.55 -1.1 -14.1 -2.9 -13.7 Q-3.8 -13.55 -4.7 -12.75 L-3.45 -12.3 -3.4 -11.15 -3.5 -7.45 -4.8 -7.4 -6.1 -7.65 -7.3 -8.25 -8.6 -8.85 Q-9.45 -9.4 -9.95 -10.5 -10.4 -11.5 -10.1 -12.65 L-9.5 -14.3 -8.25 -15.95 -6.6 -17.05 -5.55 -17.6 -3.7 -18.2 -2.3 -18.5 -0.75 -18.9 0.9 -19.15 2.75 -19.6 Q3.5 -19.95 4.25 -20.4 5.25 -20.75 5.5 -21.55 L2.35 -22.15 2.35 -27.05 4.05 -27.0" fill="url(#gradient5)" fill-rule="evenodd" stroke="none"/>
      <path d="M4.05 -27.0 L2.35 -27.05 2.35 -22.15 5.5 -21.55 Q5.25 -20.75 4.25 -20.4 3.5 -19.95 2.75 -19.6 L0.9 -19.15 -0.75 -18.9 -2.3 -18.5 -3.7 -18.2 -5.55 -17.6 -6.6 -17.05 -8.25 -15.95 -9.5 -14.3 -10.1 -12.65 Q-10.4 -11.5 -9.95 -10.5 -9.45 -9.4 -8.6 -8.85 L-7.3 -8.25 -6.1 -7.65 -4.8 -7.4 -3.5 -7.45 -3.4 -11.15 -3.45 -12.3 -4.7 -12.75 Q-3.8 -13.55 -2.9 -13.7 L-1.1 -14.1 0.6 -14.55 2.15 -14.8 3.65 -15.0 5.1 -15.35 6.45 -15.75 7.05 -16.2 8.5 -17.4 Q8.9 -17.85 9.1 -18.45 L9.7 -21.05 9.55 -22.4 Q8.95 -24.2 7.7 -25.35 6.95 -26.15 6.05 -26.55 L4.05 -27.0 M-6.6 -3.0 L-5.8 -3.05 -5.6 -3.05 -4.85 -3.2 -4.3 -3.2 -3.85 -3.2 -3.4 -3.25 2.15 -4.75 Q4.35 -5.25 6.2 -6.4 L3.35 -7.6 2.3 -7.75 2.4 -12.1 3.55 -12.1 Q7.3 -12.55 9.5 -9.05 10.35 -7.7 10.25 -5.85 10.15 -3.9 8.95 -2.45 5.3 0.1 1.0 0.85 -1.2 1.15 -3.35 1.85 L-3.7 1.75 -4.0 2.0 -4.0 2.1 -4.0 2.6 -3.45 2.85 -3.45 7.1 -4.05 7.15 -4.4 7.05 -4.5 6.95 -4.8 6.9 -4.95 6.9 Q-5.2 6.6 -6.0 6.45 -6.85 6.3 -7.9 5.55 L-9.5 4.4 -10.2 3.75 -10.2 -1.2 -10.15 -1.25 -9.4 -1.9 -9.1 -2.05 -6.7 -2.95 -6.65 -3.0 -6.6 -3.0 M3.55 3.3 Q7.3 2.85 9.5 6.35 10.35 7.7 10.25 9.55 10.15 11.5 8.95 12.95 5.3 15.5 1.0 16.25 -1.2 16.55 -3.35 17.25 L-3.7 17.15 -4.0 17.4 -4.0 17.5 -4.0 18.0 -3.45 18.25 -3.45 22.5 -4.05 22.55 -4.4 22.45 -4.5 22.35 -4.8 22.3 -4.95 22.3 Q-5.2 22.0 -6.0 21.85 -6.85 21.7 -7.9 20.95 L-9.5 19.8 -10.2 19.15 -10.2 14.2 -10.15 14.15 -9.4 13.5 -9.1 13.35 Q-7.9 12.85 -6.7 12.45 L-6.65 12.4 -6.6 12.4 -5.8 12.35 -5.6 12.35 -4.85 12.2 -4.3 12.2 -3.85 12.2 -3.4 12.15 Q-0.6 11.25 2.15 10.65 4.35 10.15 6.2 9.0 L3.35 7.8 2.3 7.65 2.4 3.3 3.55 3.3 Z" fill="none" stroke="#000033" stroke-linecap="round" stroke-linejoin="round" stroke-width="1.5"/>
    </g>
    <radialGradient cx="0" cy="0" gradientTransform="matrix(0.0145, 0.0, 0.0, 0.0187, -0.55, -1.1)" gradientUnits="userSpaceOnUse" id="gradient2" r="819.2" spreadMethod="pad">
      <stop offset="0.0" stop-color="#ffffcc"/>
      <stop offset="0.5411764705882353" stop-color="#fffe66"/>
      <stop offset="0.8784313725490196" stop-color="#ffcc00"/>
      <stop offset="1.0" stop-color="#cc6600"/>
    </radialGradient>
    <radialGradient cx="0" cy="0" gradientTransform="matrix(0.0145, 0.0, 0.0, 0.0187, -0.55, 14.3)" gradientUnits="userSpaceOnUse" id="gradient3" r="819.2" spreadMethod="pad">
      <stop offset="0.0" stop-color="#ccccff"/>
      <stop offset="0.5411764705882353" stop-color="#6666cc"/>
      <stop offset="0.8784313725490196" stop-color="#333366"/>
      <stop offset="1.0" stop-color="#000033"/>
    </radialGradient>
    <radialGradient cx="0" cy="0" gradientTransform="matrix(0.0145, 0.0, 0.0, 0.0187, -0.55, -1.1)" gradientUnits="userSpaceOnUse" id="gradient4" r="819.2" spreadMethod="pad">
      <stop offset="0.0" stop-color="#ccccff"/>
      <stop offset="0.5411764705882353" stop-color="#6666cc"/>
      <stop offset="0.8784313725490196" stop-color="#333366"/>
      <stop offset="1.0" stop-color="#000033"/>
    </radialGradient>
    <radialGradient cx="0" cy="0" gradientTransform="matrix(0.0157, 0.0, 0.0, 0.0204, -1.65, -15.5)" gradientUnits="userSpaceOnUse" id="gradient5" r="819.2" spreadMethod="pad">
      <stop offset="0.0" stop-color="#ccccff"/>
      <stop offset="0.5411764705882353" stop-color="#6666cc"/>
      <stop offset="0.8784313725490196" stop-color="#333366"/>
      <stop offset="1.0" stop-color="#000033"/>
    </radialGradient>
  </defs>
</svg>
