<?xml version="1.0" encoding="UTF-8" standalone="no"?>
<svg xmlns:ffdec="https://www.free-decompiler.com/flash" xmlns:xlink="http://www.w3.org/1999/xlink" ffdec:objectType="frame" height="9.1px" width="154.6px" xmlns="http://www.w3.org/2000/svg">
  <g transform="matrix(1.0, 0.0, 0.0, 1.0, 77.4, 2.45)">
    <use ffdec:characterId="29" height="8.55" transform="matrix(1.0, 0.0, 0.0, 1.0, 71.1, -2.2)" width="6.1" xlink:href="#text0"/>
    <use ffdec:characterId="29" height="8.55" transform="matrix(1.0, 0.0, 0.0, 1.0, 55.7, -2.2)" width="6.1" xlink:href="#text0"/>
    <use ffdec:characterId="30" height="8.55" transform="matrix(1.0, 0.0, 0.0, 1.0, 36.15, -2.2)" width="9.5" xlink:href="#text1"/>
    <use ffdec:characterId="31" height="8.6" transform="matrix(1.0, 0.0, 0.0, 1.0, 21.1, -2.25)" width="7.3" xlink:href="#text2"/>
    <use ffdec:characterId="32" height="8.55" transform="matrix(1.0, 0.0, 0.0, 1.0, 5.55, -2.25)" width="8.0" xlink:href="#text3"/>
    <use ffdec:characterId="33" height="8.6" transform="matrix(1.0, 0.0, 0.0, 1.0, -9.35, -2.3)" width="5.85" xlink:href="#text4"/>
    <use ffdec:characterId="34" height="8.6" transform="matrix(1.0, 0.0, 0.0, 1.0, -26.15, -2.3)" width="6.5" xlink:href="#text5"/>
    <use ffdec:characterId="34" height="8.6" transform="matrix(1.0, 0.0, 0.0, 1.0, -43.05, -2.3)" width="6.5" xlink:href="#text5"/>
    <use ffdec:characterId="35" height="8.8" transform="matrix(1.0, 0.0, 0.0, 1.0, -59.95, -2.15)" width="7.9" xlink:href="#text6"/>
    <use ffdec:characterId="36" height="9.0" transform="matrix(1.0, 0.0, 0.0, 1.0, -77.4, -2.45)" width="9.2" xlink:href="#text7"/>
  </g>
  <defs>
    <g id="text0" transform="matrix(1.0, 0.0, 0.0, 1.0, -0.8, -4.5)">
      <g transform="matrix(1.0, 0.0, 0.0, 1.0, 0.0, 0.0)">
        <use fill="#ccccff" height="8.55" transform="matrix(0.2344, 0.0, 0.0, 0.2344, 0.0, 13.0)" width="6.1" xlink:href="#font_Futura_XBlk_BT_L0"/>
      </g>
    </g>
    <g id="font_Futura_XBlk_BT_L0">
      <path d="M29.4 -11.75 L29.4 0.2 3.4 0.2 3.4 -36.35 16.6 -36.35 16.6 -11.75 29.4 -11.75" fill-rule="evenodd" stroke="none"/>
    </g>
    <g id="text1" transform="matrix(1.0, 0.0, 0.0, 1.0, 0.35, -4.5)">
      <g transform="matrix(1.0, 0.0, 0.0, 1.0, 0.0, 0.0)">
        <use fill="#ccccff" height="8.55" transform="matrix(0.2344, 0.0, 0.0, 0.2344, 0.0, 13.0)" width="9.5" xlink:href="#font_Futura_XBlk_BT_A0"/>
      </g>
    </g>
    <g id="font_Futura_XBlk_BT_A0">
      <path d="M15.9 -13.15 L21.4 -13.15 20.25 -17.25 Q19.3 -20.05 18.8 -25.2 L18.5 -25.2 Q18.0 -20.05 17.05 -17.25 L15.9 -13.15 M13.7 -4.4 L12.55 0.2 -1.6 0.2 11.5 -36.35 26.15 -36.35 39.0 0.2 24.85 0.2 23.65 -4.4 13.7 -4.4" fill-rule="evenodd" stroke="none"/>
    </g>
    <g id="text2" transform="matrix(1.0, 0.0, 0.0, 1.0, -0.8, -4.45)">
      <g transform="matrix(1.0, 0.0, 0.0, 1.0, 0.0, 0.0)">
        <use fill="#ccccff" height="8.6" transform="matrix(0.2344, 0.0, 0.0, 0.2344, 0.0, 13.0)" width="7.3" xlink:href="#font_Futura_XBlk_BT_B0"/>
      </g>
    </g>
    <g id="font_Futura_XBlk_BT_B0">
      <path d="M29.9 -33.65 Q32.95 -30.95 33.0 -26.35 32.85 -20.25 27.2 -18.8 34.65 -17.2 34.6 -10.2 34.55 0.1 20.85 0.2 L3.4 0.2 3.4 -36.35 21.0 -36.35 Q26.8 -36.3 29.9 -33.65 M15.8 -27.6 L15.8 -22.55 17.55 -22.55 Q20.8 -22.6 20.85 -25.1 20.8 -27.55 17.55 -27.6 L15.8 -27.6 M15.8 -14.6 L15.8 -8.95 18.0 -8.95 Q22.0 -9.05 22.0 -11.8 22.0 -14.5 18.0 -14.6 L15.8 -14.6" fill-rule="evenodd" stroke="none"/>
    </g>
    <g id="text3" transform="matrix(1.0, 0.0, 0.0, 1.0, -0.8, -4.5)">
      <g transform="matrix(1.0, 0.0, 0.0, 1.0, 0.0, 0.0)">
        <use fill="#ccccff" height="8.55" transform="matrix(0.2344, 0.0, 0.0, 0.2344, 0.0, 13.0)" width="8.0" xlink:href="#font_Futura_XBlk_BT_R0"/>
      </g>
    </g>
    <g id="font_Futura_XBlk_BT_R0">
      <path d="M16.4 -26.8 L16.4 -19.7 18.4 -19.7 Q22.15 -19.8 22.2 -23.2 22.2 -26.65 18.4 -26.8 L16.4 -26.8 M27.7 -14.65 L37.5 0.2 22.7 0.2 16.4 -11.85 16.4 0.2 3.4 0.2 3.4 -36.35 19.95 -36.35 Q34.7 -36.05 34.8 -23.9 34.45 -15.8 27.7 -14.65" fill-rule="evenodd" stroke="none"/>
    </g>
    <g id="text4" transform="matrix(1.0, 0.0, 0.0, 1.0, -0.8, -4.45)">
      <g transform="matrix(1.0, 0.0, 0.0, 1.0, 0.0, 0.0)">
        <use fill="#ccccff" height="8.6" transform="matrix(0.2344, 0.0, 0.0, 0.2344, 0.0, 13.0)" width="5.85" xlink:href="#font_Futura_XBlk_BT_E0"/>
      </g>
    </g>
    <g id="font_Futura_XBlk_BT_E0">
      <path d="M27.95 -26.4 L16.4 -26.4 16.4 -22.95 26.9 -22.95 26.9 -13.6 16.4 -13.6 16.4 -9.8 28.3 -9.8 28.3 0.2 3.4 0.2 3.4 -36.4 27.95 -36.4 27.95 -26.4" fill-rule="evenodd" stroke="none"/>
    </g>
    <g id="text5" transform="matrix(1.0, 0.0, 0.0, 1.0, -0.2, -4.45)">
      <g transform="matrix(1.0, 0.0, 0.0, 1.0, 0.0, 0.0)">
        <use fill="#ccccff" height="8.6" transform="matrix(0.2344, 0.0, 0.0, 0.2344, 0.0, 13.0)" width="6.5" xlink:href="#font_Futura_XBlk_BT_T0"/>
      </g>
    </g>
    <g id="font_Futura_XBlk_BT_T0">
      <path d="M21.35 -24.4 L21.35 0.2 8.15 0.2 8.15 -24.4 0.8 -24.4 0.8 -36.35 28.65 -36.35 28.65 -24.4 21.35 -24.4" fill-rule="evenodd" stroke="none"/>
    </g>
    <g id="text6" transform="matrix(1.0, 0.0, 0.0, 1.0, -0.75, -4.5)">
      <g transform="matrix(1.0, 0.0, 0.0, 1.0, 0.0, 0.0)">
        <use fill="#ffffff" height="8.8" transform="matrix(0.2344, 0.0, 0.0, 0.2344, 0.0, 13.0)" width="7.9" xlink:href="#font_Futura_XBlk_BT_U0"/>
      </g>
    </g>
    <g id="font_Futura_XBlk_BT_U0">
      <path d="M36.85 -36.35 L36.85 -16.5 Q37.1 -10.0 34.7 -5.9 30.2 1.0 20.05 1.25 9.85 0.95 5.4 -5.9 3.0 -10.0 3.25 -16.5 L3.25 -36.35 16.45 -36.35 16.45 -16.4 Q16.4 -13.55 17.1 -11.95 17.85 -10.4 20.05 -10.35 22.2 -10.4 22.95 -11.95 23.7 -13.55 23.65 -16.4 L23.65 -36.35 36.85 -36.35" fill-rule="evenodd" stroke="none"/>
    </g>
    <g id="text7" transform="matrix(1.0, 0.0, 0.0, 1.0, -0.45, -4.3)">
      <g transform="matrix(1.0, 0.0, 0.0, 1.0, 0.0, 0.0)">
        <use fill="#ccccff" height="9.0" transform="matrix(0.2344, 0.0, 0.0, 0.2344, 0.0, 13.0)" width="9.2" xlink:href="#font_Futura_XBlk_BT_G0"/>
      </g>
    </g>
    <g id="font_Futura_XBlk_BT_G0">
      <path d="M38.75 -27.5 L27.0 -23.25 Q25.1 -26.2 21.8 -26.2 15.75 -25.95 15.4 -18.1 15.6 -10.15 22.1 -9.95 26.05 -10.05 26.6 -13.0 L20.85 -13.0 20.85 -21.6 41.1 -21.6 41.2 -18.85 Q41.2 -11.4 37.4 -6.35 31.7 1.0 21.6 1.2 13.1 1.15 7.55 -4.35 2.05 -9.85 2.0 -18.1 2.1 -26.3 7.55 -31.7 13.15 -37.15 21.6 -37.2 33.0 -37.05 38.75 -27.5" fill-rule="evenodd" stroke="none"/>
    </g>
  </defs>
</svg>
