<?xml version="1.0" encoding="UTF-8" standalone="no"?>
<svg xmlns:ffdec="https://www.free-decompiler.com/flash" xmlns:xlink="http://www.w3.org/1999/xlink" ffdec:objectType="frame" height="35.95px" width="37.7px" xmlns="http://www.w3.org/2000/svg">
  <g transform="matrix(1.0, 0.0, 0.0, 1.0, 18.95, 26.25)">
    <use ffdec:characterId="68" height="17.45" transform="matrix(1.0, 0.0, 0.0, 1.0, -17.8, -8.7)" width="35.6" xlink:href="#shape0"/>
    <clipPath id="clipPath0" transform="matrix(1.0, 0.0, 0.0, 1.0, 0.0, 0.0)">
      <path d="M0.05 8.75 Q-7.4 8.75 -12.55 3.6 -17.8 -1.45 -17.8 -8.7 L17.8 -8.7 Q17.8 -1.45 12.6 3.6 7.35 8.75 0.05 8.75" fill="#ffff00" fill-rule="evenodd" stroke="none"/>
    </clipPath>
    <g clip-path="url(#clipPath0)">
      <use ffdec:characterId="70" height="35.95" transform="matrix(1.0, 0.0, 0.0, 1.0, -18.95, -26.25)" width="37.7" xlink:href="#shape2"/>
    </g>
    <use ffdec:characterId="71" height="3.65" transform="matrix(1.0, 0.0, 0.0, 1.0, -16.75, -8.05)" width="33.75" xlink:href="#shape3"/>
  </g>
  <defs>
    <g id="shape0" transform="matrix(1.0, 0.0, 0.0, 1.0, 17.8, 8.7)">
      <path d="M17.8 -8.7 Q17.8 -1.45 12.6 3.6 7.35 8.75 0.05 8.75 -7.4 8.75 -12.55 3.6 -17.8 -1.45 -17.8 -8.7 L17.8 -8.7" fill="#ffffcc" fill-rule="evenodd" stroke="none"/>
    </g>
    <g id="shape2" transform="matrix(1.0, 0.0, 0.0, 1.0, 18.95, 26.25)">
      <path d="M18.75 -8.65 Q18.75 -1.35 13.25 3.8 10.85 6.05 8.0 7.3 4.7 9.7 0.4 9.7 -3.25 9.65 -6.1 8.05 -10.2 6.8 -13.45 3.8 -18.95 -1.35 -18.95 -8.65 -18.95 -15.95 -13.45 -21.1 -7.9 -26.25 -0.05 -26.25 7.75 -26.25 13.25 -21.1 18.75 -15.95 18.75 -8.65" fill="url(#gradient0)" fill-rule="evenodd" stroke="none"/>
    </g>
    <radialGradient cx="0" cy="0" gradientTransform="matrix(0.024, 0.0, 0.0, 0.024, -0.1, -8.3)" gradientUnits="userSpaceOnUse" id="gradient0" r="819.2" spreadMethod="pad">
      <stop offset="0.0" stop-color="#ffcc00"/>
      <stop offset="0.25098039215686274" stop-color="#fffe66"/>
      <stop offset="0.4980392156862745" stop-color="#ffffcc"/>
      <stop offset="0.7333333333333333" stop-color="#fff656"/>
      <stop offset="1.0" stop-color="#ffcc00"/>
    </radialGradient>
    <g id="shape3" transform="matrix(1.0, 0.0, 0.0, 1.0, 16.75, 8.05)">
      <path d="M12.05 -5.45 Q7.1 -4.4 0.15 -4.4 -6.9 -4.4 -11.8 -5.45 -16.8 -6.55 -16.75 -8.05 L17.0 -8.05 Q16.95 -6.55 12.05 -5.45" fill="#ff9121" fill-rule="evenodd" stroke="none"/>
    </g>
  </defs>
</svg>
