<?xml version="1.0" encoding="UTF-8" standalone="no"?>
<svg xmlns:ffdec="https://www.free-decompiler.com/flash" xmlns:xlink="http://www.w3.org/1999/xlink" ffdec:objectType="frame" height="24.2px" width="24.2px" xmlns="http://www.w3.org/2000/svg">
  <g transform="matrix(1.0, 0.0, 0.0, 1.0, 9.1, 9.15)">
    <use ffdec:characterId="40" height="11.25" transform="matrix(1.6872, 0.0, 0.0, 1.6872, -9.0917, -3.9115)" width="14.35" xlink:href="#shape0"/>
    <use ffdec:characterId="43" height="18.1" transform="matrix(1.0, 0.0, 0.0, 1.0, -8.85, -9.15)" width="17.8" xlink:href="#shape1"/>
    <use ffdec:characterId="45" height="18.0" transform="matrix(1.0, 0.0, 0.0, 1.0, -8.95, -9.05)" width="18.0" xlink:href="#sprite0"/>
    <use ffdec:characterId="46" height="11.05" transform="matrix(1.0, 0.0, 0.0, 1.0, -7.85, -8.4)" width="7.0" xlink:href="#shape3"/>
  </g>
  <defs>
    <g id="shape0" transform="matrix(1.0, 0.0, 0.0, 1.0, 6.1, 3.0)">
      <path d="M-4.4 -3.0 L6.75 -3.0 Q8.2 -1.15 8.25 1.3 8.2 4.25 6.15 6.25 4.1 8.25 1.15 8.25 -1.8 8.25 -3.9 6.25 L-6.1 4.05 -5.85 2.9 -5.95 1.0 -5.3 -0.85 -4.4 -3.0" fill="url(#gradient0)" fill-rule="evenodd" stroke="none"/>
    </g>
    <radialGradient cx="0" cy="0" gradientTransform="matrix(0.0096, 0.0, 0.0, 0.0096, 1.05, 1.6)" gradientUnits="userSpaceOnUse" id="gradient0" r="819.2" spreadMethod="pad">
      <stop offset="0.0" stop-color="#000000" stop-opacity="0.19607843"/>
      <stop offset="0.0" stop-color="#000a18" stop-opacity="0.19607843"/>
      <stop offset="0.0" stop-color="#000a18" stop-opacity="0.19607843"/>
      <stop offset="0.5450980392156862" stop-color="#00000a" stop-opacity="0.19607843"/>
      <stop offset="0.8352941176470589" stop-color="#ccccff" stop-opacity="0.19607843"/>
      <stop offset="1.0" stop-color="#ccccff" stop-opacity="0.19607843"/>
    </radialGradient>
    <g id="shape1" transform="matrix(1.0, 0.0, 0.0, 1.0, 8.85, 9.15)">
      <path d="M-7.7 -4.5 L-6.15 -6.6 Q-3.6 -9.15 0.0 -9.15 3.6 -9.15 6.15 -6.6 L7.7 -4.55 Q8.7 -2.7 8.7 -0.45 8.7 3.15 6.15 5.7 3.6 8.25 0.0 8.25 -3.6 8.25 -6.15 5.7 -8.7 3.15 -8.7 -0.45 -8.7 -2.7 -7.7 -4.5" fill="url(#gradient1)" fill-rule="evenodd" stroke="none"/>
      <path d="M7.7 -4.55 Q9.05 -2.3 8.95 0.45 8.7 4.15 6.0 6.65 3.25 9.1 -0.4 8.95 -4.15 8.75 -6.6 6.0 -9.1 3.25 -8.85 -0.45 -8.8 -2.7 -7.7 -4.5 -8.7 -2.7 -8.7 -0.45 -8.7 3.15 -6.15 5.7 -3.6 8.25 0.0 8.25 3.6 8.25 6.15 5.7 8.7 3.15 8.7 -0.45 8.7 -2.7 7.7 -4.55" fill="#00c1ec" fill-rule="evenodd" stroke="none"/>
    </g>
    <radialGradient cx="0" cy="0" gradientTransform="matrix(0.0111, 0.0, 0.0, 0.0111, 0.0, -0.45)" gradientUnits="userSpaceOnUse" id="gradient1" r="819.2" spreadMethod="pad">
      <stop offset="0.0" stop-color="#ffffff"/>
      <stop offset="0.4392156862745098" stop-color="#99e1ff"/>
      <stop offset="1.0" stop-color="#007fad"/>
    </radialGradient>
    <g id="sprite0" transform="matrix(1.0, 0.0, 0.0, 1.0, 9.0, 34.0)">
      <use ffdec:characterId="44" height="18.0" transform="matrix(1.0, 0.0, 0.0, 1.0, -9.0, -34.0)" width="18.0" xlink:href="#shape2"/>
    </g>
    <g id="shape2" transform="matrix(1.0, 0.0, 0.0, 1.0, 9.0, 34.0)">
      <path d="M8.95 -24.25 Q8.6 -20.55 5.75 -18.1 2.9 -15.7 -0.8 -16.05 -4.5 -16.35 -6.9 -19.2 -9.3 -22.05 -8.95 -25.8 -8.65 -29.45 -5.8 -31.85 -2.95 -34.25 0.75 -33.95 4.45 -33.65 6.85 -30.75 9.25 -27.9 8.95 -24.25" fill="url(#gradient2)" fill-rule="evenodd" stroke="none"/>
    </g>
    <linearGradient gradientTransform="matrix(0.0073, 0.0082, -0.0082, 0.0073, 0.0, -25.0)" gradientUnits="userSpaceOnUse" id="gradient2" spreadMethod="pad" x1="-819.2" x2="819.2">
      <stop offset="0.0" stop-color="#99e1ff" stop-opacity="0.49803922"/>
      <stop offset="0.6392156862745098" stop-color="#000033" stop-opacity="0.49803922"/>
      <stop offset="0.9725490196078431" stop-color="#000033" stop-opacity="0.49803922"/>
    </linearGradient>
    <g id="shape3" transform="matrix(1.0, 0.0, 0.0, 1.0, 7.85, 8.4)">
      <path d="M-3.1 -7.55 Q-2.7 -7.95 -2.15 -8.15 L-1.2 -8.4 Q-0.85 -8.35 -0.85 -8.1 -0.8 -7.85 -1.15 -7.55 -1.55 -7.2 -2.1 -6.95 L-2.65 -6.65 Q-2.95 -6.5 -3.1 -6.5 -3.45 -6.55 -3.45 -7.0 L-3.1 -7.55 M-6.15 -1.7 Q-6.95 0.05 -6.75 1.9 L-7.0 2.45 -7.2 2.65 Q-8.0 1.85 -7.8 1.05 -7.75 -1.55 -7.1 -2.7 -5.45 -6.3 -4.15 -6.25 -3.25 -6.25 -3.8 -5.3 -5.3 -3.6 -6.15 -1.7" fill="#ffffff" fill-rule="evenodd" stroke="none"/>
    </g>
  </defs>
</svg>
