<?xml version="1.0" encoding="UTF-8" standalone="no"?>
<svg xmlns:ffdec="https://www.free-decompiler.com/flash" xmlns:xlink="http://www.w3.org/1999/xlink" ffdec:objectType="frame" height="28.4px" width="245.65px" xmlns="http://www.w3.org/2000/svg">
  <g transform="matrix(1.0, 0.0, 0.0, 1.0, 121.3, 14.55)">
    <use ffdec:characterId="7" height="28.4" transform="matrix(1.0, 0.0, 0.0, 1.0, -121.3, -14.55)" width="242.65" xlink:href="#shape0"/>
  </g>
  <defs>
    <g id="shape0" transform="matrix(1.0, 0.0, 0.0, 1.0, 121.3, 14.55)">
      <path d="M120.6 -1.95 L120.6 13.85 -110.8 13.85 Q-114.8 13.85 -117.7 10.95 -120.6 8.05 -120.55 4.0 L-120.55 -6.0 -117.1 -13.8 -109.5 5.55 -100.9 -13.8 -93.3 5.55 -84.7 -13.8 -77.1 5.55 -68.5 -13.8 -60.9 5.55 -52.3 -13.8 -44.7 5.55 -36.15 -13.8 -28.5 5.55 -19.9 -13.8 -12.3 5.55 -3.75 -13.8 3.9 5.55 12.5 -13.8 20.1 5.55 28.7 -13.8 36.3 5.55 44.85 -13.8 52.5 5.55 61.1 -13.8 68.7 5.55 77.25 -13.8 84.9 5.55 93.45 -13.8 101.1 5.55 109.65 -13.8 117.3 5.55 120.6 -1.95" fill="#333366" fill-rule="evenodd" stroke="none"/>
      <path d="M120.6 -1.95 L117.3 5.55 109.65 -13.8 101.1 5.55 93.45 -13.8 84.9 5.55 77.25 -13.8 68.7 5.55 61.1 -13.8 52.5 5.55 44.85 -13.8 36.3 5.55 28.7 -13.8 20.1 5.55 12.5 -13.8 3.9 5.55 -3.75 -13.8 -12.3 5.55 -19.9 -13.8 -28.5 5.55 -36.15 -13.8 -44.7 5.55 -52.3 -13.8 -60.9 5.55 -68.5 -13.8 -77.1 5.55 -84.7 -13.8 -93.3 5.55 -100.9 -13.8 -109.5 5.55 -117.1 -13.8 -120.55 -6.0" fill="none" stroke="#ffffff" stroke-linecap="round" stroke-linejoin="round" stroke-width="1.5"/>
    </g>
  </defs>
</svg>
